<svg width="54" height="54" viewBox="0 0 54 54" fill="none" xmlns="http://www.w3.org/2000/svg">
<path fill-rule="evenodd" clip-rule="evenodd" d="M51.75 27C51.75 40.6691 40.669 51.75 27 51.75C13.331 51.75 2.25 40.6691 2.25 27C2.25 13.3309 13.331 2.25 27 2.25C40.669 2.25 51.75 13.3309 51.75 27ZM45.5626 26.9987C45.5626 34.4526 41.167 40.8765 34.8283 43.8297L33.1918 37.7226C36.8927 35.581 39.3845 31.5819 39.3845 26.9987C39.3845 24.9125 38.8665 22.9482 37.9554 21.2236L29.5792 33.1862H24.4208L16.0445 21.2236C15.1336 22.9482 14.6155 24.9125 14.6155 26.9987C14.6155 31.5819 17.1073 35.581 20.8082 37.7226L19.1717 43.8297C12.8331 40.8765 8.43751 34.4526 8.43751 26.9987C8.43751 20.5226 11.7561 14.8238 16.7834 11.5027L27 26.0898L37.2164 11.5025C42.2437 14.8236 45.5626 20.5224 45.5626 26.9987ZM27 4.31118C39.53 4.31118 49.6875 14.4686 49.6875 26.9987C49.6875 39.5285 39.53 49.6862 27 49.6862C14.4701 49.6862 4.3125 39.5285 4.3125 26.9987C4.3125 14.4686 14.4701 4.31118 27 4.31118Z" fill="#00A2DF"/>
</svg>
