<svg width="40" height="55" viewBox="0 0 40 55" fill="none" xmlns="http://www.w3.org/2000/svg">
<mask id="mask0_913_1270" style="mask-type:alpha" maskUnits="userSpaceOnUse" x="0" y="0" width="40" height="55">
<path d="M24.5833 0.143555H3.6875C1.65938 0.143555 0 1.80293 0 3.83105V50.5394C0 52.5675 1.65938 54.2269 3.6875 54.2269H35.6458C37.674 54.2269 39.3333 52.5675 39.3333 50.5394V14.8936L24.5833 0.143555Z" fill="white"/>
</mask>
<g mask="url(#mask0_913_1270)">
<path d="M24.5833 0.143555H3.6875C1.65938 0.143555 0 1.80293 0 3.83105V50.5394C0 52.5675 1.65938 54.2269 3.6875 54.2269H35.6458C37.674 54.2269 39.3333 52.5675 39.3333 50.5394V14.8936L30.7292 8.74772L24.5833 0.143555Z" fill="#0F9D58"/>
</g>
<mask id="mask1_913_1270" style="mask-type:alpha" maskUnits="userSpaceOnUse" x="0" y="0" width="40" height="55">
<path d="M24.5833 0.143555H3.6875C1.65938 0.143555 0 1.80293 0 3.83105V50.5394C0 52.5675 1.65938 54.2269 3.6875 54.2269H35.6458C37.674 54.2269 39.3333 52.5675 39.3333 50.5394V14.8936L24.5833 0.143555Z" fill="white"/>
</mask>
<g mask="url(#mask1_913_1270)">
<path d="M9.83337 26.5706V44.3935H29.5V26.5706H9.83337ZM18.4375 41.9352H12.2917V38.8623H18.4375V41.9352ZM18.4375 37.0185H12.2917V33.9456H18.4375V37.0185ZM18.4375 32.1019H12.2917V29.029H18.4375V32.1019ZM27.0417 41.9352H20.8959V38.8623H27.0417V41.9352ZM27.0417 37.0185H20.8959V33.9456H27.0417V37.0185ZM27.0417 32.1019H20.8959V29.029H27.0417V32.1019Z" fill="#F1F1F1"/>
</g>
<mask id="mask2_913_1270" style="mask-type:alpha" maskUnits="userSpaceOnUse" x="0" y="0" width="40" height="55">
<path d="M24.5833 0.143555H3.6875C1.65938 0.143555 0 1.80293 0 3.83105V50.5394C0 52.5675 1.65938 54.2269 3.6875 54.2269H35.6458C37.674 54.2269 39.3333 52.5675 39.3333 50.5394V14.8936L24.5833 0.143555Z" fill="white"/>
</mask>
<g mask="url(#mask2_913_1270)">
<path d="M25.6619 13.8149L39.3333 27.4833V14.8935L25.6619 13.8149Z" fill="url(#paint0_linear_913_1270)"/>
</g>
<mask id="mask3_913_1270" style="mask-type:alpha" maskUnits="userSpaceOnUse" x="0" y="0" width="40" height="55">
<path d="M24.5833 0.143555H3.6875C1.65938 0.143555 0 1.80293 0 3.83105V50.5394C0 52.5675 1.65938 54.2269 3.6875 54.2269H35.6458C37.674 54.2269 39.3333 52.5675 39.3333 50.5394V14.8936L24.5833 0.143555Z" fill="white"/>
</mask>
<g mask="url(#mask3_913_1270)">
<path d="M24.5834 0.143555V11.2061C24.5834 13.2434 26.2335 14.8936 28.2709 14.8936H39.3334L24.5834 0.143555Z" fill="#87CEAC"/>
</g>
<mask id="mask4_913_1270" style="mask-type:alpha" maskUnits="userSpaceOnUse" x="0" y="0" width="40" height="55">
<path d="M24.5833 0.143555H3.6875C1.65938 0.143555 0 1.80293 0 3.83105V50.5394C0 52.5675 1.65938 54.2269 3.6875 54.2269H35.6458C37.674 54.2269 39.3333 52.5675 39.3333 50.5394V14.8936L24.5833 0.143555Z" fill="white"/>
</mask>
<g mask="url(#mask4_913_1270)">
<path d="M3.6875 0.143555C1.65938 0.143555 0 1.80293 0 3.83105V4.13835C0 2.11022 1.65938 0.450846 3.6875 0.450846H24.5833V0.143555H3.6875Z" fill="white" fill-opacity="0.2"/>
</g>
<mask id="mask5_913_1270" style="mask-type:alpha" maskUnits="userSpaceOnUse" x="0" y="0" width="40" height="55">
<path d="M24.5833 0.143555H3.6875C1.65938 0.143555 0 1.80293 0 3.83105V50.5394C0 52.5675 1.65938 54.2269 3.6875 54.2269H35.6458C37.674 54.2269 39.3333 52.5675 39.3333 50.5394V14.8936L24.5833 0.143555Z" fill="white"/>
</mask>
<g mask="url(#mask5_913_1270)">
<path d="M35.6458 53.9196H3.6875C1.65938 53.9196 0 52.2602 0 50.2321V50.5394C0 52.5675 1.65938 54.2269 3.6875 54.2269H35.6458C37.674 54.2269 39.3333 52.5675 39.3333 50.5394V50.2321C39.3333 52.2602 37.674 53.9196 35.6458 53.9196Z" fill="#263238" fill-opacity="0.2"/>
</g>
<mask id="mask6_913_1270" style="mask-type:alpha" maskUnits="userSpaceOnUse" x="0" y="0" width="40" height="55">
<path d="M24.5833 0.143555H3.6875C1.65938 0.143555 0 1.80293 0 3.83105V50.5394C0 52.5675 1.65938 54.2269 3.6875 54.2269H35.6458C37.674 54.2269 39.3333 52.5675 39.3333 50.5394V14.8936L24.5833 0.143555Z" fill="white"/>
</mask>
<g mask="url(#mask6_913_1270)">
<path d="M28.2709 14.8936C26.2335 14.8936 24.5834 13.2434 24.5834 11.2061V11.5133C24.5834 13.5507 26.2335 15.2008 28.2709 15.2008H39.3334V14.8936H28.2709Z" fill="#263238" fill-opacity="0.1"/>
</g>
<path d="M24.5833 0.143555H3.6875C1.65938 0.143555 0 1.80293 0 3.83105V50.5394C0 52.5675 1.65938 54.2269 3.6875 54.2269H35.6458C37.674 54.2269 39.3333 52.5675 39.3333 50.5394V14.8936L24.5833 0.143555Z" fill="url(#paint1_radial_913_1270)"/>
<defs>
<linearGradient id="paint0_linear_913_1270" x1="32.4983" y1="14.9885" x2="32.4983" y2="27.4852" gradientUnits="userSpaceOnUse">
<stop stop-color="#263238" stop-opacity="0.2"/>
<stop offset="1" stop-color="#263238" stop-opacity="0.02"/>
</linearGradient>
<radialGradient id="paint1_radial_913_1270" cx="0" cy="0" r="1" gradientUnits="userSpaceOnUse" gradientTransform="translate(1.2461 1.21857) scale(63.4244)">
<stop stop-color="white" stop-opacity="0.1"/>
<stop offset="1" stop-color="white" stop-opacity="0"/>
</radialGradient>
</defs>
</svg>
