<svg version="1.2" baseProfile="tiny-ps" xmlns="http://www.w3.org/2000/svg" viewBox="0 0 80 32" width="80" height="32">
	<title>logo_workday-svg</title>
	<style>
		tspan { white-space:pre }
		.s0 { fill: #f38b00 } 
		.s1 { fill: #005cb9 } 
	</style>
	<path id="Layer" class="s0" d="m21.97 15.53c-0.7 0-1.27-0.57-1.27-1.26c0-0.17 0.03-0.34 0.09-0.49c3.47-8.1 11.54-13.78 20.94-13.78c9.4 0 17.48 5.68 20.95 13.79c0.06 0.15 0.09 0.31 0.09 0.48c0 0.7-0.57 1.26-1.27 1.26c-0.55 0-1.02-0.35-1.2-0.83h0c-3.07-7.19-10.23-12.23-18.57-12.23c-8.34 0-15.5 5.04-18.57 12.22c-0.19 0.49-0.65 0.83-1.2 0.83z" />
	<path id="Layer" class="s1" d="m11.72 27.78c-0.07 0.21-0.23 0.35-0.53 0.35h-1.69c-0.28 0-0.42-0.08-0.49-0.35l-1.6-5.96c-0.16-0.6-0.23-1.3-0.33-2c-0.07 0.7-0.16 1.42-0.32 2l-1.6 5.96c-0.05 0.21-0.23 0.35-0.53 0.35h-1.72c-0.28 0-0.42-0.08-0.49-0.35l-2.35-8.57c-0.07-0.29 0.12-0.47 0.37-0.47h1.09c0.3 0 0.46 0.1 0.53 0.39l1.49 6.11c0.16 0.7 0.21 1.42 0.28 2.08c0.12-0.64 0.21-1.4 0.39-2.06l1.65-6.15c0.07-0.25 0.28-0.37 0.56-0.37h1.34c0.28 0 0.51 0.14 0.58 0.39l1.67 6.13c0.19 0.66 0.28 1.4 0.37 2.06c0.09-0.64 0.19-1.4 0.33-2.06l1.37-6.15c0.05-0.25 0.28-0.37 0.56-0.37h1.02c0.26 0 0.44 0.16 0.37 0.45l-2.32 8.58z" />
	<path id="Layer" fill-rule="evenodd" class="s1" d="m20.8 28.22c-2.69 0-4.46-1.84-4.46-4.84c0-2.98 1.76-4.79 4.46-4.79c2.69 0 4.41 1.81 4.41 4.79c0 3-1.72 4.84-4.41 4.84zm-0.05-8.33c-1.6 0-2.48 1.15-2.48 3.49c0 2.4 0.88 3.55 2.48 3.55c1.6 0 2.48-1.16 2.48-3.55c0-2.34-0.88-3.49-2.48-3.49z" />
	<path id="Layer" class="s1" d="m33.87 20.07c-0.07 0.27-0.28 0.45-0.67 0.35c-0.33-0.08-0.86-0.21-1.3-0.21c-0.67 0-1.58 0.76-1.58 2.46v5.08c0 0.21-0.23 0.39-0.49 0.39h-0.88c-0.25 0-0.49-0.17-0.49-0.39v-8.61c0-0.23 0.23-0.39 0.49-0.39h0.54c0.23 0 0.42 0.1 0.49 0.29l0.33 1.05c0.65-0.92 1.53-1.5 2.6-1.5c0.74 0 1.32 0.29 1.21 0.68l-0.23 0.8z" />
	<path id="Layer" fill-rule="evenodd" class="s1" d="m55.07 28.05h-0.49c-0.35 0-0.53-0.12-0.6-0.39l-0.19-0.78c-0.67 0.95-1.51 1.32-2.71 1.32c-2.39 0-3.64-1.63-3.64-4.78c0-1.93 0.33-2.88 1.12-3.78c0.6-0.68 1.6-1.05 2.6-1.05c1.14 0 1.99 0.47 2.6 1.38v-5.3c0-0.23 0.23-0.39 0.49-0.39h0.84c0.26 0 0.49 0.16 0.49 0.39v12.98c0 0.22-0.24 0.39-0.49 0.39zm-3.53-8.17c-0.7 0-1.23 0.25-1.55 0.76c-0.33 0.51-0.58 1.35-0.58 2.77c0 2.49 0.65 3.51 2.11 3.51c1.51 0 2.27-1.14 2.27-3.47c0-2.32-0.84-3.56-2.25-3.56z" />
	<path id="Layer" class="s1" d="m44.52 28.13h-1.42c-0.23 0-0.42-0.14-0.56-0.33l-3.57-4.52v4.46c0 0.21-0.23 0.39-0.49 0.39h-0.84c-0.25 0-0.49-0.18-0.49-0.39v-13.01c0-0.23 0.23-0.39 0.49-0.39h0.84c0.26 0 0.49 0.16 0.49 0.39v8.37l3.68-4.07c0.12-0.16 0.3-0.29 0.6-0.29h1.25c0.33 0 0.44 0.27 0.26 0.47l-3.91 3.91l3.92 4.54c0.16 0.2 0.07 0.47-0.25 0.47z" />
	<path id="Layer" class="s1" d="m69.21 19.13c-0.1-0.21 0.15-0.38 0.42-0.38h1.09c0.29 0 0.51 0.14 0.61 0.38l2.16 5.67c0.1 0.27 0.2 0.67 0.24 0.98c0.07-0.29 0.22-0.85 0.39-1.33l1.74-5.35c0.07-0.25 0.3-0.37 0.59-0.37h1.05c0.27 0 0.49 0.17 0.42 0.38l-3.6 10.3c-0.37 1.06-1.08 1.88-2.3 2.35l-0.51 0.19c-0.22 0.08-0.51 0.02-0.64-0.17l-0.34-0.54c-0.1-0.15 0.02-0.46 0.25-0.54l0.36-0.14c0.92-0.33 1.59-1.33 1.88-2.6l-3.8-8.85z" />
	<path id="Layer" fill-rule="evenodd" class="s1" d="m67.09 23.36v0l0 4.3c0 0.22-0.23 0.39-0.49 0.39h-0.49c-0.35 0-0.54-0.12-0.6-0.39l-0.18-0.8c-0.67 0.96-1.37 1.33-2.45 1.33h0c-2.52 0-4.14-1.8-4.14-4.8c0-2.98 1.58-4.8 4.27-4.8c2.7 0 4.09 1.79 4.09 4.77zm-1.77 0.03c0-2.34-0.76-3.49-2.36-3.49c-1.6 0-2.3 1.15-2.3 3.49c0 2.4 0.69 3.51 2.3 3.51c1.6 0 2.36-1.11 2.36-3.51z" />
	<path id="Layer" fill-rule="evenodd" class="s1" d="m79.17 25.64c0.15 0.06 0.29 0.16 0.41 0.28c0.12 0.12 0.21 0.25 0.27 0.4c0.06 0.15 0.09 0.31 0.09 0.48c0 0.17-0.03 0.33-0.1 0.49c-0.06 0.16-0.15 0.29-0.28 0.4c-0.12 0.12-0.26 0.21-0.41 0.27c-0.15 0.06-0.31 0.09-0.48 0.09c-0.17 0-0.33-0.03-0.48-0.1c-0.15-0.07-0.29-0.16-0.41-0.29c-0.12-0.12-0.21-0.25-0.27-0.4c-0.06-0.15-0.09-0.31-0.09-0.48c0-0.11 0.02-0.23 0.05-0.34c0.03-0.11 0.08-0.21 0.14-0.32c0.12-0.19 0.27-0.34 0.45-0.45c0.19-0.11 0.4-0.16 0.62-0.16c0.17 0 0.34 0.03 0.49 0.1zm-0.89 0.19c-0.13 0.05-0.24 0.12-0.33 0.22c-0.11 0.1-0.18 0.22-0.24 0.35c-0.06 0.13-0.08 0.26-0.08 0.4c0 0.14 0.03 0.27 0.08 0.4c0.05 0.12 0.13 0.24 0.23 0.34c0.1 0.1 0.22 0.18 0.34 0.24c0.13 0.06 0.26 0.08 0.4 0.08c0.14 0 0.27-0.03 0.4-0.08c0.13-0.05 0.25-0.13 0.35-0.23c0.1-0.09 0.17-0.2 0.23-0.33c0.05-0.12 0.08-0.26 0.08-0.39c0-0.15-0.03-0.29-0.08-0.42c-0.05-0.13-0.13-0.24-0.22-0.34c-0.1-0.1-0.22-0.18-0.34-0.24c-0.13-0.05-0.27-0.08-0.41-0.08c-0.14 0-0.27 0.03-0.4 0.08zm0.42 0.25c0.2 0 0.35 0.03 0.45 0.1c0.1 0.07 0.15 0.17 0.15 0.3c0 0.09-0.03 0.17-0.08 0.23c-0.06 0.07-0.13 0.11-0.23 0.14l0.31 0.63h-0.38l-0.27-0.57h-0.17v0.57h-0.34v-1.4h0.55v0zm-0.04 0.62c0.1 0 0.17-0.02 0.22-0.05c0.05-0.03 0.07-0.08 0.07-0.15c0-0.07-0.02-0.12-0.07-0.16c-0.05-0.03-0.13-0.05-0.23-0.05h-0.15v0.41h0.17z" />
</svg>