<svg width="54" height="55" viewBox="0 0 54 55" fill="none" xmlns="http://www.w3.org/2000/svg">
<path fill-rule="evenodd" clip-rule="evenodd" d="M19.7947 0.143555C16.7859 0.143555 14.4106 2.51641 14.4106 5.52204C14.4106 8.52766 16.7859 10.9005 19.7947 10.9005H25.1789V5.52204C25.1789 2.6746 22.8035 0.143555 19.7947 0.143555ZM19.7947 14.5389H5.38418C2.37538 14.5389 0 16.9118 0 19.9174C0 22.923 2.37538 25.2959 5.38418 25.2959H19.7947C22.8035 25.2959 25.1789 22.923 25.1789 19.9174C25.1789 16.9118 22.8035 14.5389 19.7947 14.5389Z" fill="#36C5F0"/>
<path fill-rule="evenodd" clip-rule="evenodd" d="M53.8415 19.9174C53.8415 16.9118 51.4662 14.5389 48.4574 14.5389C45.4486 14.5389 43.0732 16.9118 43.0732 19.9174V25.2959H48.4574C51.4662 25.2959 53.8415 22.923 53.8415 19.9174ZM39.5893 19.9174V5.52204C39.5893 2.51641 37.214 0.143555 34.2052 0.143555C31.1964 0.143555 28.821 2.51641 28.821 5.52204V19.9174C28.821 22.923 31.1964 25.2959 34.2052 25.2959C37.0556 25.2959 39.5893 22.923 39.5893 19.9174Z" fill="#2EB67D"/>
<path fill-rule="evenodd" clip-rule="evenodd" d="M34.2051 54.0867C37.2139 54.0867 39.5893 51.7139 39.5893 48.7082C39.5893 45.7026 37.2139 43.3298 34.2051 43.3298H28.6626V48.7082C28.6626 51.7139 31.1963 54.0867 34.2051 54.0867ZM34.2051 39.6913H48.6157C51.6245 39.6913 53.9998 37.3185 53.9998 34.3128C53.9998 31.3072 51.6245 28.9343 48.6157 28.9343H34.2051C31.1963 28.9343 28.821 31.3072 28.821 34.3128C28.6626 37.3185 31.1963 39.6913 34.2051 39.6913Z" fill="#ECB22E"/>
<path fill-rule="evenodd" clip-rule="evenodd" d="M0 34.3128C0 37.3185 2.37538 39.6913 5.38418 39.6913C8.39298 39.6913 10.7683 37.3185 10.7683 34.3128V28.9343H5.38418C2.37538 28.9343 0 31.3072 0 34.3128ZM14.4106 34.3128V48.7082C14.4106 51.7139 16.7859 54.0867 19.7947 54.0867C22.8035 54.0867 25.1789 51.7139 25.1789 48.7082V34.3128C25.1789 31.3072 22.8035 28.9343 19.7947 28.9343C16.7859 28.9343 14.4106 31.3072 14.4106 34.3128Z" fill="#E01E5A"/>
</svg>
