<svg width="44" height="44" viewBox="0 0 44 44" fill="none" xmlns="http://www.w3.org/2000/svg">
<g clip-path="url(#clip0_1978_2773)">
<path d="M21.9999 0.461548C10.0819 0.461548 0.461426 10.0821 0.461426 22C0.461426 33.918 10.0819 43.5385 21.9999 43.5385C33.9178 43.5385 43.5383 33.918 43.5383 22C43.5383 10.0821 33.9178 0.461548 21.9999 0.461548ZM21.9999 37.7949C13.2409 37.7949 6.20502 30.759 6.20502 22C6.20502 13.241 13.2409 6.20514 21.9999 6.20514C30.7589 6.20514 37.7948 13.241 37.7948 22C37.7948 30.759 30.7589 37.7949 21.9999 37.7949ZM31.764 16.6872C31.764 19.1282 29.7537 21.1385 27.3127 21.1385C24.8717 21.1385 22.8614 19.1282 22.8614 16.6872C22.8614 14.2462 24.8717 12.2359 27.3127 12.2359C29.7537 12.2359 31.764 14.2462 31.764 16.6872ZM31.764 27.3128C31.764 29.7539 29.7537 31.7641 27.3127 31.7641C24.8717 31.7641 22.8614 29.7539 22.8614 27.3128C22.8614 24.8718 24.8717 22.8615 27.3127 22.8615C29.7537 22.8615 31.764 24.8718 31.764 27.3128ZM21.1383 27.3128C21.1383 29.7539 19.1281 31.7641 16.6871 31.7641C14.246 31.7641 12.2358 29.7539 12.2358 27.3128C12.2358 24.8718 14.246 22.8615 16.6871 22.8615C19.1281 22.8615 21.1383 24.8718 21.1383 27.3128ZM21.1383 16.6872C21.1383 19.1282 19.1281 21.1385 16.6871 21.1385C14.246 21.1385 12.2358 19.1282 12.2358 16.6872C12.2358 14.2462 14.246 12.2359 16.6871 12.2359C19.1281 12.2359 21.1383 14.2462 21.1383 16.6872V16.6872Z" fill="#F22F46"/>
</g>
<defs>
<clipPath id="clip0_1978_2773">
<rect width="43.0769" height="43.0769" fill="white" transform="translate(0.461426 0.461548)"/>
</clipPath>
</defs>
</svg>
