<svg version="1.2" baseProfile="tiny-ps" xmlns="http://www.w3.org/2000/svg" viewBox="0 0 80 33" width="80" height="33">
	<title>logo_stripe_01-svg</title>
	<style>
		tspan { white-space:pre }
		.s0 { fill: #635bff } 
	</style>
	<path id="Layer" fill-rule="evenodd" class="s0" d="m79.92 19.02h-10.84c0.24 2.58 2.15 3.32 4.3 3.32c2.19 0 3.92-0.46 5.43-1.2v4.37c-1.51 0.83-3.5 1.42-6.14 1.42c-5.41 0-9.17-3.32-9.17-9.9c0-5.55 3.19-9.97 8.47-9.97c5.25 0 8 4.41 8 10.01c0 0.52-0.04 1.66-0.04 1.95zm-5.19-4.02c0-2.47-1.44-3.5-2.79-3.5c-1.4 0-2.93 1.03-2.93 3.5h5.72z" />
	<path id="Layer" fill-rule="evenodd" class="s0" d="m62.5 16.86c0 6.93-3.61 10.07-7.58 10.07c-1.95 0-3.12-0.81-3.92-1.38l-0.02 6.18l-5.54 1.16v-25.48h4.88l0.29 1.35c0.78-0.7 2.17-1.7 4.34-1.7c3.88 0 7.53 3.45 7.56 9.79zm-5.47 0.15c0-2.86-1.4-5.09-3.41-5.09c-1.26 0-2.06 0.44-2.64 1.07l0.02 8.11c0.53 0.57 1.31 1.03 2.61 1.03c2.04 0 3.41-2.19 3.41-5.11z" />
	<path id="Layer" fill-rule="evenodd" class="s0" d="m37.82 1.32l5.56-1.16v4.44l-5.56 1.18v-4.46z" />
	<path id="Layer" class="s0" d="m43.38 26.56h-5.56v-19.12h5.56v19.12z" />
	<path id="Layer" fill-rule="evenodd" class="s0" d="m36.46 7.44v5.03c-0.69-0.24-2.9-0.55-4.21 1.14v12.96h-5.54v-19.12h4.79l0.35 1.62c1.31-2.36 3.9-1.88 4.61-1.62z" />
	<path id="Layer" fill-rule="evenodd" class="s0" d="m20.75 7.44h4.21v4.65h-4.21v7.76c0 3.23 3.5 2.23 4.21 1.95v4.44c-0.73 0.39-2.06 0.72-3.88 0.72c-3.28 0-5.74-2.38-5.74-5.62l0.02-17.51l5.41-1.14l-0.02 4.74z" />
	<path id="Layer" fill-rule="evenodd" class="s0" d="m14.26 20.79c0 3.91-3.17 6.16-7.78 6.16c-1.91 0-3.99-0.37-6.05-1.25v-5.2c1.86 1.01 4.21 1.75 6.05 1.75c1.24 0 2.13-0.33 2.13-1.33c0-2.6-8.42-1.64-8.42-7.67c0-3.87 2.99-6.18 7.49-6.18c1.84 0 3.66 0.28 5.5 1.01v5.14c-1.68-0.9-3.81-1.4-5.5-1.4c-1.17 0-1.88 0.33-1.88 1.18c0 2.45 8.44 1.29 8.47 7.8z" />
</svg>