<svg width="78" height="54" viewBox="0 0 78 54" fill="none" xmlns="http://www.w3.org/2000/svg">
<path d="M0 33.5319V31.2986C0.111667 31.2986 0.111667 31.1869 0.111667 31.0752C0.223334 30.4052 0.335 29.8469 0.446666 29.1769C1.22833 25.9386 3.35 23.1469 6.14167 21.3602C6.365 21.2486 6.365 21.1369 6.365 20.9136V20.8019C3.23833 13.2086 6.81167 4.49855 14.405 1.26022C15.5217 0.813555 16.6383 0.478556 17.755 0.366889C18.09 0.366889 18.5367 0.255221 18.8717 0.143555H21.3283C21.5517 0.255221 21.775 0.25522 21.9983 0.25522C25.795 0.701886 29.2567 2.60022 31.7133 5.61522C31.9367 5.83856 32.0483 5.95022 32.2717 5.61522C37.52 0.36689 46.0067 0.478555 51.255 5.72689L51.3667 5.83855C52.1483 6.62022 52.8183 7.51356 53.3767 8.40689C53.4883 8.63022 53.6 8.74189 53.8233 8.63022L53.935 8.51855C57.285 7.06689 60.97 6.84356 64.4317 7.84856C73.365 10.0819 78.9483 19.1269 76.715 28.0602C74.5933 36.7702 65.995 42.2419 57.285 40.5669C57.0617 40.4552 56.8383 40.5669 56.7267 40.7902C53.6 46.0386 47.0117 48.1602 41.4283 45.5919C41.0933 45.4802 40.9817 45.4802 40.87 45.8152C39.0833 49.7236 35.51 52.6269 31.2667 53.6319C30.7083 53.7436 30.2617 53.8552 29.815 53.9669H26.9117C26.465 53.8552 26.0183 53.7435 25.5717 53.7435C20.9933 52.8502 17.1967 49.6119 15.6333 45.2569C15.6333 45.0336 15.41 44.9219 15.2983 45.0335H15.1867C13.5117 45.3685 11.9483 45.3685 10.2733 45.0335C5.13667 43.9169 1.11667 39.7852 0.223334 34.5369C0.335001 34.2019 0.335 33.8669 0 33.5319ZM43.9967 23.3702H44.4433C44.6667 23.3702 44.7783 23.2586 44.89 23.1469V23.0352C45.1133 22.1419 45.1133 22.1419 44.22 22.1419H44.1083C43.4383 22.1419 43.4383 22.1419 43.6617 21.4719C43.7733 20.8019 44.3317 20.3552 45.0017 20.3552C45.225 20.4669 45.4483 20.4669 45.6717 20.3552C45.7833 20.1319 45.895 19.9086 45.895 19.6852V19.5736C46.0067 19.3502 45.895 19.2386 45.6717 19.1269C45.1133 19.0152 44.555 19.0152 43.9967 19.1269C42.9917 19.4619 42.21 20.3552 42.0983 21.3602C41.875 22.0302 41.875 22.1419 41.205 22.0302C40.9817 22.0302 40.7583 22.1419 40.7583 22.3652V22.4769C40.6467 23.2586 40.6467 23.2586 41.4283 23.2586C41.54 23.2586 41.7633 23.3702 41.7633 23.4819C41.7633 23.4819 41.7633 23.4819 41.7633 23.5936C41.54 24.9336 41.3167 26.1619 41.0933 27.5019C40.9817 28.3952 40.7583 29.2886 40.535 30.1819C40.4233 30.7402 39.7533 31.0752 39.195 30.9635C38.525 30.9635 38.525 30.9635 38.4133 31.5219L38.3017 31.7452C38.19 31.8569 38.3017 31.9685 38.4133 32.0802H38.525C39.7533 32.6385 41.205 32.0802 41.7633 30.8519C41.9867 30.4052 42.0983 29.9586 42.21 29.5119C42.545 27.7252 42.88 25.9386 43.215 24.0402C43.215 23.3702 43.215 23.3702 43.9967 23.3702ZM23.0033 26.2736V23.9286C23.0033 23.0352 22.3333 22.2536 21.44 22.1419C20.435 21.9186 19.43 21.9186 18.5367 22.2536C17.6433 22.4769 17.6433 22.5886 17.9783 23.3702C18.09 23.5936 18.2017 23.7052 18.425 23.5936C19.095 23.2586 19.8767 23.1469 20.6583 23.2586C21.2167 23.3702 21.6633 23.8169 21.6633 24.3752V24.4869C21.6633 24.7102 21.5517 24.8219 21.3283 24.7102C20.6583 24.5986 19.9883 24.5986 19.3183 24.7102C18.09 24.8219 17.1967 25.9386 17.3083 27.1669C17.3083 28.2836 18.3133 29.1769 19.43 29.1769C20.5467 29.2886 21.6633 29.1769 22.78 28.8419C22.8917 28.8419 23.0033 28.6186 23.0033 28.5069V26.2736ZM31.0433 25.9386H33.0533C33.165 25.9386 33.2767 25.9386 33.3883 25.7152V25.6036C33.5 24.8219 33.3883 24.0402 33.0533 23.2586C32.495 22.3652 31.49 21.8069 30.485 21.9186C29.2567 21.9186 28.14 22.5886 27.6933 23.7052C27.2467 24.7102 27.135 25.8269 27.47 26.8319C27.6933 27.9486 28.6983 28.8419 29.815 29.0652C30.7083 29.2886 31.49 29.2886 32.3833 29.0652C33.2767 28.8419 33.2767 28.8419 33.0533 27.9486C32.9417 27.7252 32.83 27.7252 32.6067 27.7252C31.9367 27.9486 31.2667 28.0602 30.5967 27.9486C29.7033 27.8369 29.0333 27.1669 29.0333 26.2736C29.0333 26.0502 29.0333 25.9386 29.2567 25.9386C29.9267 26.0502 30.485 26.0502 31.0433 25.9386ZM66.665 25.9386H68.675C68.7867 25.9386 69.01 25.9386 69.01 25.7152C69.2333 24.5986 68.8983 23.4819 68.1167 22.7002C66.7767 21.5836 64.7667 21.6952 63.65 23.0352C63.4267 23.3702 63.2033 23.7052 63.0917 24.0402C62.8683 24.8219 62.7567 25.7152 62.8683 26.4969C62.98 27.8369 64.0967 28.9536 65.4367 29.0652C66.2183 29.1769 67.1117 29.1769 67.8933 28.9536C68.7867 28.7302 68.7867 28.7302 68.4517 27.8369C68.34 27.6136 68.2283 27.5019 68.005 27.6136C67.335 27.8369 66.665 27.9486 65.995 27.8369C65.1017 27.7252 64.4317 27.0552 64.4317 26.1619C64.4317 25.9386 64.4317 25.8269 64.655 25.8269L66.665 25.9386ZM48.24 29.1769C49.8033 29.2886 51.1433 28.1719 51.3667 26.7202C51.4783 26.0502 51.4783 25.3802 51.3667 24.7102C51.255 23.0352 49.6917 21.8069 48.1283 22.0302C48.0167 22.0302 47.905 22.0302 47.7933 22.0302C46.565 22.2536 45.4483 23.1469 45.1133 24.3752C44.89 25.1569 44.89 25.9386 45.1133 26.7202C45.4483 28.1719 46.7883 29.2886 48.24 29.1769ZM36.9617 22.0302C36.4033 22.0302 35.845 22.1419 35.3983 22.3652C34.7283 22.8119 34.3933 23.4819 34.3933 24.2636C34.3933 24.9336 34.84 25.6036 35.51 25.8269C35.845 25.9386 36.0683 26.0502 36.4033 26.1619C36.7383 26.2736 37.185 26.3852 37.52 26.4969C37.855 26.6086 38.19 26.9436 38.0783 27.2786C37.9667 27.6136 37.6317 27.9486 37.2967 27.9486C36.6267 28.0602 35.9567 27.9486 35.2867 27.6136C34.3933 27.1669 34.3933 27.1669 34.17 28.0602C34.0583 28.1719 34.17 28.2836 34.17 28.3952C34.17 28.3952 34.17 28.3952 34.2817 28.3952C34.6167 28.6186 34.9517 28.7302 35.2867 28.8419C36.18 29.1769 37.2967 29.1769 38.19 28.8419C38.9717 28.5069 39.4183 27.8369 39.53 27.0552C39.6417 26.2736 39.195 25.4919 38.4133 25.1569C38.0783 24.9336 37.6317 24.8219 37.2967 24.7102C36.85 24.5986 36.4033 24.4869 36.0683 24.2636C35.7333 24.1519 35.6217 23.7052 35.845 23.4819V23.3702C35.9567 23.2586 35.9567 23.1469 36.0683 23.1469C36.2917 23.0352 36.6267 22.9236 36.85 23.0352C37.2967 23.0352 37.7433 23.1469 38.19 23.2586C38.9717 23.4819 38.86 23.4819 39.195 22.8119C39.3067 22.7002 39.195 22.4769 39.0833 22.3652H38.9717C38.4133 22.2536 37.7433 22.1419 36.9617 22.0302ZM13.8467 22.0302C13.2883 22.0302 12.8417 22.1419 12.395 22.3652C11.725 22.7002 11.2783 23.4819 11.39 24.2636C11.39 24.9336 11.8367 25.6036 12.5067 25.8269C12.8417 25.9386 13.065 26.0502 13.4 26.1619C13.735 26.2736 14.1817 26.3852 14.5167 26.4969C14.8517 26.6086 15.1867 26.9436 15.075 27.2786C14.9633 27.6136 14.74 27.9486 14.2933 28.0602C13.6233 28.1719 12.9533 28.0602 12.2833 27.7252C11.39 27.2786 11.39 27.2786 11.1667 28.1719C11.055 28.2836 11.1667 28.3952 11.2783 28.5069C12.5067 29.2886 13.9583 29.5119 15.2983 28.9536C16.08 28.7302 16.6383 27.9486 16.6383 27.1669C16.6383 26.3852 16.1917 25.7152 15.5217 25.3802C15.1867 25.1569 14.74 25.0452 14.405 24.9336C14.07 24.8219 13.6233 24.7102 13.2883 24.4869C13.065 24.3752 12.8417 24.1519 12.8417 23.8169C12.8417 23.4819 13.065 23.2586 13.4 23.1469C13.6233 23.0352 13.8467 23.0352 14.07 23.0352C14.5167 23.0352 14.9633 23.1469 15.41 23.2586C16.1917 23.4819 16.1917 23.4819 16.415 22.8119C16.5267 22.7002 16.415 22.4769 16.3033 22.3652H16.1917C15.5217 22.1419 14.74 22.0302 13.8467 22.0302ZM56.95 25.7152V26.2736C57.0617 27.8369 58.29 29.0652 59.8533 29.1769C60.4117 29.2886 60.8583 29.1769 61.4167 29.0652C62.645 28.8419 62.31 28.8419 62.0867 27.9486C62.0867 27.8369 61.975 27.7252 61.8633 27.7252H61.7517C61.305 27.9486 60.7467 27.9486 60.1883 27.8369C59.4067 27.8369 58.7367 27.2786 58.625 26.4969C58.4017 25.8269 58.4017 25.0452 58.625 24.3752C58.8483 23.5936 59.63 23.0352 60.4117 23.0352H61.1933C61.975 23.1469 61.975 23.1469 62.31 22.3652C62.4217 22.2536 62.4217 22.1419 62.31 22.0302H62.1983C61.4167 21.8069 60.5233 21.6952 59.7417 21.9186C58.7367 22.1419 57.955 22.8119 57.5083 23.7052C57.285 24.3752 57.285 24.9336 57.285 25.6036L56.95 25.7152ZM24.455 24.1519V28.0602C24.455 29.0652 24.455 29.0652 25.46 29.0652C25.795 29.0652 25.9067 28.9536 25.9067 28.6186V20.3552C25.9067 19.3502 25.9067 19.3502 24.9017 19.3502C24.6783 19.2386 24.5667 19.3502 24.455 19.5736V24.1519ZM54.1583 22.7002C54.0467 22.1419 54.0467 22.1419 53.4883 22.1419H53.1533C52.8183 22.1419 52.7067 22.2536 52.7067 22.5886V28.0602C52.7067 29.0652 52.7067 29.0652 53.8233 29.0652C53.935 29.0652 54.1583 28.9535 54.1583 28.8419V25.8269C54.1583 25.3802 54.1583 24.9336 54.27 24.4869C54.3817 23.8169 55.0517 23.2586 55.7217 23.3702C56.3917 23.3702 56.3917 23.3702 56.7267 22.7002V22.5886C56.8383 22.3652 56.7267 22.2536 56.5033 22.1419C55.7217 21.9186 54.8283 22.1419 54.1583 22.7002Z" fill="#00A1E0"/>
<path d="M43.9966 23.3702C43.2149 23.3702 43.2149 23.3702 43.1033 24.1519C42.7683 25.9385 42.4333 27.7252 42.0983 29.6235C41.9866 30.0702 41.8749 30.5169 41.6516 30.9635C41.0933 32.1919 39.6416 32.6385 38.4133 32.1919C38.3016 32.1919 38.1899 32.0802 38.1899 31.9685V31.8569L38.3016 31.6335C38.5249 31.0752 38.5249 31.0752 39.0833 31.0752C39.6416 31.1869 40.1999 30.8519 40.4233 30.2935C40.6466 29.4002 40.8699 28.5069 40.9816 27.6135C41.2049 26.2735 41.4283 25.0452 41.6516 23.7052C41.6516 23.4819 41.6516 23.3702 41.3166 23.3702C40.5349 23.3702 40.5349 23.3702 40.6466 22.5885C40.6466 22.3652 40.7583 22.1419 40.9816 22.1419H41.0933C41.7633 22.1419 41.7633 22.1419 41.9866 21.4719C42.0983 20.4669 42.8799 19.5735 43.8849 19.2385C44.4433 19.1269 45.0016 19.1269 45.5599 19.2385C45.7833 19.2385 45.8949 19.4619 45.7833 19.6852V19.7969C45.7833 20.0202 45.6716 20.2435 45.5599 20.4669C45.3366 20.5785 45.1133 20.5785 44.8899 20.4669C44.2199 20.4669 43.6616 20.9135 43.5499 21.5835C43.3266 22.2535 43.3266 22.2535 43.9966 22.2535H44.1083C45.0016 22.2535 45.0016 22.2535 44.7783 23.1469C44.7783 23.2585 44.6666 23.4819 44.5549 23.4819C44.5549 23.4819 44.5549 23.4819 44.4433 23.4819H44.3316L43.9966 23.3702Z" fill="#FAFCFD"/>
<path d="M23.1151 26.2735V28.5069C23.1151 28.6185 23.0034 28.8419 22.8917 28.8419C21.7751 29.1769 20.6584 29.2885 19.5417 29.1769C18.4251 29.1769 17.4201 28.2835 17.4201 27.1669C17.3084 25.9385 18.2017 24.8219 19.4301 24.7102C20.1001 24.5985 20.7701 24.5985 21.4401 24.7102C21.6634 24.7102 21.7751 24.7102 21.7751 24.4869C21.7751 23.9285 21.4401 23.4819 20.8817 23.3702H20.7701C19.9884 23.2585 19.2067 23.3702 18.5367 23.7052C18.3134 23.8169 18.2017 23.7052 18.0901 23.4819C17.7551 22.5886 17.7551 22.5886 18.6484 22.3652C19.5417 22.0302 20.5467 22.0302 21.5517 22.2535C22.4451 22.3652 23.1151 23.1469 23.1151 24.0402V26.2735ZM21.6634 26.9435V26.1619C21.6634 25.9385 21.6634 25.9385 21.4401 25.9385C20.7701 25.8269 19.9884 25.8269 19.3184 26.0502C18.8717 26.2735 18.6484 26.7202 18.6484 27.1669C18.6484 27.6135 18.9834 27.9485 19.4301 28.0602C19.8767 28.1719 20.3234 28.1719 20.7701 28.0602C21.5517 27.9485 21.5517 27.9485 21.5517 27.1669C21.6634 27.1669 21.6634 27.0552 21.6634 26.9435Z" fill="#FAFCFD"/>
<path d="M31.0435 25.9386H29.0335C28.8101 25.9386 28.6985 26.0503 28.8101 26.2736C28.8101 27.1669 29.4801 27.8369 30.3735 27.9486C31.0435 28.0603 31.7135 27.9486 32.3835 27.7253C32.6068 27.6136 32.7185 27.6136 32.8301 27.9486C33.1651 28.8419 33.1651 28.8419 32.1601 29.0653C31.2668 29.2886 30.4851 29.2886 29.5918 29.0653C28.4751 28.8419 27.4701 27.9486 27.2468 26.8319C26.9118 25.8269 27.0235 24.7102 27.4701 23.7052C27.9168 22.5886 29.0335 21.9186 30.2618 21.9186C31.2668 21.8069 32.3835 22.3652 32.8301 23.2586C33.1651 24.0402 33.2768 24.8219 33.1651 25.6036C33.1651 25.7152 33.0535 25.8269 32.9418 25.8269L31.0435 25.9386ZM30.3735 24.8219H31.7135C31.8251 24.8219 31.9368 24.8219 31.9368 24.5986C31.9368 23.8169 31.2668 23.1469 30.4851 23.1469H30.3735C29.5918 23.1469 28.9218 23.8169 28.9218 24.5986C28.9218 24.8219 29.0335 24.8219 29.1451 24.8219H30.3735Z" fill="#FAFCFD"/>
<path d="M66.665 25.9386H64.655C64.4316 25.9386 64.32 26.0502 64.4316 26.2736C64.4316 27.1669 65.1016 27.8369 65.995 27.9486C66.665 28.0602 67.335 27.9486 68.005 27.7252C68.2283 27.6136 68.34 27.7252 68.4516 27.9486C68.7866 28.8419 68.7866 28.8419 67.8933 29.0652C67.1116 29.2886 66.2183 29.2886 65.4366 29.1769C64.0966 29.0652 62.98 27.9486 62.8683 26.6086C62.7566 25.8269 62.7566 24.9336 63.0916 24.1519C63.65 22.4769 65.4366 21.6952 67 22.2536C67 22.2536 67 22.2536 67.1116 22.2536C67.4466 22.3652 67.7816 22.5886 68.1166 22.8119C68.8983 23.5936 69.2333 24.7102 69.01 25.8269C69.01 26.0502 68.7866 26.0502 68.675 26.0502L66.665 25.9386ZM66.1066 24.8219H67.4466C67.5583 24.8219 67.67 24.8219 67.67 24.5986C67.67 23.9286 67.1116 23.2586 66.4416 23.1469C65.66 22.9236 64.7666 23.4819 64.5433 24.2636V24.3752C64.5433 24.5986 64.5433 24.7102 64.7666 24.7102C64.99 24.7102 65.66 24.8219 66.1066 24.8219Z" fill="#FAFCFD"/>
<path d="M48.3518 29.1769C46.7885 29.2885 45.4485 28.1719 45.2251 26.6085C45.0018 25.8269 45.0018 25.0452 45.2251 24.2635C45.6718 22.5885 47.4585 21.5835 49.1335 22.0302C50.3618 22.3652 51.3668 23.4819 51.4784 24.7102C51.5901 25.3802 51.5901 26.0502 51.4784 26.7202C51.2551 28.1719 49.9151 29.2885 48.3518 29.1769ZM50.0268 25.6035C50.0268 25.1569 50.0268 24.5985 49.8034 24.1519C49.5801 23.5935 49.0218 23.1469 48.3518 23.2585C47.6818 23.2585 47.1235 23.5935 46.9001 24.1519C46.5651 25.0452 46.5651 26.1619 46.9001 27.0552C47.1235 27.6135 47.6818 27.9485 48.2401 27.9485C48.9101 28.0602 49.4685 27.6135 49.6918 27.0552C49.9151 26.6085 50.1385 26.1619 50.0268 25.6035Z" fill="#FAFCFD"/>
<path d="M36.9616 22.0301C37.7433 22.0301 38.4133 22.1418 39.0833 22.4768C39.3066 22.4768 39.3066 22.7001 39.3066 22.9235V23.0351C39.0833 23.8168 39.0833 23.8168 38.3016 23.4818C37.8549 23.3701 37.4083 23.2585 36.9616 23.2585C36.7383 23.2585 36.4033 23.2585 36.1799 23.3701C35.8449 23.4818 35.7333 23.9285 35.9566 24.1518V24.2635C36.0683 24.3751 36.0683 24.4868 36.1799 24.4868C36.5149 24.7101 36.9616 24.8218 37.4083 24.9335C37.7433 25.0451 38.1899 25.1568 38.5249 25.3801C39.3066 25.7151 39.7533 26.4968 39.6416 27.2785C39.6416 28.0601 39.0833 28.8418 38.3016 29.0652C37.4083 29.4002 36.2916 29.4002 35.3983 29.0652C35.0633 28.9535 34.7283 28.8418 34.3933 28.6185C34.2816 28.6185 34.1699 28.3951 34.1699 28.2835C34.3933 27.3901 34.3933 27.3901 35.2866 27.8368C35.8449 28.1718 36.6266 28.2835 37.2966 28.1718C37.6316 28.0601 37.9666 27.7252 37.9666 27.3902C37.9666 27.0552 37.7433 26.6085 37.4083 26.6085C37.0733 26.6085 36.7383 26.3852 36.2916 26.2735C35.9566 26.1618 35.7333 26.0501 35.3983 25.9385C34.7283 25.7151 34.2816 25.0451 34.2816 24.3751C34.1699 23.5935 34.6166 22.8118 35.2866 22.4768C35.8449 22.1418 36.4033 21.9185 36.9616 22.0301Z" fill="#FAFCFD"/>
<path d="M13.8467 22.0302C14.6284 22.0302 15.41 22.1418 16.08 22.4768C16.3034 22.5885 16.3034 22.7002 16.3034 22.9235V23.0352C16.08 23.8168 16.08 23.8168 15.2984 23.4818C14.8517 23.3702 14.405 23.2585 13.9584 23.2585C13.735 23.2585 13.5117 23.2585 13.2884 23.3702C12.9534 23.4818 12.8417 23.7052 12.73 24.0402C12.73 24.3752 12.8417 24.5985 13.1767 24.7102C13.5117 24.9335 13.9584 25.0452 14.2934 25.1568C14.6284 25.2685 15.075 25.3802 15.41 25.6035C16.08 25.9385 16.5267 26.6085 16.5267 27.3902C16.5267 28.1718 15.9684 28.9535 15.1867 29.1768C13.8467 29.6235 12.395 29.5118 11.1667 28.7302C11.055 28.7302 10.9434 28.6185 11.055 28.5068C11.055 28.5068 11.055 28.5068 11.055 28.3952C11.2784 27.5018 11.2784 27.5018 12.1717 27.9485C12.73 28.2835 13.5117 28.3952 14.1817 28.2835C14.6284 28.2835 14.9634 27.9485 14.9634 27.5018C14.9634 27.1668 14.74 26.8318 14.405 26.7202C14.07 26.6085 13.6234 26.4968 13.2884 26.3852C12.9534 26.2735 12.73 26.1618 12.395 26.0502C11.725 25.8268 11.2784 25.1568 11.2784 24.4868C11.2784 23.7052 11.6134 23.0352 12.2834 22.5885C12.73 22.1418 13.2884 21.9185 13.8467 22.0302Z" fill="#FAFCFD"/>
<path d="M57.0618 25.7151C57.0618 25.0451 57.1734 24.3751 57.3968 23.8168C57.7318 22.8118 58.6251 22.1418 59.6301 22.0301C60.4118 21.9185 61.3051 21.9185 62.0868 22.1418C62.1984 22.1418 62.3101 22.2535 62.3101 22.3651V22.4768C62.0868 23.2585 62.0868 23.2585 61.1934 23.1468H60.4118C59.6301 23.1468 58.8484 23.7051 58.6251 24.4868C58.4018 25.1568 58.4018 25.9385 58.6251 26.6085C58.8484 27.2785 59.4068 27.8368 60.1884 27.9485C60.7468 28.0601 61.1934 27.9485 61.7518 27.8368C61.8634 27.7251 61.9751 27.8368 62.0868 27.9485V28.0601C62.4218 29.0651 62.6451 28.9535 61.4168 29.1768C60.8584 29.2885 60.4118 29.2885 59.8534 29.2885C58.2901 29.1768 57.0618 27.9485 57.0618 26.3851C57.1734 26.1618 57.0618 25.9385 57.0618 25.7151Z" fill="#FAFCFD"/>
<path d="M24.5667 24.1519V19.6853C24.5667 19.4619 24.5667 19.3503 24.79 19.2386H25.0133C26.0183 19.2386 26.0183 19.2386 26.0183 20.2436V28.5069C26.0183 28.8419 25.9067 28.9536 25.5717 28.9536C24.5667 28.9536 24.5667 28.9536 24.5667 27.9486V24.1519Z" fill="#FAFCFD"/>
<path d="M54.1585 22.7002C54.8285 22.1419 55.7218 21.9185 56.5035 22.1419C56.7268 22.1419 56.8385 22.3652 56.7268 22.5885V22.7002C56.5035 23.3702 56.5035 23.3702 55.7218 23.3702C55.0518 23.3702 54.3818 23.8169 54.2701 24.4869C54.2701 24.9335 54.1585 25.3802 54.1585 25.8269V28.7302C54.1585 28.8419 54.0468 29.0652 53.9351 29.0652H53.8235C52.7068 29.0652 52.7068 29.0652 52.7068 28.0602V22.5885C52.7068 22.2535 52.8185 22.1419 53.1535 22.1419H53.4885C54.1585 22.1419 54.1585 22.1419 54.1585 22.7002Z" fill="#FAFCFD"/>
<path d="M21.6633 26.9435V27.1669C21.6633 27.9485 21.6633 27.9485 20.8817 28.0602C20.435 28.1719 19.9883 28.1719 19.5417 28.0602C19.095 27.9485 18.76 27.6135 18.76 27.1669C18.76 26.7202 18.9833 26.2735 19.43 26.0502C20.1 25.8269 20.8817 25.8269 21.5517 25.9385C21.6633 25.9385 21.775 26.0502 21.775 26.1619C21.775 26.3852 21.775 26.7202 21.6633 26.9435Z" fill="#009CDA"/>
<path d="M30.3734 24.8219H29.0334C28.9217 24.8219 28.8101 24.8219 28.8101 24.5985C28.8101 23.8169 29.4801 23.1469 30.2617 23.1469C31.0434 23.0352 31.7134 23.7052 31.8251 24.4869V24.5985C31.8251 24.8219 31.7134 24.8219 31.6017 24.8219H30.3734Z" fill="#009CDA"/>
<path d="M66.1067 24.8218H64.7667C64.32 24.8218 64.5434 24.7102 64.5434 24.4869C64.6551 23.5935 65.4367 23.0352 66.2184 23.1468C66.2184 23.1468 66.2184 23.1468 66.33 23.1468H66.4417C67.1117 23.2585 67.67 23.9285 67.67 24.5985C67.67 24.8219 67.5584 24.8218 67.4467 24.8218H66.1067Z" fill="#009CDA"/>
<path d="M50.0268 25.6036C50.0268 26.0503 49.9151 26.6086 49.8034 27.0553C49.5801 27.6136 49.0218 28.0603 48.3518 27.9486C47.7934 28.0603 47.2351 27.6136 47.0117 27.0553C46.6767 26.162 46.6767 25.0453 47.0117 24.152C47.2351 23.5936 47.7934 23.147 48.4634 23.2586C49.1334 23.2586 49.6917 23.5936 49.9151 24.152C49.9151 24.5986 50.0268 25.157 50.0268 25.6036Z" fill="#009CDA"/>
</svg>
