<svg width="53" height="50" viewBox="0 0 53 50" fill="none" xmlns="http://www.w3.org/2000/svg">
<g clip-path="url(#clip0_913_1308)">
<path d="M36.9682 18.5186H50.6582C51.9515 18.5186 53 19.5606 53 20.846V33.2394C53 37.9637 49.1465 41.7935 44.393 41.7935H44.3524C39.5989 41.7942 35.745 37.9649 35.7443 33.2406C35.7443 33.2401 35.7443 33.2398 35.7443 33.2394V19.735C35.7443 19.0631 36.2921 18.5186 36.9682 18.5186Z" fill="#5059C9"/>
<path d="M46.221 16.0685C49.2842 16.0685 51.7675 13.6004 51.7675 10.556C51.7675 7.51149 49.2842 5.04346 46.221 5.04346C43.1577 5.04346 40.6744 7.51149 40.6744 10.556C40.6744 13.6004 43.1577 16.0685 46.221 16.0685Z" fill="#5059C9"/>
<path d="M28.9651 16.0687C33.3898 16.0687 36.9768 12.5038 36.9768 8.10615C36.9768 3.70853 33.3898 0.143555 28.9651 0.143555C24.5403 0.143555 20.9534 3.70853 20.9534 8.10615C20.9534 12.5038 24.5403 16.0687 28.9651 16.0687Z" fill="#7B83EB"/>
<path d="M39.6477 18.5186H17.05C15.7721 18.55 14.761 19.604 14.7907 20.8743V35.0095C14.6121 42.6318 20.6799 48.9571 28.3489 49.1435C36.018 48.9571 42.0855 42.6318 41.9072 35.0095V20.8743C41.9367 19.604 40.9258 18.55 39.6477 18.5186Z" fill="#7B83EB"/>
<path opacity="0.1" d="M29.5814 18.5186V38.327C29.5752 39.2354 29.0214 40.0513 28.1763 40.3972C27.9071 40.5105 27.6179 40.5686 27.3257 40.5688H15.8753C15.715 40.1647 15.5671 39.7603 15.4439 39.3439C15.0125 37.9382 14.7923 36.4769 14.7907 35.0074V20.8706C14.761 19.6024 15.7704 18.55 17.0461 18.5186H29.5814Z" fill="black"/>
<path opacity="0.2" d="M28.3489 18.5186V39.5519C28.3489 39.8423 28.2902 40.1297 28.1763 40.3972C27.8284 41.2372 27.0073 41.7876 26.0932 41.7937H16.4545C16.245 41.3896 16.0479 40.9852 15.8753 40.5688C15.7026 40.1524 15.5671 39.7603 15.4439 39.3439C15.0125 37.9382 14.7923 36.4769 14.7907 35.0074V20.8706C14.761 19.6024 15.7704 18.55 17.0461 18.5186H28.3489Z" fill="black"/>
<path opacity="0.2" d="M28.3489 18.5186V37.1018C28.3394 38.3359 27.3352 39.3342 26.0934 39.3434H15.4439C15.0125 37.9377 14.7923 36.4765 14.7907 35.0069V20.8706C14.761 19.6024 15.7704 18.55 17.0461 18.5186H28.3489Z" fill="black"/>
<path opacity="0.2" d="M27.1162 18.5186V37.1018C27.1067 38.3359 26.1025 39.3342 24.8607 39.3434H15.4439C15.0125 37.9377 14.7923 36.4765 14.7907 35.0069V20.8706C14.761 19.6024 15.7704 18.55 17.0461 18.5186H27.1162Z" fill="black"/>
<path opacity="0.1" d="M29.5814 12.1853V16.0442C29.3719 16.0565 29.1748 16.0688 28.965 16.0688C28.7553 16.0688 28.5584 16.0565 28.3487 16.0442C27.9325 16.0168 27.52 15.9511 27.1162 15.8483C24.6203 15.2607 22.5582 13.5211 21.5697 11.1688C21.3996 10.7739 21.2674 10.3636 21.1752 9.94391H27.3257C28.5696 9.9484 29.5766 10.9493 29.5814 12.1853Z" fill="black"/>
<path opacity="0.2" d="M28.3489 13.4102V16.0442C27.9328 16.0168 27.5202 15.9511 27.1165 15.8483C24.6206 15.2607 22.5585 13.5211 21.5699 11.1688H26.0935C27.3371 11.1733 28.3442 12.1742 28.3489 13.4102Z" fill="black"/>
<path opacity="0.2" d="M28.3489 13.4102V16.0442C27.9328 16.0168 27.5202 15.9511 27.1165 15.8483C24.6206 15.2607 22.5585 13.5211 21.5699 11.1688H26.0935C27.3371 11.1733 28.3442 12.1742 28.3489 13.4102Z" fill="black"/>
<path opacity="0.2" d="M27.1162 13.4102V15.848C24.6204 15.2605 22.5582 13.5208 21.5697 11.1686H24.8608C26.1044 11.1733 27.1115 12.1742 27.1162 13.4102Z" fill="black"/>
<path d="M2.25927 11.1686H24.857C26.1047 11.1686 27.1162 12.1739 27.1162 13.414V35.8731C27.1162 37.1132 26.1047 38.1185 24.857 38.1185H2.25927C1.01157 38.1185 0 37.1132 0 35.8731V13.414C0 12.1739 1.01157 11.1686 2.25927 11.1686Z" fill="url(#paint0_linear_913_1308)"/>
<path d="M19.504 19.7166H14.9866V31.9422H12.1086V19.7166H7.61218V17.345H19.504V19.7166Z" fill="white"/>
</g>
<defs>
<linearGradient id="paint0_linear_913_1308" x1="4.71065" y1="9.41405" x2="22.2429" y2="39.9665" gradientUnits="userSpaceOnUse">
<stop stop-color="#5A62C3"/>
<stop offset="0.5" stop-color="#4D55BD"/>
<stop offset="1" stop-color="#3940AB"/>
</linearGradient>
<clipPath id="clip0_913_1308">
<rect width="53" height="49" fill="white" transform="translate(0 0.143555)"/>
</clipPath>
</defs>
</svg>
