<svg width="54" height="54" viewBox="0 0 54 54" fill="none" xmlns="http://www.w3.org/2000/svg">
<path d="M28.125 46.125V41.625H25.875V46.125H21.375V48.375H25.875V52.875H28.125V48.375H32.625V46.125H28.125Z" fill="#5B6591"/>
<path d="M42.1875 32.625H38.8125V39.375H32.0625V42.75H38.8125V49.5H42.1875V42.75H48.9375V39.375H42.1875V32.625Z" fill="#1F447D"/>
<path d="M14.625 32.625H11.25V39.375H4.5V42.75H11.25V49.5H14.625V42.75H21.375V39.375H14.625V32.625Z" fill="#C72035"/>
<path d="M48.375 25.875V21.375H46.125V25.875H41.625V28.125H46.125V32.625H48.375V28.125H52.875V25.875H48.375Z" fill="#5B6591"/>
<path fill-rule="evenodd" clip-rule="evenodd" d="M7.875 21.375V25.875H12.375V28.125H7.875V32.625H5.625V28.125H1.125V25.875H5.625V21.375H7.875Z" fill="#59879B"/>
<path d="M28.6875 16.3125H25.3125V25.3125L16.3125 25.3125V28.6875H25.3125V37.6875H28.6875V28.6875H37.6875V25.3125H28.6875V16.3125Z" fill="#E8762C"/>
<path d="M42.1875 4.5H38.8125V11.25H32.0625V14.625H38.8125V21.375H42.1875V14.625H48.9375V11.25H42.1875V4.5Z" fill="#59879B"/>
<path d="M14.625 4.5H11.25V11.25H4.5V14.625H11.25V21.375H14.625V14.625H21.375V11.25H14.625V4.5Z" fill="#EB912C"/>
<path d="M28.125 5.625V1.125H25.875V5.625H21.375V7.875H25.875V12.375H28.125V7.875H32.625V5.625H28.125Z" fill="#59879B"/>
</svg>
