<svg width="24" height="24" viewBox="0 0 24 24" fill="none" xmlns="http://www.w3.org/2000/svg">
<path d="M23.0777 19.8459V20.8613C23.0777 22.0613 22.0623 23.0767 20.8623 23.0767H3.13921C1.93921 23.0767 0.923828 22.0613 0.923828 20.8613V19.8459C0.923828 17.169 4.06229 15.5075 7.01614 14.2152L7.29306 14.0767C7.52383 13.9844 7.7546 13.9844 7.98537 14.1229C9.18537 14.9075 10.5238 15.3229 11.9546 15.3229C13.3854 15.3229 14.77 14.8613 15.9238 14.1229C16.1546 13.9844 16.3854 13.9844 16.6161 14.0767L16.8931 14.2152C19.9392 15.5075 23.0777 17.1229 23.0777 19.8459ZM12.0008 0.922852C15.0469 0.922852 17.4931 3.64593 17.4931 7.01516C17.4931 10.3844 15.0469 13.1075 12.0008 13.1075C8.9546 13.1075 6.50844 10.3844 6.50844 7.01516C6.50844 3.64593 8.9546 0.922852 12.0008 0.922852Z" fill="white"/>
</svg>
