<svg width="114" height="82" viewBox="0 0 114 82" fill="none" xmlns="http://www.w3.org/2000/svg">
<path d="M47.5735 55.8985C47.1524 55.8967 46.7382 55.791 46.3677 55.5909C45.968 55.3758 45.6343 55.0561 45.4024 54.666C45.1704 54.2758 45.049 53.83 45.0511 53.3761V29.6862C45.0511 29.233 45.1732 28.7883 45.4046 28.3986C45.6359 28.009 45.968 27.6889 46.3658 27.4719C46.7636 27.2549 47.2126 27.1492 47.6654 27.1657C48.1182 27.1822 48.5583 27.3204 48.9393 27.5658L67.3219 39.4025C67.6784 39.6299 67.9711 39.9442 68.1728 40.3158C68.3744 40.6874 68.4782 41.1043 68.4744 41.527C68.4741 41.9485 68.3685 42.3632 68.1672 42.7335C67.9659 43.1038 67.6754 43.418 67.3219 43.6475L48.9393 55.4883C48.5345 55.7568 48.0592 55.8996 47.5735 55.8985V55.8985ZM47.7047 29.9118V53.1382L65.7264 41.527L47.7047 29.9118Z" fill="#E97000"/>
<path d="M98.9727 71.5291H14.5692C14.2301 71.5102 13.911 71.3622 13.6776 71.1155C13.4442 70.8687 13.3141 70.5419 13.3141 70.2023C13.3141 69.8626 13.4442 69.5358 13.6776 69.2891C13.911 69.0423 14.2301 68.8943 14.5692 68.8755H98.9727C99.1531 68.8654 99.3337 68.8923 99.5034 68.9544C99.6731 69.0166 99.8284 69.1127 99.9597 69.2369C100.091 69.3611 100.196 69.5108 100.267 69.6767C100.338 69.8427 100.375 70.0216 100.375 70.2023C100.375 70.383 100.338 70.5618 100.267 70.7278C100.196 70.8938 100.091 71.0435 99.9597 71.1677C99.8284 71.2919 99.6731 71.388 99.5034 71.4501C99.3337 71.5123 99.1531 71.5391 98.9727 71.5291V71.5291Z" fill="#E97000"/>
<path d="M31.9141 75.1784C31.5624 75.1784 31.225 75.039 30.976 74.7907C30.7269 74.5424 30.5864 74.2054 30.5853 73.8537V66.5539C30.5853 66.2015 30.7253 65.8635 30.9745 65.6143C31.2237 65.3651 31.5617 65.2251 31.9141 65.2251C32.2665 65.2251 32.6044 65.3651 32.8536 65.6143C33.1028 65.8635 33.2428 66.2015 33.2428 66.5539V73.8537C33.2417 74.2054 33.1012 74.5424 32.8522 74.7907C32.6031 75.039 32.2658 75.1784 31.9141 75.1784V75.1784Z" fill="#E97000"/>
<path d="M110.572 82H2.97037C2.21654 82 1.49359 81.7005 0.960553 81.1675C0.427519 80.6345 0.128075 79.9115 0.128075 79.1577V2.871C0.12428 2.49534 0.194987 2.12265 0.336125 1.77449C0.477264 1.42632 0.686029 1.10959 0.950339 0.842614C1.21465 0.575634 1.52926 0.363701 1.87599 0.21907C2.22272 0.0744394 2.59468 -1.91624e-05 2.97037 3.69915e-09H110.572C110.947 0.000522466 111.318 0.0753806 111.665 0.220253C112.011 0.365126 112.325 0.577144 112.589 0.84407C112.853 1.111 113.061 1.42754 113.202 1.77544C113.343 2.12333 113.414 2.49569 113.41 2.871V24.4979C113.42 24.6783 113.393 24.8589 113.331 25.0286C113.269 25.1983 113.173 25.3536 113.048 25.4849C112.924 25.6162 112.774 25.7207 112.608 25.7922C112.442 25.8637 112.264 25.9005 112.083 25.9005C111.902 25.9005 111.723 25.8637 111.557 25.7922C111.391 25.7207 111.242 25.6162 111.118 25.4849C110.993 25.3536 110.897 25.1983 110.835 25.0286C110.773 24.8589 110.746 24.6783 110.756 24.4979V2.871C110.757 2.84661 110.752 2.82236 110.743 2.79972C110.734 2.77707 110.721 2.7565 110.703 2.73925C110.686 2.722 110.665 2.70842 110.643 2.69935C110.62 2.69027 110.596 2.68588 110.572 2.68644H2.97037C2.94667 2.68697 2.92332 2.69217 2.90163 2.70173C2.87993 2.7113 2.86033 2.72504 2.84395 2.74218C2.82757 2.75932 2.81474 2.77952 2.80617 2.80163C2.7976 2.82373 2.79346 2.8473 2.79401 2.871V79.1577C2.79342 79.1825 2.79792 79.2071 2.80725 79.23C2.81658 79.2529 2.83053 79.2737 2.84823 79.291C2.86593 79.3083 2.88698 79.3218 2.91011 79.3306C2.93324 79.3394 2.95795 79.3434 2.98268 79.3423H110.572C110.596 79.3428 110.62 79.3384 110.643 79.3294C110.665 79.3203 110.686 79.3067 110.703 79.2895C110.721 79.2722 110.734 79.2516 110.743 79.229C110.752 79.2063 110.757 79.1821 110.756 79.1577V37.3231C110.746 37.1426 110.773 36.962 110.835 36.7923C110.897 36.6226 110.993 36.4674 111.118 36.3361C111.242 36.2048 111.391 36.1002 111.557 36.0287C111.723 35.9573 111.902 35.9204 112.083 35.9204C112.264 35.9204 112.442 35.9573 112.608 36.0287C112.774 36.1002 112.924 36.2048 113.048 36.3361C113.173 36.4674 113.269 36.6226 113.331 36.7923C113.393 36.962 113.42 37.1426 113.41 37.3231V79.1577C113.41 79.9108 113.111 80.6331 112.579 81.1661C112.047 81.699 111.325 81.9989 110.572 82Z" fill="#E97000"/>
<path d="M112.085 13.0057H1.45694C1.1178 12.9868 0.798768 12.8388 0.565356 12.592C0.331943 12.3453 0.201874 12.0185 0.201874 11.6789C0.201874 11.3392 0.331943 11.0124 0.565356 10.7657C0.798768 10.5189 1.1178 10.3709 1.45694 10.352H112.097C112.278 10.342 112.458 10.3689 112.628 10.431C112.798 10.4932 112.953 10.5893 113.084 10.7135C113.216 10.8377 113.32 10.9873 113.392 11.1533C113.463 11.3193 113.5 11.4981 113.5 11.6789C113.5 11.8596 113.463 12.0384 113.392 12.2044C113.32 12.3704 113.216 12.5201 113.084 12.6442C112.953 12.7684 112.798 12.8645 112.628 12.9267C112.458 12.9888 112.278 13.0157 112.097 13.0057H112.085Z" fill="#E97000"/>
<path d="M8.31845 7.97704H7.84274C7.66231 7.98707 7.48173 7.9602 7.31204 7.89806C7.14235 7.83592 6.98713 7.73983 6.85585 7.61565C6.72457 7.49147 6.62002 7.34181 6.54855 7.17584C6.47708 7.00986 6.44022 6.83106 6.44022 6.65035C6.44022 6.46964 6.47708 6.29084 6.54855 6.12486C6.62002 5.95889 6.72457 5.80923 6.85585 5.68505C6.98713 5.56087 7.14235 5.46477 7.31204 5.40264C7.48173 5.3405 7.66231 5.31362 7.84274 5.32366H8.31845C8.49888 5.31362 8.67947 5.3405 8.84916 5.40264C9.01884 5.46477 9.17406 5.56087 9.30534 5.68505C9.43662 5.80923 9.54121 5.95889 9.61267 6.12486C9.68414 6.29084 9.721 6.46964 9.721 6.65035C9.721 6.83106 9.68414 7.00986 9.61267 7.17584C9.54121 7.34181 9.43662 7.49147 9.30534 7.61565C9.17406 7.73983 9.01884 7.83592 8.84916 7.89806C8.67947 7.9602 8.49888 7.98707 8.31845 7.97704V7.97704Z" fill="#E97000"/>
<path d="M14.2779 7.97702H13.798C13.4589 7.95816 13.1399 7.81016 12.9065 7.56343C12.6731 7.31669 12.5431 6.98996 12.5431 6.65033C12.5431 6.3107 12.6731 5.98396 12.9065 5.73723C13.1399 5.4905 13.4589 5.3425 13.798 5.32364H14.2779C14.617 5.3425 14.936 5.4905 15.1693 5.73723C15.4027 5.98396 15.5328 6.3107 15.5328 6.65033C15.5328 6.98996 15.4027 7.31669 15.1693 7.56343C14.936 7.81016 14.617 7.95816 14.2779 7.97702V7.97702Z" fill="#E97000"/>
<path d="M20.2495 7.97704H19.7697C19.4306 7.95818 19.1116 7.81018 18.8782 7.56345C18.6448 7.31672 18.5148 6.98998 18.5148 6.65035C18.5148 6.31072 18.6448 5.98398 18.8782 5.73725C19.1116 5.49052 19.4306 5.34252 19.7697 5.32366H20.2495C20.43 5.31362 20.6105 5.3405 20.7802 5.40264C20.9499 5.46477 21.1051 5.56087 21.2364 5.68505C21.3677 5.80923 21.4723 5.95889 21.5437 6.12486C21.6152 6.29084 21.6521 6.46964 21.6521 6.65035C21.6521 6.83106 21.6152 7.00986 21.5437 7.17584C21.4723 7.34181 21.3677 7.49147 21.2364 7.61565C21.1051 7.73983 20.9499 7.83592 20.7802 7.89806C20.6105 7.9602 20.43 7.98707 20.2495 7.97704V7.97704Z" fill="#E97000"/>
</svg>
