<svg width="16" height="16" viewBox="0 0 16 16" fill="none" xmlns="http://www.w3.org/2000/svg">
<g clip-path="url(#clip0_657_52665)">
<path d="M15.3381 12.5283V13.1629C15.3381 13.9129 14.7035 14.5475 13.9535 14.5475H2.87656C2.12656 14.5475 1.49194 13.9129 1.49194 13.1629V12.5283C1.49194 10.8552 3.45348 9.81674 5.29964 9.00904L5.47271 8.9225C5.61694 8.86481 5.76117 8.86481 5.9054 8.95135C6.6554 9.44174 7.49194 9.70135 8.38617 9.70135C9.2804 9.70135 10.1458 9.41289 10.8669 8.95135C11.0112 8.86481 11.1554 8.86481 11.2996 8.9225L11.4727 9.00904C13.3766 9.81674 15.3381 10.8264 15.3381 12.5283V12.5283ZM8.41502 0.701351C10.3189 0.701351 11.8477 2.40327 11.8477 4.50904C11.8477 6.61481 10.3189 8.31674 8.41502 8.31674C6.51117 8.31674 4.98233 6.61481 4.98233 4.50904C4.98233 2.40327 6.51117 0.701351 8.41502 0.701351Z" fill="#6D7883"/>
</g>
<defs>
<clipPath id="clip0_657_52665">
<rect width="15" height="15" fill="white" transform="translate(0.915039 0.124428)"/>
</clipPath>
</defs>
</svg>
