<svg width="218" height="69" viewBox="0 0 218 69"  fill="#00044C" xmlns="http://www.w3.org/2000/svg">
<path fill-rule="evenodd" clip-rule="evenodd" d="M114.482 17.5886C114.482 19.3023 113.411 21.016 111.697 21.6586C109.983 22.3012 108.055 21.8728 106.769 20.8018C105.484 19.5165 105.056 17.5886 105.912 15.8749C106.555 14.1612 108.269 13.0901 109.983 13.0901C111.054 13.0901 112.34 13.5186 113.197 14.3754C114.054 15.2323 114.482 16.3033 114.482 17.5886ZM96.2716 26.3713V27.4423C94.5577 25.5144 92.201 24.6576 89.6302 24.6576C85.9881 24.6576 82.5602 25.9428 80.2035 28.5134C77.6326 31.0839 76.3472 34.5113 76.5614 37.9387C76.3472 41.5803 77.8469 45.0077 80.2035 47.364C82.7744 49.9345 86.2023 51.2198 89.6302 51.2198C92.2011 51.434 94.5577 50.363 96.2716 48.4351V49.5061C96.2716 49.7203 96.2716 49.9345 96.4859 50.1487C96.7001 50.363 96.9144 50.363 97.1286 50.363H102.699V25.5144H97.1286C96.7001 25.5144 96.2716 25.9428 96.2716 26.3713ZM96.2716 42.8656C94.9862 44.5792 92.8438 45.6503 90.7014 45.6503C88.7732 45.8645 86.6308 45.0077 85.1311 43.7224C83.6314 42.2229 82.7744 40.295 82.9887 38.3671C82.9887 36.4392 83.6314 34.2971 85.1311 33.0118C86.6308 31.5123 88.559 30.8697 90.7014 31.0839C92.8438 31.0839 94.9862 32.155 96.2716 33.8687V42.8656ZM106.769 25.5144H113.197V51.0056H106.769V25.5144ZM204.249 24.8718C201.678 24.8718 199.322 25.7286 197.608 27.6565V13.3044H191.181V51.2198H196.751C197.179 51.2198 197.608 50.7914 197.608 50.363V49.2919C199.322 51.2198 201.678 52.0767 204.249 52.0767C207.891 52.0767 211.105 50.7914 213.676 48.2208C216.247 45.6503 217.532 42.2229 217.318 38.7955C217.318 35.1539 216.033 31.9408 213.676 29.3702C211.105 26.3713 207.677 24.8718 204.249 24.8718ZM203.178 45.4361C201.036 45.4361 198.893 44.365 197.608 42.6513V33.6545C198.893 31.9408 201.036 30.8697 203.178 30.8697C205.106 30.6555 207.249 31.5123 208.748 32.7976C210.248 34.2971 211.105 36.225 210.891 38.1529C210.891 40.0808 210.248 42.2229 208.748 43.5082C207.249 45.0077 205.106 45.6503 203.178 45.4361ZM187.753 36.0108V51.2198H181.325V36.6534C181.325 32.3692 180.04 30.6555 176.398 30.6555C174.256 30.6555 172.542 31.7266 171.042 33.226V51.0056H164.615V25.5144H169.756C170.185 25.5144 170.613 25.9428 170.613 26.3713V27.4423C172.542 25.5144 174.898 24.6576 177.469 24.6576C180.04 24.6576 182.611 25.5144 184.539 27.2281C186.896 29.3702 187.753 31.7266 187.753 36.0108ZM148.547 24.8718C145.976 24.8718 143.619 25.7286 141.905 27.6565V13.3044H135.478V51.2198H141.048C141.477 51.2198 141.905 50.7914 141.905 50.363V49.2919C143.619 51.2198 145.976 52.0767 148.547 52.0767C152.189 52.0767 155.402 50.7914 157.973 48.2208C160.544 45.6503 161.83 42.2229 161.615 38.7955C161.829 35.1539 160.33 31.7266 157.973 29.3702C155.402 26.1571 151.974 24.8718 148.547 24.8718ZM147.475 45.4361C145.333 45.4361 143.191 44.365 141.905 42.6513V33.6545C143.191 31.9408 145.333 30.8697 147.475 30.8697C149.404 30.6555 151.546 31.5123 153.046 32.7976C154.545 34.2971 155.402 36.225 155.188 38.1529C155.188 40.0808 154.545 42.2229 153.046 43.5082C151.546 45.0077 149.404 45.6503 147.475 45.4361ZM129.908 24.8718C130.979 24.8718 131.836 24.8718 132.907 25.3002V31.2981C132.907 31.2981 127.551 29.3702 124.123 33.226V51.0056H117.696V25.3002H123.266C123.695 25.3002 124.123 25.7286 124.123 26.157V27.2281C125.408 25.9428 127.551 24.8718 129.908 24.8718ZM62.2073 48.6493C61.7788 47.7924 61.5645 46.9356 61.1361 46.2929L59.6364 42.8656C54.9231 32.5834 49.9955 22.3012 44.6395 12.0191L44.4252 11.5907C43.7825 10.5196 43.354 9.44855 42.7113 8.37749C42.0686 7.09222 41.2116 5.80695 40.3546 4.73589C38.2122 2.16535 34.9986 0.45166 31.5708 0.45166C28.1429 0.45166 25.1435 1.95114 22.7869 4.52168C21.9299 5.59274 21.0729 6.87801 20.4302 8.16328C19.7875 9.23434 19.359 10.3054 18.7163 11.3765L18.502 11.8049C13.3602 21.8728 8.21844 32.155 3.50513 42.4371V42.6513C3.07665 43.7224 2.43393 44.7935 2.00544 46.0787C1.57696 46.7214 1.36272 47.5782 0.934238 48.4351C0.0772722 50.7914 -0.136969 53.3619 0.0772726 55.7182C0.719997 60.8593 4.14786 65.1436 8.86117 67.0715C10.5751 67.7141 12.5033 68.1425 14.4314 68.1425C15.0742 68.1425 15.7169 68.1425 16.1454 67.9283C18.502 67.4999 20.8587 66.8572 22.7869 65.572C26.0005 63.6441 28.7856 61.2877 31.1423 58.503C33.4989 61.2877 36.4983 63.6441 39.4977 65.572C41.6401 66.8572 43.7825 67.4999 46.3534 67.9283C46.9961 67.9283 47.4246 68.1425 48.0673 68.1425C49.9955 68.1425 51.9237 67.7141 53.6376 67.0715C58.3509 65.1436 61.7788 60.8593 62.4215 55.7182C63.2785 53.5761 63.0642 51.0056 62.2073 48.6493ZM31.5708 52.2909C28.3571 48.6493 26.0005 44.365 24.715 39.6524C24.2865 38.3671 24.2865 36.8676 24.5008 35.5824C24.715 34.5113 24.9293 33.6545 25.572 32.7976C26.8574 30.8697 29.2141 29.7986 31.5708 29.7986C33.9274 29.7986 36.2841 30.8697 37.5695 32.7976C38.2122 33.6545 38.4265 34.7255 38.6407 35.5824C38.855 36.8676 38.6407 38.3671 38.4265 39.6524C36.9268 44.365 34.5701 48.6493 31.5708 52.2909ZM58.5652 55.504C58.1367 59.1456 55.78 62.1446 52.3522 63.4299C50.6382 64.0725 48.9243 64.2867 47.2104 64.0725C45.2822 63.8583 43.5683 63.2157 42.0686 62.3588C39.2834 60.6451 36.4983 58.2888 34.3559 55.7183C38.2122 51.434 40.9974 46.2929 42.4971 40.7234C42.9255 38.7955 43.1398 36.8676 42.9255 34.9397C42.7113 33.226 42.0686 31.7266 40.9974 30.2271C38.855 27.2281 35.2129 25.3002 31.3565 25.3002C27.5002 25.3002 24.0723 27.0139 21.7157 30.2271C20.8587 31.5123 20.216 33.226 20.0017 34.9397C19.7875 36.8676 19.7875 38.7955 20.4302 40.7234C22.1441 46.2929 24.9293 51.434 28.7856 55.7183C26.6432 58.2888 24.0723 60.6451 21.0729 62.3588C19.5732 63.2157 17.6451 63.8583 15.9311 64.0725C14.2172 64.2867 12.5033 64.0725 10.7893 63.4299C7.36148 62.1446 5.00482 59.1456 4.57634 55.504C4.3621 53.7903 4.57634 51.8624 5.21906 50.1488C5.43331 49.5061 5.86179 48.8635 6.07603 48.0066C6.50451 47.1498 7.14724 45.8645 7.57572 44.5792V44.365C12.0748 34.2971 17.2166 24.0149 22.3584 13.947L22.5726 13.5186C23.2153 12.4475 23.6438 11.3765 24.2865 10.3054C24.715 9.23434 25.3578 8.16328 26.2147 7.30643C27.5002 5.80695 29.6426 4.73589 31.5708 4.73589C33.7132 4.73589 35.6413 5.59274 36.9268 7.30643C37.7838 8.16328 38.4265 9.23434 38.855 10.3054C39.4977 11.3765 39.9262 12.4475 40.5689 13.5186L40.7831 13.947C45.9249 24.0149 50.8525 34.2971 55.5658 44.5792C56.2085 45.6503 56.637 46.9356 57.0655 48.0066C57.494 48.6493 57.7082 49.5061 57.9224 50.1488C58.7794 51.8624 58.7794 53.5761 58.5652 55.504Z" fill="#00044C"/>
</svg>
