<svg width="114" height="82" viewBox="0 0 114 82" fill="none" xmlns="http://www.w3.org/2000/svg">
<path d="M111.057 82H3.41312C2.66003 81.9978 1.93848 81.6974 1.40635 81.1645C0.874228 80.6316 0.574862 79.9097 0.57378 79.1566V2.83933C0.575945 2.08696 0.875785 1.36602 1.40779 0.834012C1.9398 0.302003 2.66074 0.00216511 3.41312 0H111.057C111.81 0.00108201 112.532 0.300442 113.065 0.832568C113.598 1.36469 113.899 2.08625 113.901 2.83933V24.4749C113.882 24.8141 113.734 25.1333 113.487 25.3668C113.24 25.6003 112.913 25.7304 112.573 25.7304C112.234 25.7304 111.907 25.6003 111.66 25.3668C111.413 25.1333 111.265 24.8141 111.246 24.4749V2.81881C111.247 2.79406 111.242 2.76944 111.233 2.7465C111.224 2.72356 111.21 2.70279 111.192 2.68547C111.174 2.66815 111.153 2.65466 111.13 2.64584C111.107 2.63701 111.082 2.63304 111.057 2.63418H3.41312C3.38871 2.63361 3.36445 2.63801 3.34179 2.64709C3.31914 2.65617 3.29856 2.66975 3.2813 2.68701C3.26404 2.70426 3.25046 2.72484 3.24138 2.7475C3.2323 2.77015 3.22791 2.79441 3.22847 2.81881V79.1566C3.22791 79.181 3.2323 79.2052 3.24138 79.2279C3.25046 79.2505 3.26404 79.2711 3.2813 79.2884C3.29856 79.3056 3.31914 79.3192 3.34179 79.3283C3.36445 79.3374 3.38871 79.3418 3.41312 79.3412H111.057C111.082 79.3423 111.107 79.3384 111.13 79.3295C111.153 79.3207 111.174 79.3072 111.192 79.2899C111.21 79.2726 111.224 79.2518 111.233 79.2289C111.242 79.2059 111.247 79.1813 111.246 79.1566V37.3052C111.265 36.9659 111.413 36.6467 111.66 36.4132C111.907 36.1797 112.234 36.0496 112.573 36.0496C112.913 36.0496 113.24 36.1797 113.487 36.4132C113.734 36.6467 113.882 36.9659 113.901 37.3052V79.1566C113.9 79.9104 113.6 80.633 113.067 81.166C112.534 81.699 111.811 81.9989 111.057 82Z" fill="#5E66F9"/>
<path d="M112.571 12.9739H1.90322C1.7227 12.9839 1.54202 12.9571 1.37225 12.8949C1.20248 12.8327 1.04718 12.7366 0.91584 12.6123C0.784495 12.4881 0.679873 12.3384 0.608372 12.1723C0.536871 12.0062 0.499985 11.8273 0.499985 11.6466C0.499985 11.4658 0.536871 11.2869 0.608372 11.1208C0.679873 10.9547 0.784495 10.805 0.91584 10.6808C1.04718 10.5565 1.20248 10.4604 1.37225 10.3982C1.54202 10.3361 1.7227 10.3092 1.90322 10.3192H112.584C112.764 10.3092 112.945 10.3361 113.115 10.3982C113.284 10.4604 113.44 10.5565 113.571 10.6808C113.702 10.805 113.807 10.9547 113.879 11.1208C113.95 11.2869 113.987 11.4658 113.987 11.6466C113.987 11.8273 113.95 12.0062 113.879 12.1723C113.807 12.3384 113.702 12.4881 113.571 12.6123C113.44 12.7366 113.284 12.8327 113.115 12.8949C112.945 12.9571 112.764 12.9839 112.584 12.9739H112.571Z" fill="#5E66F9"/>
<path d="M8.76765 7.94352H8.29169C8.11118 7.95356 7.93051 7.92667 7.76074 7.8645C7.59097 7.80233 7.43566 7.70619 7.30432 7.58195C7.17297 7.4577 7.06836 7.30798 6.99686 7.14192C6.92536 6.97586 6.88847 6.79697 6.88847 6.61617C6.88847 6.43537 6.92536 6.25648 6.99686 6.09042C7.06836 5.92436 7.17297 5.77464 7.30432 5.6504C7.43566 5.52615 7.59097 5.43001 7.76074 5.36784C7.93051 5.30567 8.11118 5.27878 8.29169 5.28883H8.76765C8.94817 5.27878 9.12885 5.30567 9.29862 5.36784C9.46839 5.43001 9.62369 5.52615 9.75503 5.6504C9.88637 5.77464 9.991 5.92436 10.0625 6.09042C10.134 6.25648 10.1709 6.43537 10.1709 6.61617C10.1709 6.79697 10.134 6.97586 10.0625 7.14192C9.991 7.30798 9.88637 7.4577 9.75503 7.58195C9.62369 7.70619 9.46839 7.80233 9.29862 7.8645C9.12885 7.92667 8.94817 7.95356 8.76765 7.94352V7.94352Z" fill="#5E66F9"/>
<path d="M14.7212 7.94352H14.2411C14.0606 7.95356 13.88 7.92667 13.7102 7.8645C13.5404 7.80233 13.3851 7.70619 13.2538 7.58195C13.1224 7.4577 13.0178 7.30798 12.9463 7.14192C12.8748 6.97586 12.8379 6.79697 12.8379 6.61617C12.8379 6.43537 12.8748 6.25648 12.9463 6.09042C13.0178 5.92436 13.1224 5.77464 13.2538 5.6504C13.3851 5.52615 13.5404 5.43001 13.7102 5.36784C13.88 5.30567 14.0606 5.27878 14.2411 5.28883H14.7212C15.0727 5.29099 15.4092 5.43187 15.6574 5.68083C15.9056 5.92979 16.0454 6.26668 16.0465 6.61822C16.047 6.79241 16.0131 6.96499 15.9467 7.12603C15.8803 7.28707 15.7827 7.43338 15.6595 7.55655C15.5364 7.67973 15.3901 7.77733 15.229 7.84374C15.068 7.91015 14.8954 7.94406 14.7212 7.94352V7.94352Z" fill="#5E66F9"/>
<path d="M20.7035 7.94354H20.2235C19.8842 7.92467 19.565 7.7766 19.3315 7.52975C19.098 7.28289 18.9679 6.95599 18.9679 6.61619C18.9679 6.2764 19.098 5.9495 19.3315 5.70264C19.565 5.45579 19.8842 5.30772 20.2235 5.28885H20.7035C21.0428 5.30772 21.362 5.45579 21.5955 5.70264C21.829 5.9495 21.9591 6.2764 21.9591 6.61619C21.9591 6.95599 21.829 7.28289 21.5955 7.52975C21.362 7.7766 21.0428 7.92467 20.7035 7.94354V7.94354Z" fill="#5E66F9"/>
<path d="M57.184 32.7015V66.8843C57.184 66.8843 52.3178 61.2918 46.2001 58.0832C40.0824 54.8746 31.9542 54.4396 31.9542 54.4396V21.0488C31.9542 21.0488 37.4072 21.2047 44.5137 23.9209C49.5974 25.8945 53.9138 29.5586 55.9449 31.4665C56.7409 32.2215 57.184 32.7015 57.184 32.7015Z" stroke="#5E66F9" stroke-width="2" stroke-linecap="round" stroke-linejoin="round"/>
<path d="M57.184 66.8843H26.5668C26.187 66.8843 25.8228 66.7334 25.5543 66.4648C25.2857 66.1963 25.1348 65.8321 25.1348 65.4523V32.9026C25.1348 32.5224 25.2856 32.1578 25.554 31.8886C25.8224 31.6194 26.1867 31.4676 26.5668 31.4665H31.9542V54.4437C31.9542 54.4437 40.1029 54.8787 46.2123 58.0873C52.3218 61.2959 57.184 66.8843 57.184 66.8843Z" stroke="#5E66F9" stroke-width="2" stroke-linecap="round" stroke-linejoin="round"/>
<path d="M82.422 21.0488V54.4396C82.422 54.4396 76.013 54.7802 70.2933 57.0984L66.0713 55.8675L66.9985 58.7397C61.443 61.9975 57.1799 66.8925 57.1799 66.8925V32.7015C57.1799 32.7015 57.623 32.2215 58.4108 31.4706C60.4623 29.5627 64.7583 25.8986 69.8584 23.9374C76.9731 21.2047 82.422 21.0488 82.422 21.0488Z" stroke="#5E66F9" stroke-width="2" stroke-linecap="round" stroke-linejoin="round"/>
<path d="M85.3229 69.9287L80.272 74.5816L75.1185 69.2805L71.516 72.7311L69.6327 66.8843L67.0026 58.7314L66.0753 55.8675L70.3015 57.0984L83.9237 61.0743L79.9684 65.1528L81.9091 66.8843L85.3229 69.9287Z" stroke="#5E66F9" stroke-width="2" stroke-linecap="round" stroke-linejoin="round"/>
<path d="M67.0026 58.7314L69.6327 66.8842H57.184C57.184 66.8842 61.4471 61.9893 67.0026 58.7314Z" stroke="#5E66F9" stroke-width="2" stroke-linecap="round" stroke-linejoin="round"/>
<path d="M89.2331 32.9026V65.4523C89.232 65.8325 89.0802 66.1967 88.811 66.4651C88.5419 66.7335 88.1772 66.8843 87.797 66.8843H81.9091L79.9602 65.1528L83.9155 61.0743L70.2892 57.0984C76.0089 54.7802 82.4179 54.4396 82.4179 54.4396V31.4624H87.797C87.986 31.4624 88.173 31.4997 88.3475 31.5721C88.5221 31.6445 88.6805 31.7507 88.814 31.8845C88.9474 32.0183 89.053 32.1771 89.125 32.3518C89.1969 32.5265 89.2336 32.7137 89.2331 32.9026V32.9026Z" stroke="#5E66F9" stroke-width="2" stroke-linecap="round" stroke-linejoin="round"/>
</svg>
