<svg width="148" height="104" viewBox="0 0 148 104" fill="none" xmlns="http://www.w3.org/2000/svg">
<path d="M146.814 1.0025C146.533 1.0025 146.306 0.778085 146.306 0.501251C146.306 0.224416 146.533 -6.89383e-08 146.814 -4.44108e-08C147.094 -1.98833e-08 147.322 0.224416 147.322 0.501251C147.322 0.778085 147.094 1.0025 146.814 1.0025Z" fill="#00A0DF"/>
<path d="M138.138 1.0025C137.857 1.0025 137.63 0.778085 137.63 0.501251C137.63 0.224416 137.857 -6.89447e-08 138.138 -4.44149e-08C138.419 -1.98851e-08 138.646 0.224416 138.646 0.501251C138.646 0.778085 138.419 1.0025 138.138 1.0025Z" fill="#00A0DF"/>
<path d="M129.464 1.0025C129.184 1.0025 128.956 0.778085 128.956 0.501251C128.956 0.224416 129.184 -6.89441e-08 129.464 -4.44145e-08C129.745 -1.98849e-08 129.973 0.224416 129.973 0.501251C129.973 0.778085 129.745 1.0025 129.464 1.0025Z" fill="#00A0DF"/>
<path d="M120.792 1.0025C120.512 1.0025 120.284 0.778085 120.284 0.501251C120.284 0.224416 120.512 -6.89449e-08 120.792 -4.44153e-08C121.073 -1.98858e-08 121.3 0.224416 121.3 0.501251C121.3 0.778085 121.073 1.0025 120.792 1.0025Z" fill="#00A0DF"/>
<path d="M112.116 1.0025C111.836 1.0025 111.608 0.778085 111.608 0.501251C111.608 0.224416 111.836 -6.89449e-08 112.116 -4.44153e-08C112.397 -1.98858e-08 112.624 0.224416 112.624 0.501251C112.624 0.778085 112.397 1.0025 112.116 1.0025Z" fill="#00A0DF"/>
<path d="M103.444 1.0025C103.163 1.0025 102.936 0.778085 102.936 0.501251C102.936 0.224416 103.163 -6.89447e-08 103.444 -4.44149e-08C103.724 -1.98851e-08 103.952 0.224416 103.952 0.501251C103.952 0.778085 103.724 1.0025 103.444 1.0025Z" fill="#00A0DF"/>
<path d="M146.814 9.56213C146.533 9.56213 146.306 9.33773 146.306 9.06091C146.306 8.78409 146.533 8.55969 146.814 8.55969C147.094 8.55969 147.322 8.78409 147.322 9.06091C147.322 9.33773 147.094 9.56213 146.814 9.56213Z" fill="#00A0DF"/>
<path d="M138.138 9.56213C137.857 9.56213 137.63 9.33773 137.63 9.06091C137.63 8.78409 137.857 8.55969 138.138 8.55969C138.419 8.55969 138.646 8.78409 138.646 9.06091C138.646 9.33773 138.419 9.56213 138.138 9.56213Z" fill="#00A0DF"/>
<path d="M129.464 9.56213C129.184 9.56213 128.956 9.33773 128.956 9.06091C128.956 8.78409 129.184 8.55969 129.464 8.55969C129.745 8.55969 129.973 8.78409 129.973 9.06091C129.973 9.33773 129.745 9.56213 129.464 9.56213Z" fill="#00A0DF"/>
<path d="M120.792 9.56213C120.512 9.56213 120.284 9.33773 120.284 9.06091C120.284 8.78409 120.512 8.55969 120.792 8.55969C121.073 8.55969 121.3 8.78409 121.3 9.06091C121.3 9.33773 121.073 9.56213 120.792 9.56213Z" fill="#00A0DF"/>
<path d="M112.116 9.56213C111.836 9.56213 111.608 9.33773 111.608 9.06091C111.608 8.78409 111.836 8.55969 112.116 8.55969C112.397 8.55969 112.624 8.78409 112.624 9.06091C112.624 9.33773 112.397 9.56213 112.116 9.56213Z" fill="#00A0DF"/>
<path d="M103.444 9.56213C103.163 9.56213 102.936 9.33773 102.936 9.06091C102.936 8.78409 103.163 8.55969 103.444 8.55969C103.724 8.55969 103.952 8.78409 103.952 9.06091C103.952 9.33773 103.724 9.56213 103.444 9.56213Z" fill="#00A0DF"/>
<path d="M146.814 18.1191C146.533 18.1191 146.306 17.8947 146.306 17.6178C146.306 17.341 146.533 17.1166 146.814 17.1166C147.094 17.1166 147.322 17.341 147.322 17.6178C147.322 17.8947 147.094 18.1191 146.814 18.1191Z" fill="#00A0DF"/>
<path d="M138.138 18.119C137.857 18.119 137.63 17.8946 137.63 17.6178C137.63 17.341 137.857 17.1166 138.138 17.1166C138.419 17.1166 138.646 17.341 138.646 17.6178C138.646 17.8946 138.419 18.119 138.138 18.119Z" fill="#00A0DF"/>
<path d="M129.464 18.1191C129.184 18.1191 128.956 17.8947 128.956 17.6178C128.956 17.341 129.184 17.1166 129.464 17.1166C129.745 17.1166 129.973 17.341 129.973 17.6178C129.973 17.8947 129.745 18.1191 129.464 18.1191Z" fill="#00A0DF"/>
<path d="M120.792 18.119C120.512 18.119 120.284 17.8946 120.284 17.6178C120.284 17.341 120.512 17.1166 120.792 17.1166C121.073 17.1166 121.3 17.341 121.3 17.6178C121.3 17.8946 121.073 18.119 120.792 18.119Z" fill="#00A0DF"/>
<path d="M112.116 18.1191C111.836 18.1191 111.608 17.8947 111.608 17.6178C111.608 17.341 111.836 17.1166 112.116 17.1166C112.397 17.1166 112.624 17.341 112.624 17.6178C112.624 17.8947 112.397 18.1191 112.116 18.1191Z" fill="#00A0DF"/>
<path d="M103.396 18.1191C103.115 18.1191 102.888 17.8947 102.888 17.6178C102.888 17.341 103.115 17.1166 103.396 17.1166C103.676 17.1166 103.904 17.341 103.904 17.6178C103.904 17.8947 103.676 18.1191 103.396 18.1191Z" fill="#00A0DF"/>
<path d="M94.7918 1.0025C94.5112 1.0025 94.2838 0.778085 94.2838 0.501251C94.2838 0.224416 94.5112 -6.89356e-08 94.7918 -4.4409e-08C95.0723 -1.98825e-08 95.2997 0.224416 95.2997 0.501251C95.2997 0.778085 95.0723 1.0025 94.7918 1.0025Z" fill="#00A0DF"/>
<path d="M103.468 1.0025C103.187 1.0025 102.959 0.778085 102.959 0.501251C102.959 0.224416 103.187 -6.89441e-08 103.468 -4.44145e-08C103.748 -1.98849e-08 103.976 0.224416 103.976 0.501251C103.976 0.778085 103.748 1.0025 103.468 1.0025Z" fill="#00A0DF"/>
<path d="M86.1183 1.0025C85.8377 1.0025 85.6102 0.778085 85.6102 0.501251C85.6102 0.224416 85.8377 -6.89406e-08 86.1183 -4.44126e-08C86.3988 -1.98845e-08 86.6263 0.224416 86.6263 0.501251C86.6263 0.778085 86.3988 1.0025 86.1183 1.0025Z" fill="#00A0DF"/>
<path d="M77.446 1.0025C77.1654 1.0025 76.9379 0.778085 76.9379 0.501251C76.9379 0.224416 77.1654 -6.89404e-08 77.446 -4.44122e-08C77.7265 -1.98839e-08 77.954 0.224416 77.954 0.501251C77.954 0.778085 77.7265 1.0025 77.446 1.0025Z" fill="#00A0DF"/>
<path d="M68.7706 1.0025C68.49 1.0025 68.2625 0.778085 68.2625 0.501251C68.2625 0.224416 68.49 -6.89447e-08 68.7706 -4.44149e-08C69.0512 -1.98851e-08 69.2786 0.224416 69.2786 0.501251C69.2786 0.778085 69.0512 1.0025 68.7706 1.0025Z" fill="#00A0DF"/>
<path d="M60.0976 1.0025C59.817 1.0025 59.5896 0.778085 59.5896 0.501251C59.5896 0.224416 59.817 -6.89447e-08 60.0976 -4.44149e-08C60.3782 -1.98851e-08 60.6057 0.224416 60.6057 0.501251C60.6057 0.778085 60.3782 1.0025 60.0976 1.0025Z" fill="#00A0DF"/>
<path d="M51.4245 1.0025C51.144 1.0025 50.9165 0.778085 50.9165 0.501251C50.9165 0.224416 51.144 -6.89404e-08 51.4245 -4.44122e-08C51.7051 -1.98839e-08 51.9326 0.224416 51.9326 0.501251C51.9326 0.778085 51.7051 1.0025 51.4245 1.0025Z" fill="#00A0DF"/>
<path d="M42.7489 1.0025C42.4683 1.0025 42.2409 0.778085 42.2409 0.501251C42.2409 0.224416 42.4683 -6.89447e-08 42.7489 -4.44149e-08C43.0295 -1.98851e-08 43.257 0.224416 43.257 0.501251C43.257 0.778085 43.0295 1.0025 42.7489 1.0025Z" fill="#00A0DF"/>
<path d="M94.7918 9.56213C94.5112 9.56213 94.2838 9.33773 94.2838 9.06091C94.2838 8.78409 94.5112 8.55969 94.7918 8.55969C95.0723 8.55969 95.2997 8.78409 95.2997 9.06091C95.2997 9.33773 95.0723 9.56213 94.7918 9.56213Z" fill="#00A0DF"/>
<path d="M103.467 9.56213C103.187 9.56213 102.959 9.33773 102.959 9.06091C102.959 8.78409 103.187 8.55969 103.467 8.55969C103.748 8.55969 103.976 8.78409 103.976 9.06091C103.976 9.33773 103.748 9.56213 103.467 9.56213Z" fill="#00A0DF"/>
<path d="M86.1183 9.56213C85.8377 9.56213 85.6102 9.33773 85.6102 9.06091C85.6102 8.78409 85.8377 8.55969 86.1183 8.55969C86.3988 8.55969 86.6263 8.78409 86.6263 9.06091C86.6263 9.33773 86.3988 9.56213 86.1183 9.56213Z" fill="#00A0DF"/>
<path d="M77.446 9.56213C77.1654 9.56213 76.9379 9.33773 76.9379 9.06091C76.9379 8.78409 77.1654 8.55969 77.446 8.55969C77.7265 8.55969 77.954 8.78409 77.954 9.06091C77.954 9.33773 77.7265 9.56213 77.446 9.56213Z" fill="#00A0DF"/>
<path d="M68.7705 9.56213C68.4899 9.56213 68.2625 9.33773 68.2625 9.06091C68.2625 8.78409 68.4899 8.55969 68.7705 8.55969C69.0511 8.55969 69.2786 8.78409 69.2786 9.06091C69.2786 9.33773 69.0511 9.56213 68.7705 9.56213Z" fill="#00A0DF"/>
<path d="M60.0976 9.56213C59.817 9.56213 59.5896 9.33773 59.5896 9.06091C59.5896 8.78409 59.817 8.55969 60.0976 8.55969C60.3782 8.55969 60.6057 8.78409 60.6057 9.06091C60.6057 9.33773 60.3782 9.56213 60.0976 9.56213Z" fill="#00A0DF"/>
<path d="M51.4245 9.56213C51.144 9.56213 50.9165 9.33773 50.9165 9.06091C50.9165 8.78409 51.144 8.55969 51.4245 8.55969C51.7051 8.55969 51.9326 8.78409 51.9326 9.06091C51.9326 9.33773 51.7051 9.56213 51.4245 9.56213Z" fill="#00A0DF"/>
<path d="M42.749 9.56213C42.4684 9.56213 42.2409 9.33773 42.2409 9.06091C42.2409 8.78409 42.4684 8.55969 42.749 8.55969C43.0296 8.55969 43.257 8.78409 43.257 9.06091C43.257 9.33773 43.0296 9.56213 42.749 9.56213Z" fill="#00A0DF"/>
<path d="M94.7918 18.119C94.5112 18.119 94.2838 17.8946 94.2838 17.6178C94.2838 17.341 94.5112 17.1166 94.7918 17.1166C95.0723 17.1166 95.2997 17.341 95.2997 17.6178C95.2997 17.8946 95.0723 18.119 94.7918 18.119Z" fill="#00A0DF"/>
<path d="M103.467 18.1191C103.187 18.1191 102.959 17.8947 102.959 17.6178C102.959 17.341 103.187 17.1166 103.467 17.1166C103.748 17.1166 103.976 17.341 103.976 17.6178C103.976 17.8947 103.748 18.1191 103.467 18.1191Z" fill="#00A0DF"/>
<path d="M86.1183 18.1191C85.8377 18.1191 85.6102 17.8947 85.6102 17.6178C85.6102 17.341 85.8377 17.1166 86.1183 17.1166C86.3988 17.1166 86.6263 17.341 86.6263 17.6178C86.6263 17.8947 86.3988 18.1191 86.1183 18.1191Z" fill="#00A0DF"/>
<path d="M77.446 18.119C77.1654 18.119 76.9379 17.8946 76.9379 17.6178C76.9379 17.341 77.1654 17.1166 77.446 17.1166C77.7265 17.1166 77.954 17.341 77.954 17.6178C77.954 17.8946 77.7265 18.119 77.446 18.119Z" fill="#00A0DF"/>
<path d="M68.7705 18.1191C68.4899 18.1191 68.2625 17.8947 68.2625 17.6178C68.2625 17.341 68.4899 17.1166 68.7705 17.1166C69.0511 17.1166 69.2786 17.341 69.2786 17.6178C69.2786 17.8947 69.0511 18.1191 68.7705 18.1191Z" fill="#00A0DF"/>
<path d="M60.0976 18.1191C59.817 18.1191 59.5896 17.8947 59.5896 17.6178C59.5896 17.341 59.817 17.1166 60.0976 17.1166C60.3782 17.1166 60.6057 17.341 60.6057 17.6178C60.6057 17.8947 60.3782 18.1191 60.0976 18.1191Z" fill="#00A0DF"/>
<path d="M51.4245 18.119C51.144 18.119 50.9165 17.8946 50.9165 17.6178C50.9165 17.341 51.144 17.1166 51.4245 17.1166C51.7051 17.1166 51.9326 17.341 51.9326 17.6178C51.9326 17.8946 51.7051 18.119 51.4245 18.119Z" fill="#00A0DF"/>
<path d="M42.7032 18.1191C42.4226 18.1191 42.1951 17.8947 42.1951 17.6178C42.1951 17.341 42.4226 17.1166 42.7032 17.1166C42.9838 17.1166 43.2112 17.341 43.2112 17.6178C43.2112 17.8947 42.9838 18.1191 42.7032 18.1191Z" fill="#00A0DF"/>
<path d="M34.1002 1.0025C33.8196 1.0025 33.5922 0.778085 33.5922 0.501251C33.5922 0.224416 33.8196 -6.89392e-08 34.1002 -4.44114e-08C34.3808 -1.98835e-08 34.6082 0.224416 34.6082 0.501251C34.6082 0.778085 34.3808 1.0025 34.1002 1.0025Z" fill="#00A0DF"/>
<path d="M42.7725 1.0025C42.4919 1.0025 42.2645 0.778085 42.2645 0.501251C42.2645 0.224416 42.4919 -6.89404e-08 42.7725 -4.44122e-08C43.0531 -1.98839e-08 43.2805 0.224416 43.2805 0.501251C43.2805 0.778085 43.0531 1.0025 42.7725 1.0025Z" fill="#00A0DF"/>
<path d="M25.4242 1.0025C25.1436 1.0025 24.9162 0.778085 24.9162 0.501251C24.9162 0.224416 25.1436 -6.89477e-08 25.4242 -4.44168e-08C25.7048 -1.9886e-08 25.9323 0.224416 25.9323 0.501251C25.9323 0.778085 25.7048 1.0025 25.4242 1.0025Z" fill="#00A0DF"/>
<path d="M16.7512 1.0025C16.4706 1.0025 16.2431 0.778085 16.2431 0.501251C16.2431 0.224416 16.4706 -6.89451e-08 16.7512 -4.44157e-08C17.0317 -1.98864e-08 17.2592 0.224416 17.2592 0.501251C17.2592 0.778085 17.0317 1.0025 16.7512 1.0025Z" fill="#00A0DF"/>
<path d="M8.07777 1.0025C7.79718 1.0025 7.56972 0.778085 7.56972 0.501251C7.56972 0.224416 7.79718 -6.89447e-08 8.07777 -4.44149e-08C8.35836 -1.98851e-08 8.58582 0.224416 8.58582 0.501251C8.58582 0.778085 8.35836 1.0025 8.07777 1.0025Z" fill="#00A0DF"/>
<path d="M34.1002 9.56213C33.8196 9.56213 33.5922 9.33773 33.5922 9.06091C33.5922 8.78409 33.8196 8.55969 34.1002 8.55969C34.3808 8.55969 34.6082 8.78409 34.6082 9.06091C34.6082 9.33773 34.3808 9.56213 34.1002 9.56213Z" fill="#00A0DF"/>
<path d="M42.7725 9.56213C42.4919 9.56213 42.2645 9.33773 42.2645 9.06091C42.2645 8.78409 42.4919 8.55969 42.7725 8.55969C43.0531 8.55969 43.2805 8.78409 43.2805 9.06091C43.2805 9.33773 43.0531 9.56213 42.7725 9.56213Z" fill="#00A0DF"/>
<path d="M25.4242 9.56213C25.1436 9.56213 24.9162 9.33773 24.9162 9.06091C24.9162 8.78409 25.1436 8.55969 25.4242 8.55969C25.7048 8.55969 25.9323 8.78409 25.9323 9.06091C25.9323 9.33773 25.7048 9.56213 25.4242 9.56213Z" fill="#00A0DF"/>
<path d="M16.7512 9.56213C16.4706 9.56213 16.2432 9.33773 16.2432 9.06091C16.2432 8.78409 16.4706 8.55969 16.7512 8.55969C17.0318 8.55969 17.2593 8.78409 17.2593 9.06091C17.2593 9.33773 17.0318 9.56213 16.7512 9.56213Z" fill="#00A0DF"/>
<path d="M8.07777 9.56213C7.79718 9.56213 7.56972 9.33773 7.56972 9.06091C7.56972 8.78409 7.79718 8.55969 8.07777 8.55969C8.35836 8.55969 8.58582 8.78409 8.58582 9.06091C8.58582 9.33773 8.35836 9.56213 8.07777 9.56213Z" fill="#00A0DF"/>
<path d="M34.1002 18.119C33.8196 18.119 33.5922 17.8946 33.5922 17.6178C33.5922 17.341 33.8196 17.1166 34.1002 17.1166C34.3808 17.1166 34.6082 17.341 34.6082 17.6178C34.6082 17.8946 34.3808 18.119 34.1002 18.119Z" fill="#00A0DF"/>
<path d="M42.7725 18.1191C42.4919 18.1191 42.2645 17.8947 42.2645 17.6178C42.2645 17.341 42.4919 17.1166 42.7725 17.1166C43.0531 17.1166 43.2805 17.341 43.2805 17.6178C43.2805 17.8947 43.0531 18.1191 42.7725 18.1191Z" fill="#00A0DF"/>
<path d="M25.4242 18.1191C25.1436 18.1191 24.9162 17.8947 24.9162 17.6178C24.9162 17.341 25.1436 17.1166 25.4242 17.1166C25.7048 17.1166 25.9323 17.341 25.9323 17.6178C25.9323 17.8947 25.7048 18.1191 25.4242 18.1191Z" fill="#00A0DF"/>
<path d="M16.7512 18.1191C16.4706 18.1191 16.2432 17.8947 16.2432 17.6178C16.2432 17.341 16.4706 17.1166 16.7512 17.1166C17.0318 17.1166 17.2593 17.341 17.2593 17.6178C17.2593 17.8947 17.0318 18.1191 16.7512 18.1191Z" fill="#00A0DF"/>
<path d="M8.07777 18.119C7.79718 18.119 7.56972 17.8946 7.56972 17.6178C7.56972 17.341 7.79718 17.1166 8.07777 17.1166C8.35836 17.1166 8.58582 17.341 8.58582 17.6178C8.58582 17.8946 8.35836 18.119 8.07777 18.119Z" fill="#00A0DF"/>
<path d="M146.814 26.6758C146.533 26.6758 146.306 26.4514 146.306 26.1746C146.306 25.8977 146.533 25.6733 146.814 25.6733C147.094 25.6733 147.322 25.8977 147.322 26.1746C147.322 26.4514 147.094 26.6758 146.814 26.6758Z" fill="#00A0DF"/>
<path d="M146.814 35.2354C146.533 35.2354 146.306 35.011 146.306 34.7342C146.306 34.4574 146.533 34.233 146.814 34.233C147.094 34.233 147.322 34.4574 147.322 34.7342C147.322 35.011 147.094 35.2354 146.814 35.2354Z" fill="#00A0DF"/>
<path d="M138.138 26.6758C137.857 26.6758 137.63 26.4514 137.63 26.1746C137.63 25.8977 137.857 25.6733 138.138 25.6733C138.419 25.6733 138.646 25.8977 138.646 26.1746C138.646 26.4514 138.419 26.6758 138.138 26.6758Z" fill="#00A0DF"/>
<path d="M138.138 35.2354C137.857 35.2354 137.63 35.011 137.63 34.7342C137.63 34.4574 137.857 34.233 138.138 34.233C138.419 34.233 138.646 34.4574 138.646 34.7342C138.646 35.011 138.419 35.2354 138.138 35.2354Z" fill="#00A0DF"/>
<path d="M129.464 26.6758C129.184 26.6758 128.956 26.4514 128.956 26.1746C128.956 25.8977 129.184 25.6733 129.464 25.6733C129.745 25.6733 129.973 25.8977 129.973 26.1746C129.973 26.4514 129.745 26.6758 129.464 26.6758Z" fill="#00A0DF"/>
<path d="M129.464 35.2354C129.184 35.2354 128.956 35.011 128.956 34.7342C128.956 34.4574 129.184 34.233 129.464 34.233C129.745 34.233 129.973 34.4574 129.973 34.7342C129.973 35.011 129.745 35.2354 129.464 35.2354Z" fill="#00A0DF"/>
<path d="M120.792 26.6758C120.512 26.6758 120.284 26.4514 120.284 26.1746C120.284 25.8977 120.512 25.6733 120.792 25.6733C121.073 25.6733 121.3 25.8977 121.3 26.1746C121.3 26.4514 121.073 26.6758 120.792 26.6758Z" fill="#00A0DF"/>
<path d="M120.792 35.2354C120.512 35.2354 120.284 35.011 120.284 34.7342C120.284 34.4574 120.512 34.233 120.792 34.233C121.073 34.233 121.3 34.4574 121.3 34.7342C121.3 35.011 121.073 35.2354 120.792 35.2354Z" fill="#00A0DF"/>
<path d="M112.116 26.6758C111.836 26.6758 111.608 26.4514 111.608 26.1746C111.608 25.8977 111.836 25.6733 112.116 25.6733C112.397 25.6733 112.624 25.8977 112.624 26.1746C112.624 26.4514 112.397 26.6758 112.116 26.6758Z" fill="#00A0DF"/>
<path d="M112.116 35.2354C111.836 35.2354 111.608 35.011 111.608 34.7342C111.608 34.4574 111.836 34.233 112.116 34.233C112.397 34.233 112.624 34.4574 112.624 34.7342C112.624 35.011 112.397 35.2354 112.116 35.2354Z" fill="#00A0DF"/>
<path d="M103.444 26.6758C103.163 26.6758 102.936 26.4514 102.936 26.1746C102.936 25.8977 103.163 25.6733 103.444 25.6733C103.724 25.6733 103.952 25.8977 103.952 26.1746C103.952 26.4514 103.724 26.6758 103.444 26.6758Z" fill="#00A0DF"/>
<path d="M103.444 35.2354C103.163 35.2354 102.936 35.011 102.936 34.7342C102.936 34.4574 103.163 34.233 103.444 34.233C103.724 34.233 103.952 34.4574 103.952 34.7342C103.952 35.011 103.724 35.2354 103.444 35.2354Z" fill="#00A0DF"/>
<path d="M146.814 43.7924C146.533 43.7924 146.306 43.568 146.306 43.2912C146.306 43.0144 146.533 42.79 146.814 42.79C147.094 42.79 147.322 43.0144 147.322 43.2912C147.322 43.568 147.094 43.7924 146.814 43.7924Z" fill="#00A0DF"/>
<path d="M138.138 43.7924C137.857 43.7924 137.63 43.568 137.63 43.2912C137.63 43.0143 137.857 42.7899 138.138 42.7899C138.419 42.7899 138.646 43.0143 138.646 43.2912C138.646 43.568 138.419 43.7924 138.138 43.7924Z" fill="#00A0DF"/>
<path d="M129.464 43.7924C129.184 43.7924 128.956 43.568 128.956 43.2912C128.956 43.0143 129.184 42.7899 129.464 42.7899C129.745 42.7899 129.973 43.0143 129.973 43.2912C129.973 43.568 129.745 43.7924 129.464 43.7924Z" fill="#00A0DF"/>
<path d="M120.792 43.7924C120.512 43.7924 120.284 43.568 120.284 43.2912C120.284 43.0143 120.512 42.7899 120.792 42.7899C121.073 42.7899 121.3 43.0143 121.3 43.2912C121.3 43.568 121.073 43.7924 120.792 43.7924Z" fill="#00A0DF"/>
<path d="M112.116 43.7924C111.836 43.7924 111.608 43.568 111.608 43.2912C111.608 43.0143 111.836 42.7899 112.116 42.7899C112.397 42.7899 112.624 43.0143 112.624 43.2912C112.624 43.568 112.397 43.7924 112.116 43.7924Z" fill="#00A0DF"/>
<path d="M103.444 43.7924C103.163 43.7924 102.936 43.568 102.936 43.2912C102.936 43.0143 103.163 42.7899 103.444 42.7899C103.724 42.7899 103.952 43.0143 103.952 43.2912C103.952 43.568 103.724 43.7924 103.444 43.7924Z" fill="#00A0DF"/>
<path d="M146.814 52.3491C146.533 52.3491 146.306 52.1247 146.306 51.8479C146.306 51.5711 146.533 51.3466 146.814 51.3466C147.094 51.3466 147.322 51.5711 147.322 51.8479C147.322 52.1247 147.094 52.3491 146.814 52.3491Z" fill="#00A0DF"/>
<path d="M138.138 52.3491C137.857 52.3491 137.63 52.1247 137.63 51.8479C137.63 51.5711 137.857 51.3466 138.138 51.3466C138.419 51.3466 138.646 51.5711 138.646 51.8479C138.646 52.1247 138.419 52.3491 138.138 52.3491Z" fill="#00A0DF"/>
<path d="M129.464 52.3491C129.184 52.3491 128.956 52.1247 128.956 51.8479C128.956 51.5711 129.184 51.3466 129.464 51.3466C129.745 51.3466 129.973 51.5711 129.973 51.8479C129.973 52.1247 129.745 52.3491 129.464 52.3491Z" fill="#00A0DF"/>
<path d="M120.792 52.3491C120.512 52.3491 120.284 52.1247 120.284 51.8479C120.284 51.5711 120.512 51.3466 120.792 51.3466C121.073 51.3466 121.3 51.5711 121.3 51.8479C121.3 52.1247 121.073 52.3491 120.792 52.3491Z" fill="#00A0DF"/>
<path d="M112.116 52.3491C111.836 52.3491 111.608 52.1247 111.608 51.8479C111.608 51.5711 111.836 51.3466 112.116 51.3466C112.397 51.3466 112.624 51.5711 112.624 51.8479C112.624 52.1247 112.397 52.3491 112.116 52.3491Z" fill="#00A0DF"/>
<path d="M103.444 52.3491C103.163 52.3491 102.936 52.1247 102.936 51.8479C102.936 51.5711 103.163 51.3466 103.444 51.3466C103.724 51.3466 103.952 51.5711 103.952 51.8479C103.952 52.1247 103.724 52.3491 103.444 52.3491Z" fill="#00A0DF"/>
<path d="M146.814 60.9089C146.533 60.9089 146.306 60.6844 146.306 60.4076C146.306 60.1308 146.533 59.9064 146.814 59.9064C147.094 59.9064 147.322 60.1308 147.322 60.4076C147.322 60.6844 147.094 60.9089 146.814 60.9089Z" fill="#00A0DF"/>
<path d="M138.138 60.9088C137.857 60.9088 137.63 60.6844 137.63 60.4076C137.63 60.1307 137.857 59.9063 138.138 59.9063C138.419 59.9063 138.646 60.1307 138.646 60.4076C138.646 60.6844 138.419 60.9088 138.138 60.9088Z" fill="#00A0DF"/>
<path d="M129.464 60.9088C129.184 60.9088 128.956 60.6844 128.956 60.4076C128.956 60.1307 129.184 59.9063 129.464 59.9063C129.745 59.9063 129.973 60.1307 129.973 60.4076C129.973 60.6844 129.745 60.9088 129.464 60.9088Z" fill="#00A0DF"/>
<path d="M120.792 60.9088C120.512 60.9088 120.284 60.6844 120.284 60.4076C120.284 60.1307 120.512 59.9063 120.792 59.9063C121.073 59.9063 121.3 60.1307 121.3 60.4076C121.3 60.6844 121.073 60.9088 120.792 60.9088Z" fill="#00A0DF"/>
<path d="M112.116 60.9089C111.836 60.9089 111.608 60.6844 111.608 60.4076C111.608 60.1308 111.836 59.9064 112.116 59.9064C112.397 59.9064 112.624 60.1308 112.624 60.4076C112.624 60.6844 112.397 60.9089 112.116 60.9089Z" fill="#00A0DF"/>
<path d="M103.444 60.9089C103.163 60.9089 102.936 60.6844 102.936 60.4076C102.936 60.1308 103.163 59.9064 103.444 59.9064C103.724 59.9064 103.952 60.1308 103.952 60.4076C103.952 60.6844 103.724 60.9089 103.444 60.9089Z" fill="#00A0DF"/>
<path d="M146.814 69.4657C146.533 69.4657 146.306 69.2413 146.306 68.9645C146.306 68.6877 146.533 68.4633 146.814 68.4633C147.094 68.4633 147.322 68.6877 147.322 68.9645C147.322 69.2413 147.094 69.4657 146.814 69.4657Z" fill="#00A0DF"/>
<path d="M138.138 69.4657C137.857 69.4657 137.63 69.2413 137.63 68.9645C137.63 68.6877 137.857 68.4633 138.138 68.4633C138.419 68.4633 138.646 68.6877 138.646 68.9645C138.646 69.2413 138.419 69.4657 138.138 69.4657Z" fill="#00A0DF"/>
<path d="M129.464 69.4657C129.184 69.4657 128.956 69.2413 128.956 68.9645C128.956 68.6877 129.184 68.4633 129.464 68.4633C129.745 68.4633 129.973 68.6877 129.973 68.9645C129.973 69.2413 129.745 69.4657 129.464 69.4657Z" fill="#00A0DF"/>
<path d="M120.792 69.4657C120.512 69.4657 120.284 69.2413 120.284 68.9645C120.284 68.6877 120.512 68.4633 120.792 68.4633C121.073 68.4633 121.3 68.6877 121.3 68.9645C121.3 69.2413 121.073 69.4657 120.792 69.4657Z" fill="#00A0DF"/>
<path d="M112.116 69.4657C111.836 69.4657 111.608 69.2413 111.608 68.9645C111.608 68.6877 111.836 68.4633 112.116 68.4633C112.397 68.4633 112.624 68.6877 112.624 68.9645C112.624 69.2413 112.397 69.4657 112.116 69.4657Z" fill="#00A0DF"/>
<path d="M103.444 69.4657C103.163 69.4657 102.936 69.2413 102.936 68.9645C102.936 68.6877 103.163 68.4633 103.444 68.4633C103.724 68.4633 103.952 68.6877 103.952 68.9645C103.952 69.2413 103.724 69.4657 103.444 69.4657Z" fill="#00A0DF"/>
<path d="M146.814 78.0225C146.533 78.0225 146.306 77.7981 146.306 77.5212C146.306 77.2444 146.533 77.02 146.814 77.02C147.094 77.02 147.322 77.2444 147.322 77.5212C147.322 77.7981 147.094 78.0225 146.814 78.0225Z" fill="#00A0DF"/>
<path d="M138.138 78.0225C137.857 78.0225 137.63 77.7981 137.63 77.5212C137.63 77.2444 137.857 77.02 138.138 77.02C138.419 77.02 138.646 77.2444 138.646 77.5212C138.646 77.7981 138.419 78.0225 138.138 78.0225Z" fill="#00A0DF"/>
<path d="M129.464 78.0225C129.184 78.0225 128.956 77.7981 128.956 77.5212C128.956 77.2444 129.184 77.02 129.464 77.02C129.745 77.02 129.973 77.2444 129.973 77.5212C129.973 77.7981 129.745 78.0225 129.464 78.0225Z" fill="#00A0DF"/>
<path d="M120.792 78.0225C120.512 78.0225 120.284 77.7981 120.284 77.5212C120.284 77.2444 120.512 77.02 120.792 77.02C121.073 77.02 121.3 77.2444 121.3 77.5212C121.3 77.7981 121.073 78.0225 120.792 78.0225Z" fill="#00A0DF"/>
<path d="M112.116 78.0225C111.836 78.0225 111.608 77.7981 111.608 77.5212C111.608 77.2444 111.836 77.02 112.116 77.02C112.397 77.02 112.624 77.2444 112.624 77.5212C112.624 77.7981 112.397 78.0225 112.116 78.0225Z" fill="#00A0DF"/>
<path d="M103.444 78.0225C103.163 78.0225 102.936 77.7981 102.936 77.5212C102.936 77.2444 103.163 77.02 103.444 77.02C103.724 77.02 103.952 77.2444 103.952 77.5212C103.952 77.7981 103.724 78.0225 103.444 78.0225Z" fill="#00A0DF"/>
<path d="M146.814 86.5822C146.533 86.5822 146.306 86.3578 146.306 86.081C146.306 85.8041 146.533 85.5797 146.814 85.5797C147.094 85.5797 147.322 85.8041 147.322 86.081C147.322 86.3578 147.094 86.5822 146.814 86.5822Z" fill="#00A0DF"/>
<path d="M138.138 86.5822C137.857 86.5822 137.63 86.3578 137.63 86.081C137.63 85.8041 137.857 85.5797 138.138 85.5797C138.419 85.5797 138.646 85.8041 138.646 86.081C138.646 86.3578 138.419 86.5822 138.138 86.5822Z" fill="#00A0DF"/>
<path d="M129.464 86.5822C129.184 86.5822 128.956 86.3578 128.956 86.081C128.956 85.8041 129.184 85.5797 129.464 85.5797C129.745 85.5797 129.973 85.8041 129.973 86.081C129.973 86.3578 129.745 86.5822 129.464 86.5822Z" fill="#00A0DF"/>
<path d="M120.792 86.5822C120.512 86.5822 120.284 86.3578 120.284 86.081C120.284 85.8041 120.512 85.5797 120.792 85.5797C121.073 85.5797 121.3 85.8041 121.3 86.081C121.3 86.3578 121.073 86.5822 120.792 86.5822Z" fill="#00A0DF"/>
<path d="M112.116 86.5822C111.836 86.5822 111.608 86.3578 111.608 86.081C111.608 85.8041 111.836 85.5797 112.116 85.5797C112.397 85.5797 112.624 85.8041 112.624 86.081C112.624 86.3578 112.397 86.5822 112.116 86.5822Z" fill="#00A0DF"/>
<path d="M103.395 86.5822C103.115 86.5822 102.887 86.3578 102.887 86.081C102.887 85.8041 103.115 85.5797 103.395 85.5797C103.676 85.5797 103.904 85.8041 103.904 86.081C103.904 86.3578 103.676 86.5822 103.395 86.5822Z" fill="#00A0DF"/>
<path d="M94.7918 26.6758C94.5112 26.6758 94.2838 26.4514 94.2838 26.1746C94.2838 25.8977 94.5112 25.6733 94.7918 25.6733C95.0723 25.6733 95.2997 25.8977 95.2997 26.1746C95.2997 26.4514 95.0723 26.6758 94.7918 26.6758Z" fill="#00A0DF"/>
<path d="M103.467 26.6758C103.187 26.6758 102.959 26.4514 102.959 26.1746C102.959 25.8977 103.187 25.6733 103.467 25.6733C103.748 25.6733 103.976 25.8977 103.976 26.1746C103.976 26.4514 103.748 26.6758 103.467 26.6758Z" fill="#00A0DF"/>
<path d="M94.7918 35.2354C94.5112 35.2354 94.2838 35.011 94.2838 34.7342C94.2838 34.4574 94.5112 34.233 94.7918 34.233C95.0723 34.233 95.2997 34.4574 95.2997 34.7342C95.2997 35.011 95.0723 35.2354 94.7918 35.2354Z" fill="#00A0DF"/>
<path d="M103.468 35.2354C103.187 35.2354 102.959 35.011 102.959 34.7342C102.959 34.4574 103.187 34.233 103.468 34.233C103.748 34.233 103.976 34.4574 103.976 34.7342C103.976 35.011 103.748 35.2354 103.468 35.2354Z" fill="#00A0DF"/>
<path d="M86.1183 26.6758C85.8377 26.6758 85.6102 26.4514 85.6102 26.1746C85.6102 25.8977 85.8377 25.6733 86.1183 25.6733C86.3988 25.6733 86.6263 25.8977 86.6263 26.1746C86.6263 26.4514 86.3988 26.6758 86.1183 26.6758Z" fill="#00A0DF"/>
<path d="M86.1183 35.2354C85.8378 35.2354 85.6103 35.011 85.6103 34.7342C85.6103 34.4574 85.8378 34.233 86.1183 34.233C86.3989 34.233 86.6263 34.4574 86.6263 34.7342C86.6263 35.011 86.3989 35.2354 86.1183 35.2354Z" fill="#00A0DF"/>
<path d="M77.446 26.6758C77.1654 26.6758 76.9379 26.4514 76.9379 26.1746C76.9379 25.8977 77.1654 25.6733 77.446 25.6733C77.7265 25.6733 77.954 25.8977 77.954 26.1746C77.954 26.4514 77.7265 26.6758 77.446 26.6758Z" fill="#00A0DF"/>
<path d="M77.446 35.2354C77.1654 35.2354 76.9379 35.011 76.9379 34.7342C76.9379 34.4574 77.1654 34.233 77.446 34.233C77.7265 34.233 77.954 34.4574 77.954 34.7342C77.954 35.011 77.7265 35.2354 77.446 35.2354Z" fill="#00A0DF"/>
<path d="M68.7705 26.6758C68.4899 26.6758 68.2625 26.4514 68.2625 26.1746C68.2625 25.8977 68.4899 25.6733 68.7705 25.6733C69.0511 25.6733 69.2786 25.8977 69.2786 26.1746C69.2786 26.4514 69.0511 26.6758 68.7705 26.6758Z" fill="#00A0DF"/>
<path d="M68.7705 35.2354C68.4899 35.2354 68.2625 35.011 68.2625 34.7342C68.2625 34.4574 68.4899 34.233 68.7705 34.233C69.0511 34.233 69.2786 34.4574 69.2786 34.7342C69.2786 35.011 69.0511 35.2354 68.7705 35.2354Z" fill="#00A0DF"/>
<path d="M60.0976 26.6758C59.817 26.6758 59.5896 26.4514 59.5896 26.1746C59.5896 25.8977 59.817 25.6733 60.0976 25.6733C60.3782 25.6733 60.6057 25.8977 60.6057 26.1746C60.6057 26.4514 60.3782 26.6758 60.0976 26.6758Z" fill="#00A0DF"/>
<path d="M60.0976 35.2354C59.817 35.2354 59.5896 35.011 59.5896 34.7342C59.5896 34.4574 59.817 34.233 60.0976 34.233C60.3782 34.233 60.6057 34.4574 60.6057 34.7342C60.6057 35.011 60.3782 35.2354 60.0976 35.2354Z" fill="#00A0DF"/>
<path d="M51.4245 26.6758C51.144 26.6758 50.9165 26.4514 50.9165 26.1746C50.9165 25.8977 51.144 25.6733 51.4245 25.6733C51.7051 25.6733 51.9326 25.8977 51.9326 26.1746C51.9326 26.4514 51.7051 26.6758 51.4245 26.6758Z" fill="#00A0DF"/>
<path d="M51.4245 35.2354C51.144 35.2354 50.9165 35.011 50.9165 34.7342C50.9165 34.4574 51.144 34.233 51.4245 34.233C51.7051 34.233 51.9326 34.4574 51.9326 34.7342C51.9326 35.011 51.7051 35.2354 51.4245 35.2354Z" fill="#00A0DF"/>
<path d="M42.749 26.6758C42.4684 26.6758 42.2409 26.4514 42.2409 26.1746C42.2409 25.8977 42.4684 25.6733 42.749 25.6733C43.0296 25.6733 43.257 25.8977 43.257 26.1746C43.257 26.4514 43.0296 26.6758 42.749 26.6758Z" fill="#00A0DF"/>
<path d="M42.749 35.2354C42.4684 35.2354 42.2409 35.011 42.2409 34.7342C42.2409 34.4574 42.4684 34.233 42.749 34.233C43.0296 34.233 43.257 34.4574 43.257 34.7342C43.257 35.011 43.0296 35.2354 42.749 35.2354Z" fill="#00A0DF"/>
<path d="M94.7918 43.7924C94.5112 43.7924 94.2838 43.568 94.2838 43.2912C94.2838 43.0143 94.5112 42.7899 94.7918 42.7899C95.0723 42.7899 95.2997 43.0143 95.2997 43.2912C95.2997 43.568 95.0723 43.7924 94.7918 43.7924Z" fill="#00A0DF"/>
<path d="M103.468 43.7924C103.187 43.7924 102.959 43.568 102.959 43.2912C102.959 43.0143 103.187 42.7899 103.468 42.7899C103.748 42.7899 103.976 43.0143 103.976 43.2912C103.976 43.568 103.748 43.7924 103.468 43.7924Z" fill="#00A0DF"/>
<path d="M86.1183 43.7924C85.8378 43.7924 85.6103 43.568 85.6103 43.2912C85.6103 43.0143 85.8378 42.7899 86.1183 42.7899C86.3989 42.7899 86.6263 43.0143 86.6263 43.2912C86.6263 43.568 86.3989 43.7924 86.1183 43.7924Z" fill="#00A0DF"/>
<path d="M77.446 43.7924C77.1654 43.7924 76.9379 43.568 76.9379 43.2912C76.9379 43.0143 77.1654 42.7899 77.446 42.7899C77.7265 42.7899 77.954 43.0143 77.954 43.2912C77.954 43.568 77.7265 43.7924 77.446 43.7924Z" fill="#00A0DF"/>
<path d="M68.7705 43.7924C68.4899 43.7924 68.2625 43.568 68.2625 43.2912C68.2625 43.0143 68.4899 42.7899 68.7705 42.7899C69.0511 42.7899 69.2786 43.0143 69.2786 43.2912C69.2786 43.568 69.0511 43.7924 68.7705 43.7924Z" fill="#00A0DF"/>
<path d="M60.0976 43.7924C59.817 43.7924 59.5896 43.568 59.5896 43.2912C59.5896 43.0143 59.817 42.7899 60.0976 42.7899C60.3782 42.7899 60.6057 43.0143 60.6057 43.2912C60.6057 43.568 60.3782 43.7924 60.0976 43.7924Z" fill="#00A0DF"/>
<path d="M51.4245 43.7924C51.144 43.7924 50.9165 43.568 50.9165 43.2912C50.9165 43.0143 51.144 42.7899 51.4245 42.7899C51.7051 42.7899 51.9326 43.0143 51.9326 43.2912C51.9326 43.568 51.7051 43.7924 51.4245 43.7924Z" fill="#00A0DF"/>
<path d="M42.749 43.7924C42.4684 43.7924 42.2409 43.568 42.2409 43.2912C42.2409 43.0143 42.4684 42.7899 42.749 42.7899C43.0296 42.7899 43.257 43.0143 43.257 43.2912C43.257 43.568 43.0296 43.7924 42.749 43.7924Z" fill="#00A0DF"/>
<path d="M94.7918 52.3491C94.5112 52.3491 94.2838 52.1247 94.2838 51.8479C94.2838 51.5711 94.5112 51.3466 94.7918 51.3466C95.0723 51.3466 95.2997 51.5711 95.2997 51.8479C95.2997 52.1247 95.0723 52.3491 94.7918 52.3491Z" fill="#00A0DF"/>
<path d="M103.467 52.3491C103.187 52.3491 102.959 52.1247 102.959 51.8479C102.959 51.5711 103.187 51.3466 103.467 51.3466C103.748 51.3466 103.976 51.5711 103.976 51.8479C103.976 52.1247 103.748 52.3491 103.467 52.3491Z" fill="#00A0DF"/>
<path d="M86.1183 52.3491C85.8377 52.3491 85.6102 52.1247 85.6102 51.8479C85.6102 51.5711 85.8377 51.3466 86.1183 51.3466C86.3988 51.3466 86.6263 51.5711 86.6263 51.8479C86.6263 52.1247 86.3988 52.3491 86.1183 52.3491Z" fill="#00A0DF"/>
<path d="M77.446 52.3491C77.1654 52.3491 76.9379 52.1247 76.9379 51.8479C76.9379 51.5711 77.1654 51.3466 77.446 51.3466C77.7265 51.3466 77.954 51.5711 77.954 51.8479C77.954 52.1247 77.7265 52.3491 77.446 52.3491Z" fill="#00A0DF"/>
<path d="M68.7705 52.3491C68.4899 52.3491 68.2625 52.1247 68.2625 51.8479C68.2625 51.5711 68.4899 51.3466 68.7705 51.3466C69.0511 51.3466 69.2786 51.5711 69.2786 51.8479C69.2786 52.1247 69.0511 52.3491 68.7705 52.3491Z" fill="#00A0DF"/>
<path d="M60.0976 52.3491C59.817 52.3491 59.5896 52.1247 59.5896 51.8479C59.5896 51.5711 59.817 51.3466 60.0976 51.3466C60.3782 51.3466 60.6057 51.5711 60.6057 51.8479C60.6057 52.1247 60.3782 52.3491 60.0976 52.3491Z" fill="#00A0DF"/>
<path d="M51.4245 52.3491C51.144 52.3491 50.9165 52.1247 50.9165 51.8479C50.9165 51.5711 51.144 51.3466 51.4245 51.3466C51.7051 51.3466 51.9326 51.5711 51.9326 51.8479C51.9326 52.1247 51.7051 52.3491 51.4245 52.3491Z" fill="#00A0DF"/>
<path d="M42.749 52.3491C42.4684 52.3491 42.2409 52.1247 42.2409 51.8479C42.2409 51.5711 42.4684 51.3466 42.749 51.3466C43.0296 51.3466 43.257 51.5711 43.257 51.8479C43.257 52.1247 43.0296 52.3491 42.749 52.3491Z" fill="#00A0DF"/>
<path d="M94.7918 60.9088C94.5112 60.9088 94.2838 60.6844 94.2838 60.4076C94.2838 60.1307 94.5112 59.9063 94.7918 59.9063C95.0723 59.9063 95.2997 60.1307 95.2997 60.4076C95.2997 60.6844 95.0723 60.9088 94.7918 60.9088Z" fill="#00A0DF"/>
<path d="M103.467 60.9089C103.187 60.9089 102.959 60.6844 102.959 60.4076C102.959 60.1308 103.187 59.9064 103.467 59.9064C103.748 59.9064 103.976 60.1308 103.976 60.4076C103.976 60.6844 103.748 60.9089 103.467 60.9089Z" fill="#00A0DF"/>
<path d="M86.1183 60.9088C85.8377 60.9088 85.6102 60.6844 85.6102 60.4076C85.6102 60.1307 85.8377 59.9063 86.1183 59.9063C86.3988 59.9063 86.6263 60.1307 86.6263 60.4076C86.6263 60.6844 86.3988 60.9088 86.1183 60.9088Z" fill="#00A0DF"/>
<path d="M77.446 60.9088C77.1654 60.9088 76.9379 60.6844 76.9379 60.4076C76.9379 60.1307 77.1654 59.9063 77.446 59.9063C77.7265 59.9063 77.954 60.1307 77.954 60.4076C77.954 60.6844 77.7265 60.9088 77.446 60.9088Z" fill="#00A0DF"/>
<path d="M68.7706 60.9088C68.49 60.9088 68.2625 60.6844 68.2625 60.4076C68.2625 60.1307 68.49 59.9063 68.7706 59.9063C69.0512 59.9063 69.2786 60.1307 69.2786 60.4076C69.2786 60.6844 69.0512 60.9088 68.7706 60.9088Z" fill="#00A0DF"/>
<path d="M60.0976 60.9089C59.817 60.9089 59.5896 60.6844 59.5896 60.4076C59.5896 60.1308 59.817 59.9064 60.0976 59.9064C60.3782 59.9064 60.6057 60.1308 60.6057 60.4076C60.6057 60.6844 60.3782 60.9089 60.0976 60.9089Z" fill="#00A0DF"/>
<path d="M51.4245 60.9089C51.144 60.9089 50.9165 60.6844 50.9165 60.4076C50.9165 60.1308 51.144 59.9064 51.4245 59.9064C51.7051 59.9064 51.9326 60.1308 51.9326 60.4076C51.9326 60.6844 51.7051 60.9089 51.4245 60.9089Z" fill="#00A0DF"/>
<path d="M42.749 60.9088C42.4684 60.9088 42.2409 60.6844 42.2409 60.4076C42.2409 60.1307 42.4684 59.9063 42.749 59.9063C43.0296 59.9063 43.257 60.1307 43.257 60.4076C43.257 60.6844 43.0296 60.9088 42.749 60.9088Z" fill="#00A0DF"/>
<path d="M94.7918 69.4657C94.5112 69.4657 94.2838 69.2413 94.2838 68.9645C94.2838 68.6877 94.5112 68.4633 94.7918 68.4633C95.0723 68.4633 95.2997 68.6877 95.2997 68.9645C95.2997 69.2413 95.0723 69.4657 94.7918 69.4657Z" fill="#00A0DF"/>
<path d="M103.467 69.4657C103.187 69.4657 102.959 69.2413 102.959 68.9645C102.959 68.6877 103.187 68.4633 103.467 68.4633C103.748 68.4633 103.976 68.6877 103.976 68.9645C103.976 69.2413 103.748 69.4657 103.467 69.4657Z" fill="#00A0DF"/>
<path d="M86.1183 69.4657C85.8377 69.4657 85.6102 69.2413 85.6102 68.9645C85.6102 68.6877 85.8377 68.4633 86.1183 68.4633C86.3988 68.4633 86.6263 68.6877 86.6263 68.9645C86.6263 69.2413 86.3988 69.4657 86.1183 69.4657Z" fill="#00A0DF"/>
<path d="M77.446 69.4657C77.1654 69.4657 76.9379 69.2413 76.9379 68.9645C76.9379 68.6877 77.1654 68.4633 77.446 68.4633C77.7265 68.4633 77.954 68.6877 77.954 68.9645C77.954 69.2413 77.7265 69.4657 77.446 69.4657Z" fill="#00A0DF"/>
<path d="M68.7706 69.4657C68.49 69.4657 68.2625 69.2413 68.2625 68.9645C68.2625 68.6877 68.49 68.4633 68.7706 68.4633C69.0512 68.4633 69.2786 68.6877 69.2786 68.9645C69.2786 69.2413 69.0512 69.4657 68.7706 69.4657Z" fill="#00A0DF"/>
<path d="M60.0976 69.4657C59.817 69.4657 59.5896 69.2413 59.5896 68.9645C59.5896 68.6877 59.817 68.4633 60.0976 68.4633C60.3782 68.4633 60.6057 68.6877 60.6057 68.9645C60.6057 69.2413 60.3782 69.4657 60.0976 69.4657Z" fill="#00A0DF"/>
<path d="M51.4245 69.4657C51.144 69.4657 50.9165 69.2413 50.9165 68.9645C50.9165 68.6877 51.144 68.4633 51.4245 68.4633C51.7051 68.4633 51.9326 68.6877 51.9326 68.9645C51.9326 69.2413 51.7051 69.4657 51.4245 69.4657Z" fill="#00A0DF"/>
<path d="M42.749 69.4657C42.4684 69.4657 42.2409 69.2413 42.2409 68.9645C42.2409 68.6877 42.4684 68.4633 42.749 68.4633C43.0296 68.4633 43.257 68.6877 43.257 68.9645C43.257 69.2413 43.0296 69.4657 42.749 69.4657Z" fill="#00A0DF"/>
<path d="M94.7918 78.0225C94.5112 78.0225 94.2838 77.7981 94.2838 77.5212C94.2838 77.2444 94.5112 77.02 94.7918 77.02C95.0723 77.02 95.2997 77.2444 95.2997 77.5212C95.2997 77.7981 95.0723 78.0225 94.7918 78.0225Z" fill="#00A0DF"/>
<path d="M103.467 78.0225C103.187 78.0225 102.959 77.7981 102.959 77.5212C102.959 77.2444 103.187 77.02 103.467 77.02C103.748 77.02 103.976 77.2444 103.976 77.5212C103.976 77.7981 103.748 78.0225 103.467 78.0225Z" fill="#00A0DF"/>
<path d="M86.1183 78.0225C85.8378 78.0225 85.6103 77.7981 85.6103 77.5212C85.6103 77.2444 85.8378 77.02 86.1183 77.02C86.3989 77.02 86.6263 77.2444 86.6263 77.5212C86.6263 77.7981 86.3989 78.0225 86.1183 78.0225Z" fill="#00A0DF"/>
<path d="M77.446 78.0225C77.1654 78.0225 76.9379 77.7981 76.9379 77.5212C76.9379 77.2444 77.1654 77.02 77.446 77.02C77.7265 77.02 77.954 77.2444 77.954 77.5212C77.954 77.7981 77.7265 78.0225 77.446 78.0225Z" fill="#00A0DF"/>
<path d="M68.7706 78.0225C68.49 78.0225 68.2625 77.7981 68.2625 77.5212C68.2625 77.2444 68.49 77.02 68.7706 77.02C69.0512 77.02 69.2786 77.2444 69.2786 77.5212C69.2786 77.7981 69.0512 78.0225 68.7706 78.0225Z" fill="#00A0DF"/>
<path d="M60.0976 78.0225C59.817 78.0225 59.5896 77.7981 59.5896 77.5212C59.5896 77.2444 59.817 77.02 60.0976 77.02C60.3782 77.02 60.6057 77.2444 60.6057 77.5212C60.6057 77.7981 60.3782 78.0225 60.0976 78.0225Z" fill="#00A0DF"/>
<path d="M51.4245 78.0225C51.144 78.0225 50.9165 77.7981 50.9165 77.5212C50.9165 77.2444 51.144 77.02 51.4245 77.02C51.7051 77.02 51.9326 77.2444 51.9326 77.5212C51.9326 77.7981 51.7051 78.0225 51.4245 78.0225Z" fill="#00A0DF"/>
<path d="M42.749 78.0225C42.4684 78.0225 42.2409 77.7981 42.2409 77.5212C42.2409 77.2444 42.4684 77.02 42.749 77.02C43.0296 77.02 43.257 77.2444 43.257 77.5212C43.257 77.7981 43.0296 78.0225 42.749 78.0225Z" fill="#00A0DF"/>
<path d="M94.7918 86.5822C94.5112 86.5822 94.2838 86.3578 94.2838 86.081C94.2838 85.8041 94.5112 85.5797 94.7918 85.5797C95.0723 85.5797 95.2997 85.8041 95.2997 86.081C95.2997 86.3578 95.0723 86.5822 94.7918 86.5822Z" fill="#00A0DF"/>
<path d="M103.468 86.5822C103.187 86.5822 102.959 86.3578 102.959 86.081C102.959 85.8041 103.187 85.5797 103.468 85.5797C103.748 85.5797 103.976 85.8041 103.976 86.081C103.976 86.3578 103.748 86.5822 103.468 86.5822Z" fill="#00A0DF"/>
<path d="M86.1183 86.5822C85.8378 86.5822 85.6103 86.3578 85.6103 86.081C85.6103 85.8041 85.8378 85.5797 86.1183 85.5797C86.3989 85.5797 86.6263 85.8041 86.6263 86.081C86.6263 86.3578 86.3989 86.5822 86.1183 86.5822Z" fill="#00A0DF"/>
<path d="M77.4458 86.5822C77.1653 86.5822 76.9378 86.3578 76.9378 86.081C76.9378 85.8041 77.1653 85.5797 77.4458 85.5797C77.7264 85.5797 77.9539 85.8041 77.9539 86.081C77.9539 86.3578 77.7264 86.5822 77.4458 86.5822Z" fill="#00A0DF"/>
<path d="M68.7706 86.5822C68.49 86.5822 68.2625 86.3578 68.2625 86.081C68.2625 85.8041 68.49 85.5797 68.7706 85.5797C69.0512 85.5797 69.2786 85.8041 69.2786 86.081C69.2786 86.3578 69.0512 86.5822 68.7706 86.5822Z" fill="#00A0DF"/>
<path d="M60.0976 86.5822C59.817 86.5822 59.5896 86.3578 59.5896 86.081C59.5896 85.8041 59.817 85.5797 60.0976 85.5797C60.3782 85.5797 60.6057 85.8041 60.6057 86.081C60.6057 86.3578 60.3782 86.5822 60.0976 86.5822Z" fill="#00A0DF"/>
<path d="M51.4245 86.5822C51.144 86.5822 50.9165 86.3578 50.9165 86.081C50.9165 85.8041 51.144 85.5797 51.4245 85.5797C51.7051 85.5797 51.9326 85.8041 51.9326 86.081C51.9326 86.3578 51.7051 86.5822 51.4245 86.5822Z" fill="#00A0DF"/>
<path d="M42.703 86.5822C42.4224 86.5822 42.195 86.3578 42.195 86.081C42.195 85.8041 42.4224 85.5797 42.703 85.5797C42.9836 85.5797 43.2111 85.8041 43.2111 86.081C43.2111 86.3578 42.9836 86.5822 42.703 86.5822Z" fill="#00A0DF"/>
<path d="M34.1002 26.6758C33.8196 26.6758 33.5922 26.4514 33.5922 26.1746C33.5922 25.8977 33.8196 25.6733 34.1002 25.6733C34.3808 25.6733 34.6082 25.8977 34.6082 26.1746C34.6082 26.4514 34.3808 26.6758 34.1002 26.6758Z" fill="#00A0DF"/>
<path d="M42.7725 26.6758C42.4919 26.6758 42.2645 26.4514 42.2645 26.1746C42.2645 25.8977 42.4919 25.6733 42.7725 25.6733C43.0531 25.6733 43.2805 25.8977 43.2805 26.1746C43.2805 26.4514 43.0531 26.6758 42.7725 26.6758Z" fill="#00A0DF"/>
<path d="M34.1002 35.2354C33.8196 35.2354 33.5922 35.011 33.5922 34.7342C33.5922 34.4574 33.8196 34.233 34.1002 34.233C34.3808 34.233 34.6082 34.4574 34.6082 34.7342C34.6082 35.011 34.3808 35.2354 34.1002 35.2354Z" fill="#00A0DF"/>
<path d="M42.7725 35.2354C42.4919 35.2354 42.2645 35.011 42.2645 34.7342C42.2645 34.4574 42.4919 34.233 42.7725 34.233C43.0531 34.233 43.2805 34.4574 43.2805 34.7342C43.2805 35.011 43.0531 35.2354 42.7725 35.2354Z" fill="#00A0DF"/>
<path d="M25.4242 26.6758C25.1436 26.6758 24.9162 26.4514 24.9162 26.1746C24.9162 25.8977 25.1436 25.6733 25.4242 25.6733C25.7048 25.6733 25.9323 25.8977 25.9323 26.1746C25.9323 26.4514 25.7048 26.6758 25.4242 26.6758Z" fill="#00A0DF"/>
<path d="M25.4242 35.2354C25.1436 35.2354 24.9162 35.011 24.9162 34.7342C24.9162 34.4574 25.1436 34.233 25.4242 34.233C25.7048 34.233 25.9323 34.4574 25.9323 34.7342C25.9323 35.011 25.7048 35.2354 25.4242 35.2354Z" fill="#00A0DF"/>
<path d="M16.7512 26.6758C16.4706 26.6758 16.2432 26.4514 16.2432 26.1746C16.2432 25.8977 16.4706 25.6733 16.7512 25.6733C17.0318 25.6733 17.2593 25.8977 17.2593 26.1746C17.2593 26.4514 17.0318 26.6758 16.7512 26.6758Z" fill="#00A0DF"/>
<path d="M16.7512 35.2354C16.4706 35.2354 16.2432 35.011 16.2432 34.7342C16.2432 34.4574 16.4706 34.233 16.7512 34.233C17.0318 34.233 17.2593 34.4574 17.2593 34.7342C17.2593 35.011 17.0318 35.2354 16.7512 35.2354Z" fill="#00A0DF"/>
<path d="M8.07777 26.6758C7.79718 26.6758 7.56972 26.4514 7.56972 26.1746C7.56972 25.8977 7.79718 25.6733 8.07777 25.6733C8.35836 25.6733 8.58582 25.8977 8.58582 26.1746C8.58582 26.4514 8.35836 26.6758 8.07777 26.6758Z" fill="#00A0DF"/>
<path d="M8.07777 35.2354C7.79718 35.2354 7.56972 35.011 7.56972 34.7342C7.56972 34.4574 7.79718 34.233 8.07777 34.233C8.35836 34.233 8.58582 34.4574 8.58582 34.7342C8.58582 35.011 8.35836 35.2354 8.07777 35.2354Z" fill="#00A0DF"/>
<path d="M34.1002 43.7924C33.8196 43.7924 33.5922 43.568 33.5922 43.2912C33.5922 43.0143 33.8196 42.7899 34.1002 42.7899C34.3808 42.7899 34.6082 43.0143 34.6082 43.2912C34.6082 43.568 34.3808 43.7924 34.1002 43.7924Z" fill="#00A0DF"/>
<path d="M42.7725 43.7924C42.4919 43.7924 42.2645 43.568 42.2645 43.2912C42.2645 43.0143 42.4919 42.7899 42.7725 42.7899C43.0531 42.7899 43.2805 43.0143 43.2805 43.2912C43.2805 43.568 43.0531 43.7924 42.7725 43.7924Z" fill="#00A0DF"/>
<path d="M25.4242 43.7924C25.1436 43.7924 24.9162 43.568 24.9162 43.2912C24.9162 43.0143 25.1436 42.7899 25.4242 42.7899C25.7048 42.7899 25.9323 43.0143 25.9323 43.2912C25.9323 43.568 25.7048 43.7924 25.4242 43.7924Z" fill="#00A0DF"/>
<path d="M16.7512 43.7924C16.4706 43.7924 16.2432 43.568 16.2432 43.2912C16.2432 43.0143 16.4706 42.7899 16.7512 42.7899C17.0318 42.7899 17.2593 43.0143 17.2593 43.2912C17.2593 43.568 17.0318 43.7924 16.7512 43.7924Z" fill="#00A0DF"/>
<path d="M8.07777 43.7924C7.79718 43.7924 7.56972 43.568 7.56972 43.2912C7.56972 43.0143 7.79718 42.7899 8.07777 42.7899C8.35836 42.7899 8.58582 43.0143 8.58582 43.2912C8.58582 43.568 8.35836 43.7924 8.07777 43.7924Z" fill="#00A0DF"/>
<path d="M34.1002 52.3491C33.8196 52.3491 33.5922 52.1247 33.5922 51.8479C33.5922 51.5711 33.8196 51.3466 34.1002 51.3466C34.3808 51.3466 34.6082 51.5711 34.6082 51.8479C34.6082 52.1247 34.3808 52.3491 34.1002 52.3491Z" fill="#00A0DF"/>
<path d="M42.7725 52.3491C42.4919 52.3491 42.2645 52.1247 42.2645 51.8479C42.2645 51.5711 42.4919 51.3466 42.7725 51.3466C43.0531 51.3466 43.2805 51.5711 43.2805 51.8479C43.2805 52.1247 43.0531 52.3491 42.7725 52.3491Z" fill="#00A0DF"/>
<path d="M25.4242 52.3491C25.1436 52.3491 24.9162 52.1247 24.9162 51.8479C24.9162 51.5711 25.1436 51.3466 25.4242 51.3466C25.7048 51.3466 25.9323 51.5711 25.9323 51.8479C25.9323 52.1247 25.7048 52.3491 25.4242 52.3491Z" fill="#00A0DF"/>
<path d="M16.7512 52.3491C16.4706 52.3491 16.2432 52.1247 16.2432 51.8479C16.2432 51.5711 16.4706 51.3466 16.7512 51.3466C17.0318 51.3466 17.2593 51.5711 17.2593 51.8479C17.2593 52.1247 17.0318 52.3491 16.7512 52.3491Z" fill="#00A0DF"/>
<path d="M8.07777 52.3491C7.79718 52.3491 7.56972 52.1247 7.56972 51.8479C7.56972 51.5711 7.79718 51.3466 8.07777 51.3466C8.35836 51.3466 8.58582 51.5711 8.58582 51.8479C8.58582 52.1247 8.35836 52.3491 8.07777 52.3491Z" fill="#00A0DF"/>
<path d="M34.1002 60.9088C33.8196 60.9088 33.5922 60.6844 33.5922 60.4076C33.5922 60.1307 33.8196 59.9063 34.1002 59.9063C34.3808 59.9063 34.6082 60.1307 34.6082 60.4076C34.6082 60.6844 34.3808 60.9088 34.1002 60.9088Z" fill="#00A0DF"/>
<path d="M42.7725 60.9088C42.4919 60.9088 42.2645 60.6844 42.2645 60.4076C42.2645 60.1307 42.4919 59.9063 42.7725 59.9063C43.0531 59.9063 43.2805 60.1307 43.2805 60.4076C43.2805 60.6844 43.0531 60.9088 42.7725 60.9088Z" fill="#00A0DF"/>
<path d="M25.4242 60.9088C25.1436 60.9088 24.9162 60.6844 24.9162 60.4076C24.9162 60.1307 25.1436 59.9063 25.4242 59.9063C25.7048 59.9063 25.9323 60.1307 25.9323 60.4076C25.9323 60.6844 25.7048 60.9088 25.4242 60.9088Z" fill="#00A0DF"/>
<path d="M16.7512 60.9088C16.4706 60.9088 16.2432 60.6844 16.2432 60.4076C16.2432 60.1308 16.4706 59.9063 16.7512 59.9063C17.0318 59.9063 17.2593 60.1308 17.2593 60.4076C17.2593 60.6844 17.0318 60.9088 16.7512 60.9088Z" fill="#00A0DF"/>
<path d="M8.07777 60.9089C7.79718 60.9089 7.56972 60.6844 7.56972 60.4076C7.56972 60.1308 7.79718 59.9064 8.07777 59.9064C8.35836 59.9064 8.58582 60.1308 8.58582 60.4076C8.58582 60.6844 8.35836 60.9089 8.07777 60.9089Z" fill="#00A0DF"/>
<path d="M34.1002 69.4657C33.8196 69.4657 33.5922 69.2413 33.5922 68.9645C33.5922 68.6877 33.8196 68.4633 34.1002 68.4633C34.3808 68.4633 34.6082 68.6877 34.6082 68.9645C34.6082 69.2413 34.3808 69.4657 34.1002 69.4657Z" fill="#00A0DF"/>
<path d="M42.7725 69.4657C42.4919 69.4657 42.2645 69.2413 42.2645 68.9645C42.2645 68.6877 42.4919 68.4633 42.7725 68.4633C43.0531 68.4633 43.2805 68.6877 43.2805 68.9645C43.2805 69.2413 43.0531 69.4657 42.7725 69.4657Z" fill="#00A0DF"/>
<path d="M25.4242 69.4657C25.1436 69.4657 24.9162 69.2413 24.9162 68.9645C24.9162 68.6877 25.1436 68.4633 25.4242 68.4633C25.7048 68.4633 25.9323 68.6877 25.9323 68.9645C25.9323 69.2413 25.7048 69.4657 25.4242 69.4657Z" fill="#00A0DF"/>
<path d="M16.7512 69.4657C16.4706 69.4657 16.2432 69.2413 16.2432 68.9645C16.2432 68.6877 16.4706 68.4633 16.7512 68.4633C17.0318 68.4633 17.2593 68.6877 17.2593 68.9645C17.2593 69.2413 17.0318 69.4657 16.7512 69.4657Z" fill="#00A0DF"/>
<path d="M8.07777 69.4657C7.79718 69.4657 7.56972 69.2413 7.56972 68.9645C7.56972 68.6877 7.79718 68.4633 8.07777 68.4633C8.35836 68.4633 8.58582 68.6877 8.58582 68.9645C8.58582 69.2413 8.35836 69.4657 8.07777 69.4657Z" fill="#00A0DF"/>
<path d="M34.1002 78.0225C33.8196 78.0225 33.5922 77.7981 33.5922 77.5212C33.5922 77.2444 33.8196 77.02 34.1002 77.02C34.3808 77.02 34.6082 77.2444 34.6082 77.5212C34.6082 77.7981 34.3808 78.0225 34.1002 78.0225Z" fill="#00A0DF"/>
<path d="M42.7725 78.0225C42.4919 78.0225 42.2645 77.7981 42.2645 77.5212C42.2645 77.2444 42.4919 77.02 42.7725 77.02C43.0531 77.02 43.2805 77.2444 43.2805 77.5212C43.2805 77.7981 43.0531 78.0225 42.7725 78.0225Z" fill="#00A0DF"/>
<path d="M25.4242 78.0225C25.1436 78.0225 24.9162 77.7981 24.9162 77.5212C24.9162 77.2444 25.1436 77.02 25.4242 77.02C25.7048 77.02 25.9323 77.2444 25.9323 77.5212C25.9323 77.7981 25.7048 78.0225 25.4242 78.0225Z" fill="#00A0DF"/>
<path d="M16.7512 78.0225C16.4706 78.0225 16.2432 77.7981 16.2432 77.5212C16.2432 77.2444 16.4706 77.02 16.7512 77.02C17.0318 77.02 17.2593 77.2444 17.2593 77.5212C17.2593 77.7981 17.0318 78.0225 16.7512 78.0225Z" fill="#00A0DF"/>
<path d="M8.07777 78.0225C7.79718 78.0225 7.56972 77.7981 7.56972 77.5212C7.56972 77.2444 7.79718 77.02 8.07777 77.02C8.35836 77.02 8.58582 77.2444 8.58582 77.5212C8.58582 77.7981 8.35836 78.0225 8.07777 78.0225Z" fill="#00A0DF"/>
<path d="M34.1002 86.5822C33.8196 86.5822 33.5922 86.3578 33.5922 86.081C33.5922 85.8041 33.8196 85.5797 34.1002 85.5797C34.3808 85.5797 34.6082 85.8041 34.6082 86.081C34.6082 86.3578 34.3808 86.5822 34.1002 86.5822Z" fill="#00A0DF"/>
<path d="M42.7725 86.5822C42.4919 86.5822 42.2645 86.3578 42.2645 86.081C42.2645 85.8041 42.4919 85.5797 42.7725 85.5797C43.0531 85.5797 43.2805 85.8041 43.2805 86.081C43.2805 86.3578 43.0531 86.5822 42.7725 86.5822Z" fill="#00A0DF"/>
<path d="M25.4242 86.5822C25.1436 86.5822 24.9162 86.3578 24.9162 86.081C24.9162 85.8041 25.1436 85.5797 25.4242 85.5797C25.7048 85.5797 25.9323 85.8041 25.9323 86.081C25.9323 86.3578 25.7048 86.5822 25.4242 86.5822Z" fill="#00A0DF"/>
<path d="M16.7512 86.5822C16.4706 86.5822 16.2432 86.3578 16.2432 86.081C16.2432 85.8041 16.4706 85.5797 16.7512 85.5797C17.0318 85.5797 17.2593 85.8041 17.2593 86.081C17.2593 86.3578 17.0318 86.5822 16.7512 86.5822Z" fill="#00A0DF"/>
<path d="M8.07777 86.5822C7.79718 86.5822 7.56972 86.3578 7.56972 86.081C7.56972 85.8041 7.79718 85.5797 8.07777 85.5797C8.35836 85.5797 8.58582 85.8041 8.58582 86.081C8.58582 86.3578 8.35836 86.5822 8.07777 86.5822Z" fill="#00A0DF"/>
<path d="M146.814 95.1391C146.533 95.1391 146.306 94.9147 146.306 94.6379C146.306 94.361 146.533 94.1366 146.814 94.1366C147.094 94.1366 147.322 94.361 147.322 94.6379C147.322 94.9147 147.094 95.1391 146.814 95.1391Z" fill="#00A0DF"/>
<path d="M146.814 103.696C146.533 103.696 146.306 103.471 146.306 103.195C146.306 102.918 146.533 102.693 146.814 102.693C147.094 102.693 147.322 102.918 147.322 103.195C147.322 103.471 147.094 103.696 146.814 103.696Z" fill="#00A0DF"/>
<path d="M138.138 95.1391C137.857 95.1391 137.63 94.9147 137.63 94.6379C137.63 94.361 137.857 94.1366 138.138 94.1366C138.419 94.1366 138.646 94.361 138.646 94.6379C138.646 94.9147 138.419 95.1391 138.138 95.1391Z" fill="#00A0DF"/>
<path d="M138.138 103.696C137.857 103.696 137.63 103.471 137.63 103.195C137.63 102.918 137.857 102.693 138.138 102.693C138.419 102.693 138.646 102.918 138.646 103.195C138.646 103.471 138.419 103.696 138.138 103.696Z" fill="#00A0DF"/>
<path d="M129.464 95.1391C129.184 95.1391 128.956 94.9147 128.956 94.6379C128.956 94.361 129.184 94.1366 129.464 94.1366C129.745 94.1366 129.973 94.361 129.973 94.6379C129.973 94.9147 129.745 95.1391 129.464 95.1391Z" fill="#00A0DF"/>
<path d="M129.464 103.696C129.184 103.696 128.956 103.471 128.956 103.195C128.956 102.918 129.184 102.693 129.464 102.693C129.745 102.693 129.973 102.918 129.973 103.195C129.973 103.471 129.745 103.696 129.464 103.696Z" fill="#00A0DF"/>
<path d="M120.792 95.1391C120.512 95.1391 120.284 94.9147 120.284 94.6379C120.284 94.361 120.512 94.1366 120.792 94.1366C121.073 94.1366 121.3 94.361 121.3 94.6379C121.3 94.9147 121.073 95.1391 120.792 95.1391Z" fill="#00A0DF"/>
<path d="M120.792 103.696C120.512 103.696 120.284 103.471 120.284 103.195C120.284 102.918 120.512 102.693 120.792 102.693C121.073 102.693 121.3 102.918 121.3 103.195C121.3 103.471 121.073 103.696 120.792 103.696Z" fill="#00A0DF"/>
<path d="M112.116 95.1391C111.836 95.1391 111.608 94.9147 111.608 94.6379C111.608 94.361 111.836 94.1366 112.116 94.1366C112.397 94.1366 112.624 94.361 112.624 94.6379C112.624 94.9147 112.397 95.1391 112.116 95.1391Z" fill="#00A0DF"/>
<path d="M112.116 103.696C111.836 103.696 111.608 103.471 111.608 103.195C111.608 102.918 111.836 102.693 112.116 102.693C112.397 102.693 112.624 102.918 112.624 103.195C112.624 103.471 112.397 103.696 112.116 103.696Z" fill="#00A0DF"/>
<path d="M103.444 95.1391C103.163 95.1391 102.936 94.9147 102.936 94.6379C102.936 94.361 103.163 94.1366 103.444 94.1366C103.724 94.1366 103.952 94.361 103.952 94.6379C103.952 94.9147 103.724 95.1391 103.444 95.1391Z" fill="#00A0DF"/>
<path d="M103.444 103.696C103.163 103.696 102.936 103.471 102.936 103.195C102.936 102.918 103.163 102.693 103.444 102.693C103.724 102.693 103.952 102.918 103.952 103.195C103.952 103.471 103.724 103.696 103.444 103.696Z" fill="#00A0DF"/>
<path d="M94.7918 95.1391C94.5112 95.1391 94.2838 94.9147 94.2838 94.6379C94.2838 94.361 94.5112 94.1366 94.7918 94.1366C95.0723 94.1366 95.2997 94.361 95.2997 94.6379C95.2997 94.9147 95.0723 95.1391 94.7918 95.1391Z" fill="#00A0DF"/>
<path d="M103.468 95.1391C103.187 95.1391 102.959 94.9147 102.959 94.6379C102.959 94.361 103.187 94.1366 103.468 94.1366C103.748 94.1366 103.976 94.361 103.976 94.6379C103.976 94.9147 103.748 95.1391 103.468 95.1391Z" fill="#00A0DF"/>
<path d="M94.7918 103.696C94.5112 103.696 94.2838 103.471 94.2838 103.195C94.2838 102.918 94.5112 102.693 94.7918 102.693C95.0723 102.693 95.2997 102.918 95.2997 103.195C95.2997 103.471 95.0723 103.696 94.7918 103.696Z" fill="#00A0DF"/>
<path d="M103.467 103.696C103.187 103.696 102.959 103.471 102.959 103.195C102.959 102.918 103.187 102.693 103.467 102.693C103.748 102.693 103.976 102.918 103.976 103.195C103.976 103.471 103.748 103.696 103.467 103.696Z" fill="#00A0DF"/>
<path d="M86.1183 95.1391C85.8377 95.1391 85.6102 94.9147 85.6102 94.6379C85.6102 94.361 85.8377 94.1366 86.1183 94.1366C86.3988 94.1366 86.6263 94.361 86.6263 94.6379C86.6263 94.9147 86.3988 95.1391 86.1183 95.1391Z" fill="#00A0DF"/>
<path d="M86.1183 103.696C85.8377 103.696 85.6102 103.471 85.6102 103.195C85.6102 102.918 85.8377 102.693 86.1183 102.693C86.3988 102.693 86.6263 102.918 86.6263 103.195C86.6263 103.471 86.3988 103.696 86.1183 103.696Z" fill="#00A0DF"/>
<path d="M77.4458 95.1391C77.1653 95.1391 76.9378 94.9147 76.9378 94.6379C76.9378 94.361 77.1653 94.1366 77.4458 94.1366C77.7264 94.1366 77.9539 94.361 77.9539 94.6379C77.9539 94.9147 77.7264 95.1391 77.4458 95.1391Z" fill="#00A0DF"/>
<path d="M77.4458 103.696C77.1653 103.696 76.9378 103.471 76.9378 103.195C76.9378 102.918 77.1653 102.693 77.4458 102.693C77.7264 102.693 77.9539 102.918 77.9539 103.195C77.9539 103.471 77.7264 103.696 77.4458 103.696Z" fill="#00A0DF"/>
<path d="M68.7706 95.1391C68.49 95.1391 68.2625 94.9147 68.2625 94.6379C68.2625 94.361 68.49 94.1366 68.7706 94.1366C69.0512 94.1366 69.2786 94.361 69.2786 94.6379C69.2786 94.9147 69.0512 95.1391 68.7706 95.1391Z" fill="#00A0DF"/>
<path d="M68.7705 103.696C68.4899 103.696 68.2625 103.471 68.2625 103.195C68.2625 102.918 68.4899 102.693 68.7705 102.693C69.0511 102.693 69.2786 102.918 69.2786 103.195C69.2786 103.471 69.0511 103.696 68.7705 103.696Z" fill="#00A0DF"/>
<path d="M60.0976 95.1391C59.817 95.1391 59.5896 94.9147 59.5896 94.6379C59.5896 94.361 59.817 94.1366 60.0976 94.1366C60.3782 94.1366 60.6057 94.361 60.6057 94.6379C60.6057 94.9147 60.3782 95.1391 60.0976 95.1391Z" fill="#00A0DF"/>
<path d="M60.0976 103.696C59.817 103.696 59.5896 103.471 59.5896 103.195C59.5896 102.918 59.817 102.693 60.0976 102.693C60.3782 102.693 60.6057 102.918 60.6057 103.195C60.6057 103.471 60.3782 103.696 60.0976 103.696Z" fill="#00A0DF"/>
<path d="M51.4245 95.1391C51.144 95.1391 50.9165 94.9147 50.9165 94.6379C50.9165 94.361 51.144 94.1366 51.4245 94.1366C51.7051 94.1366 51.9326 94.361 51.9326 94.6379C51.9326 94.9147 51.7051 95.1391 51.4245 95.1391Z" fill="#00A0DF"/>
<path d="M51.4245 103.696C51.144 103.696 50.9165 103.471 50.9165 103.195C50.9165 102.918 51.144 102.693 51.4245 102.693C51.7051 102.693 51.9326 102.918 51.9326 103.195C51.9326 103.471 51.7051 103.696 51.4245 103.696Z" fill="#00A0DF"/>
<path d="M42.749 95.1391C42.4684 95.1391 42.2409 94.9147 42.2409 94.6379C42.2409 94.361 42.4684 94.1366 42.749 94.1366C43.0296 94.1366 43.257 94.361 43.257 94.6379C43.257 94.9147 43.0296 95.1391 42.749 95.1391Z" fill="#00A0DF"/>
<path d="M42.749 103.696C42.4684 103.696 42.2409 103.471 42.2409 103.195C42.2409 102.918 42.4684 102.693 42.749 102.693C43.0296 102.693 43.257 102.918 43.257 103.195C43.257 103.471 43.0296 103.696 42.749 103.696Z" fill="#00A0DF"/>
<path d="M34.1002 95.1391C33.8196 95.1391 33.5922 94.9147 33.5922 94.6379C33.5922 94.361 33.8196 94.1366 34.1002 94.1366C34.3808 94.1366 34.6082 94.361 34.6082 94.6379C34.6082 94.9147 34.3808 95.1391 34.1002 95.1391Z" fill="#00A0DF"/>
<path d="M42.7725 95.1391C42.4919 95.1391 42.2645 94.9147 42.2645 94.6379C42.2645 94.361 42.4919 94.1366 42.7725 94.1366C43.0531 94.1366 43.2805 94.361 43.2805 94.6379C43.2805 94.9147 43.0531 95.1391 42.7725 95.1391Z" fill="#00A0DF"/>
<path d="M34.1002 103.696C33.8196 103.696 33.5922 103.471 33.5922 103.195C33.5922 102.918 33.8196 102.693 34.1002 102.693C34.3808 102.693 34.6082 102.918 34.6082 103.195C34.6082 103.471 34.3808 103.696 34.1002 103.696Z" fill="#00A0DF"/>
<path d="M42.7725 103.696C42.4919 103.696 42.2645 103.471 42.2645 103.195C42.2645 102.918 42.4919 102.693 42.7725 102.693C43.0531 102.693 43.2805 102.918 43.2805 103.195C43.2805 103.471 43.0531 103.696 42.7725 103.696Z" fill="#00A0DF"/>
<path d="M25.4242 95.1391C25.1436 95.1391 24.9162 94.9147 24.9162 94.6379C24.9162 94.361 25.1436 94.1366 25.4242 94.1366C25.7048 94.1366 25.9323 94.361 25.9323 94.6379C25.9323 94.9147 25.7048 95.1391 25.4242 95.1391Z" fill="#00A0DF"/>
<path d="M25.4242 103.696C25.1436 103.696 24.9162 103.471 24.9162 103.195C24.9162 102.918 25.1436 102.693 25.4242 102.693C25.7048 102.693 25.9323 102.918 25.9323 103.195C25.9323 103.471 25.7048 103.696 25.4242 103.696Z" fill="#00A0DF"/>
<path d="M16.7512 95.1391C16.4706 95.1391 16.2432 94.9147 16.2432 94.6379C16.2432 94.361 16.4706 94.1366 16.7512 94.1366C17.0318 94.1366 17.2593 94.361 17.2593 94.6379C17.2593 94.9147 17.0318 95.1391 16.7512 95.1391Z" fill="#00A0DF"/>
<path d="M16.7512 103.696C16.4706 103.696 16.2432 103.471 16.2432 103.195C16.2432 102.918 16.4706 102.693 16.7512 102.693C17.0318 102.693 17.2593 102.918 17.2593 103.195C17.2593 103.471 17.0318 103.696 16.7512 103.696Z" fill="#00A0DF"/>
<path d="M8.07777 95.1391C7.79718 95.1391 7.56972 94.9147 7.56972 94.6379C7.56972 94.361 7.79718 94.1366 8.07777 94.1366C8.35836 94.1366 8.58582 94.361 8.58582 94.6379C8.58582 94.9147 8.35836 95.1391 8.07777 95.1391Z" fill="#00A0DF"/>
<path d="M8.07777 103.696C7.79718 103.696 7.56972 103.471 7.56972 103.195C7.56972 102.918 7.79718 102.693 8.07777 102.693C8.35836 102.693 8.58582 102.918 8.58582 103.195C8.58582 103.471 8.35836 103.696 8.07777 103.696Z" fill="#00A0DF"/>
</svg>
