<svg width="155" height="40" viewBox="0 0 155 40" fill="none" xmlns="http://www.w3.org/2000/svg">
<g clip-path="url(#clip0_373_58139)">
<path d="M8.47149 17.8677C9.48807 17.8677 10.4601 18.0086 11.3696 18.2906C12.2792 18.5725 13.0818 18.9866 13.7773 19.5329C14.464 20.0791 15.0168 20.7575 15.4181 21.5769C15.8194 22.3963 16.0245 23.339 16.0245 24.4139C16.0245 25.4183 15.8372 26.3434 15.4716 27.1716C15.0971 27.9998 14.5799 28.7135 13.9289 29.295C13.269 29.8853 12.5021 30.3346 11.6371 30.6606C10.7632 30.9866 9.84476 31.1452 8.86385 31.1452H3.56694V39.7708H0V17.8677H8.47149ZM8.632 28.132C9.20271 28.132 9.71992 28.0439 10.1747 27.8677C10.6295 27.6915 11.0308 27.436 11.3696 27.11C11.7085 26.784 11.976 26.3963 12.1633 25.947C12.3505 25.4976 12.4486 24.9954 12.4486 24.4492C12.4486 23.9029 12.3505 23.3743 12.1454 22.9249C11.9403 22.4756 11.6639 22.1056 11.3161 21.806C10.9683 21.5153 10.5492 21.295 10.0766 21.1452C9.59508 20.9954 9.07787 20.9249 8.49824 20.9249H3.56694V28.132H8.632Z" fill="white"/>
<path d="M21.9181 40C21.1958 40 20.5002 39.9031 19.8314 39.7181C19.1626 39.533 18.5741 39.2423 18.0836 38.8546C17.5843 38.467 17.1919 37.9824 16.9065 37.3921C16.6212 36.8018 16.4785 36.1145 16.4785 35.3128C16.4785 34.5551 16.6123 33.8767 16.8887 33.2863C17.1652 32.6872 17.5308 32.1938 17.9855 31.7886C18.4403 31.3921 18.9932 31.0925 19.6263 30.8899C20.2595 30.6872 20.955 30.5903 21.6952 30.5903H26.3144V29.0837C26.3144 28.6872 26.2519 28.3348 26.136 28.0441C26.0201 27.7533 25.8239 27.4978 25.5475 27.2863C25.271 27.0749 24.9233 26.9163 24.4952 26.8106C24.0672 26.7049 23.55 26.652 22.9347 26.652C22.5958 26.652 22.257 26.6784 21.9181 26.7313C21.5792 26.7841 21.2493 26.8546 20.9283 26.9515C20.6073 27.0485 20.3041 27.1894 20.0187 27.3745C19.7334 27.5595 19.4747 27.7974 19.234 28.0705L17.3881 25.9031C17.7269 25.5242 18.1193 25.2071 18.5652 24.9427C19.011 24.6784 19.4747 24.467 19.9652 24.2996C20.4557 24.1322 20.955 24.0088 21.4812 23.9207C21.9984 23.8326 22.5066 23.7974 22.9971 23.7974C23.9513 23.7974 24.8341 23.8855 25.6456 24.0617C26.4481 24.2379 27.1526 24.5375 27.7501 24.9427C28.3475 25.348 28.8112 25.8943 29.1322 26.5815C29.4622 27.2599 29.6227 28.1234 29.6227 29.1454V39.7886H26.3411V38.4317L26.2787 38.3965C26.1093 38.652 25.8863 38.8723 25.6277 39.0573C25.3602 39.2423 25.0392 39.4185 24.6736 39.5595C24.299 39.7093 23.8799 39.815 23.4162 39.8943C22.9525 39.9648 22.4531 40 21.9181 40ZM22.4264 32.9515C22.0875 32.9515 21.7487 32.9868 21.4098 33.0485C21.071 33.1101 20.7767 33.2247 20.5181 33.3921C20.2595 33.5595 20.0544 33.7709 19.8849 34.0352C19.7155 34.2996 19.6263 34.6256 19.6263 35.0308C19.6263 35.4537 19.7155 35.8062 19.8939 36.0881C20.0722 36.37 20.3041 36.5903 20.5983 36.7489C20.8837 36.9075 21.2047 37.022 21.5703 37.0925C21.927 37.163 22.2926 37.1982 22.6493 37.1982C23.113 37.1982 23.5767 37.1542 24.0226 37.0749C24.4685 36.9868 24.8608 36.8458 25.1997 36.6344C25.5386 36.4229 25.8061 36.1498 26.0112 35.7974C26.2163 35.4537 26.3144 35.0044 26.3144 34.4582V32.9515H22.4264Z" fill="white"/>
<path d="M33.5195 24.0088H36.8368V25.9648H36.8992C37.1756 25.5419 37.4699 25.1982 37.7909 24.9251C38.112 24.652 38.4419 24.4317 38.7897 24.2643C39.1375 24.0969 39.512 23.9736 39.9044 23.9031C40.2967 23.8326 40.7069 23.7974 41.135 23.7974C41.349 23.7974 41.5719 23.8062 41.8216 23.8326C42.0624 23.8502 42.312 23.8943 42.5528 23.9383C42.7936 23.9912 43.0343 24.0617 43.2573 24.141C43.4802 24.2203 43.6853 24.326 43.8815 24.4582L42.6687 27.6388C42.3031 27.4097 41.9286 27.2511 41.5184 27.163C41.1171 27.0837 40.698 27.0397 40.2789 27.0397C39.7884 27.0397 39.3336 27.1101 38.9056 27.2599C38.4776 27.4097 38.1209 27.63 37.8266 27.9207C37.5323 28.2115 37.2916 28.5903 37.1221 29.0397C36.9527 29.489 36.8635 30.0176 36.8635 30.6256V39.7885H33.5195V24.0088Z" fill="white"/>
<path d="M50.4627 35.0308C50.4627 35.3039 50.4895 35.5506 50.543 35.7709C50.5965 35.9911 50.6768 36.185 50.7838 36.3524C50.8908 36.5198 51.0513 36.6519 51.2653 36.7488C51.4793 36.8457 51.729 36.8898 52.0322 36.8898H53.4055V39.7885H51.1761C50.5608 39.7885 49.999 39.7004 49.4997 39.5242C49.0003 39.348 48.5723 39.0836 48.2245 38.74C47.8767 38.3964 47.6003 37.9647 47.413 37.4537C47.2257 36.9427 47.1277 36.3435 47.1277 35.6739V26.6431H45.2461V24.0264H47.1544V20.0264H50.4717V24.0264H52.9864V26.6431H50.4717V35.0484L50.4627 35.0308Z" fill="white"/>
<path d="M56.1973 24.0088H59.5145V25.6476H59.6394C59.9604 25.3128 60.2992 25.0308 60.6559 24.8018C61.0126 24.5727 61.3961 24.3789 61.7884 24.2379C62.1808 24.0881 62.5821 23.9824 63.0012 23.9031C63.4114 23.8326 63.8216 23.7974 64.2318 23.7974C65.0165 23.7974 65.7299 23.9119 66.3631 24.141C66.9962 24.37 67.5491 24.7225 68.0038 25.1806C68.4586 25.6388 68.8153 26.2291 69.0739 26.9251C69.3325 27.63 69.4574 28.4405 69.4574 29.3656V39.7885H66.1134V30.5374C66.1134 29.9912 66.0688 29.4978 65.9707 29.0573C65.8726 28.6167 65.7121 28.2467 65.4802 27.9383C65.2484 27.6388 64.9452 27.4009 64.5707 27.2335C64.1961 27.0661 63.7324 26.978 63.1885 26.978C62.6445 26.978 62.1362 27.0661 61.6904 27.2423C61.2445 27.4185 60.861 27.6652 60.54 27.9648C60.219 28.2731 59.9782 28.6432 59.8088 29.0837C59.6394 29.5242 59.5502 30.0176 59.5502 30.5639V39.7885H56.2062V24.0088H56.1973Z" fill="white"/>
<path d="M79.391 39.9996C78.1158 39.9996 77.0368 39.797 76.154 39.4005C75.2712 39.004 74.5489 38.449 73.9871 37.7353C73.4253 37.0217 73.0151 36.167 72.7565 35.1714C72.4979 34.1758 72.373 33.1009 72.373 31.9468C72.373 30.8543 72.5068 29.8146 72.7743 28.8278C73.0418 27.841 73.452 26.9776 74.0138 26.2287C74.5756 25.4798 75.289 24.8895 76.1629 24.4313C77.0368 23.982 78.0712 23.7529 79.284 23.7529C80.4343 23.7529 81.4153 23.9291 82.2446 24.2904C83.0739 24.6516 83.7605 25.1362 84.2956 25.7706C84.8306 26.4049 85.2319 27.1626 85.4905 28.0525C85.7491 28.9424 85.8739 29.9115 85.8739 30.96V32.819H75.7438C75.7616 33.1362 75.7973 33.4358 75.8419 33.7353C75.9222 34.3609 76.1094 34.9247 76.3859 35.4181C76.6623 35.9115 77.0457 36.308 77.5362 36.6164C78.0266 36.9247 78.7044 37.0745 79.5783 37.0745C79.9171 37.0745 80.256 37.0393 80.577 36.9688C80.907 36.8983 81.2369 36.7926 81.5668 36.6692C81.8968 36.5459 82.2 36.3873 82.4943 36.1935C82.7796 36.0084 83.0471 35.7882 83.3057 35.5327L85.0535 37.8939C84.6701 38.2551 84.2599 38.5635 83.814 38.8366C83.3681 39.1098 82.9134 39.33 82.4407 39.4974C81.977 39.6648 81.4777 39.7882 80.9605 39.8763C80.4433 39.9556 79.9171 39.9996 79.3821 39.9996H79.391ZM82.5478 30.4313V30.1758C82.5478 29.7353 82.5032 29.3124 82.4051 28.8983C82.307 28.493 82.1376 28.1142 81.879 27.7794C81.6203 27.4446 81.2815 27.1802 80.8624 26.9776C80.4433 26.775 79.9171 26.678 79.3018 26.678C78.5171 26.678 77.8929 26.8278 77.4203 27.1362C76.9476 27.4446 76.5999 27.841 76.3502 28.3344C76.1094 28.8278 75.94 29.3653 75.8597 29.9556C75.8419 30.123 75.8151 30.2816 75.7973 30.4313H82.5478Z" fill="white"/>
<path d="M89.1113 24.0088H92.4286V25.9648H92.491C92.7674 25.5419 93.0617 25.1982 93.3827 24.9251C93.7038 24.652 94.0337 24.4317 94.3904 24.2643C94.7382 24.0969 95.1127 23.9736 95.5051 23.9031C95.8974 23.8326 96.3076 23.7974 96.7357 23.7974C96.9497 23.7974 97.1726 23.8062 97.4223 23.8326C97.6631 23.8502 97.9128 23.8943 98.1535 23.9383C98.3943 23.9912 98.6351 24.0617 98.858 24.141C99.0809 24.2203 99.286 24.326 99.4822 24.4582L98.2694 27.6388C97.9038 27.4097 97.5293 27.2511 97.1191 27.163C96.7178 27.0837 96.2987 27.0397 95.8796 27.0397C95.3891 27.0397 94.9344 27.1101 94.5063 27.2599C94.0783 27.4097 93.7216 27.63 93.4273 27.9207C93.1331 28.2115 92.8923 28.5903 92.7229 29.0397C92.5534 29.489 92.4643 30.0176 92.4643 30.6256V39.7885H89.1202V24.0088H89.1113Z" fill="white"/>
<path d="M105.073 17.8677L111.6 32.3523H111.698L118.163 17.8677H121.632V39.7796H118.092V25.6122L118.03 25.6474L113.089 36.6342H110.093L105.189 25.621L105.126 25.6562V39.7884H101.586V17.8677H105.055H105.073Z" fill="#249FDA"/>
<path d="M130.176 40C129.454 40 128.758 39.9031 128.089 39.7181C127.42 39.533 126.832 39.2423 126.341 38.8546C125.842 38.467 125.45 37.9824 125.164 37.3921C124.879 36.8018 124.736 36.1145 124.736 35.3128C124.736 34.5551 124.879 33.8767 125.147 33.2863C125.414 32.696 125.789 32.1938 126.243 31.7886C126.698 31.3921 127.251 31.0925 127.884 30.8899C128.517 30.6872 129.213 30.5903 129.953 30.5903H134.572V29.0837C134.572 28.6872 134.51 28.3348 134.394 28.0441C134.278 27.7533 134.082 27.4978 133.805 27.2863C133.529 27.0749 133.181 26.9163 132.753 26.8106C132.325 26.7049 131.808 26.652 131.192 26.652C130.854 26.652 130.515 26.6784 130.176 26.7313C129.837 26.7841 129.507 26.8546 129.186 26.9515C128.865 27.0485 128.562 27.1894 128.277 27.3745C127.991 27.5595 127.733 27.7974 127.492 28.0705L125.646 25.9031C125.985 25.5242 126.377 25.2071 126.823 24.9427C127.269 24.6784 127.733 24.467 128.223 24.2996C128.713 24.1322 129.213 24.0088 129.739 23.9207C130.256 23.8326 130.764 23.7974 131.255 23.7974C132.209 23.7974 133.092 23.8855 133.903 24.0617C134.715 24.2379 135.41 24.5375 136.008 24.9427C136.605 25.348 137.06 25.8943 137.39 26.5815C137.72 27.2599 137.88 28.1234 137.88 29.1454V39.7886H134.599V38.4317L134.536 38.3965C134.367 38.652 134.144 38.8723 133.886 39.0573C133.618 39.2423 133.297 39.4185 132.931 39.5595C132.557 39.7093 132.138 39.815 131.674 39.8943C131.21 39.9648 130.711 40 130.176 40ZM130.684 32.9515C130.345 32.9515 130.006 32.9868 129.668 33.0485C129.329 33.1101 129.034 33.2247 128.776 33.3921C128.517 33.5595 128.312 33.7709 128.143 34.0352C127.973 34.2996 127.884 34.6256 127.884 35.0308C127.884 35.4537 127.973 35.8062 128.152 36.0881C128.33 36.37 128.562 36.5903 128.856 36.7489C129.141 36.9075 129.463 37.022 129.828 37.0925C130.185 37.163 130.55 37.1982 130.907 37.1982C131.371 37.1982 131.835 37.1542 132.28 37.0749C132.726 36.9868 133.119 36.8458 133.457 36.6344C133.796 36.4229 134.064 36.1498 134.269 35.7974C134.474 35.4537 134.572 35.0044 134.572 34.4582V32.9515H130.684Z" fill="#249FDA"/>
<path d="M139.833 24.0088H143.685L146.779 29.2951H146.842L149.963 24.0088H153.851L148.786 31.718L154.074 39.7797H150.186L146.869 34.2731H146.806L143.462 39.7797H139.574L144.862 31.718L139.824 24.0088H139.833Z" fill="#249FDA"/>
<path d="M4.62811 6.4932L1.57837 0.0791016H0V10.3787H1.57837V3.4976L4.03956 8.51082H5.20774L7.61542 3.4976V10.3787H9.19379V0.0791016H7.61542L4.62811 6.4932Z" fill="#249FDA"/>
<path d="M15.1324 7.5153C15.1324 8.64305 14.428 9.14526 13.5986 9.14526C12.7693 9.14526 12.1094 8.65186 12.1094 7.5153V3.04834H10.6113V7.73556C10.6113 8.56376 10.7897 9.25098 11.3604 9.80605C11.7973 10.2201 12.4305 10.4668 13.1884 10.4668C13.9375 10.4757 14.6509 10.1761 15.1681 9.63865V10.3787H16.6305V3.04834H15.1413V7.5153H15.1324Z" fill="#249FDA"/>
<path d="M19.5556 8.27293V0.0791016H18.0664V8.35223C18.0664 9.43593 18.6817 10.3787 20.0996 10.3787H21.0181V9.11875H20.3582C19.7607 9.11875 19.5556 8.828 19.5556 8.26412" fill="#249FDA"/>
<path d="M24.6029 2.96045C22.7035 2.96045 21.4551 4.3349 21.4551 6.70494C21.4551 9.49789 22.9354 10.4671 24.7902 10.4671C26.0921 10.4671 26.8144 10.0706 27.5724 9.32168L26.6182 8.44062C26.0921 8.96045 25.6552 9.18952 24.8169 9.18952C23.6042 9.18952 22.9264 8.39657 22.9264 7.13666H27.7418V6.48468C27.7418 4.40538 26.5915 2.96045 24.594 2.96045H24.6029ZM22.9264 6.10582C22.9443 5.65648 22.971 5.44503 23.1137 5.11023C23.3634 4.52873 23.9519 4.15869 24.594 4.18512C25.2271 4.1675 25.8157 4.52873 26.0564 5.11023C26.1991 5.42741 26.2705 5.76221 26.2615 6.10582H22.9264Z" fill="#249FDA"/>
<path d="M35.1251 5.3304C34.6881 4.94273 34.1442 4.70485 33.1722 4.56388L31.9951 4.38767C31.5671 4.3348 31.1569 4.17621 30.818 3.91189C30.5505 3.6652 30.4078 3.32159 30.4256 2.96035C30.4256 2.05286 31.0944 1.35683 32.325 1.35683C33.1989 1.35683 33.948 1.54185 34.59 2.14978L35.5977 1.163C34.706 0.334802 33.7429 0 32.3607 0C30.1938 0 28.874 1.22467 28.874 3.02203C28.874 3.85903 29.1237 4.51101 29.6409 4.98678C30.0957 5.40969 30.7645 5.69163 31.6206 5.80617L32.8512 5.98238C33.4665 6.07049 33.734 6.1674 33.9926 6.4141C34.2601 6.66079 34.4028 7.03965 34.4028 7.48899C34.4028 8.48458 33.6091 9.06608 32.2537 9.06608C31.1836 9.06608 30.3543 8.837 29.5874 8.0793L28.5352 9.11013C29.5339 10.1057 30.6575 10.467 32.2269 10.467C34.4028 10.467 35.9722 9.33921 35.9722 7.44493C35.9722 6.56388 35.6869 5.82379 35.1251 5.3304Z" fill="#249FDA"/>
<path d="M39.9135 2.96045C38.9059 2.96045 38.1836 3.3393 37.702 3.8327C36.9976 4.55516 36.8281 5.48027 36.8281 6.71375C36.8281 7.94723 37.0065 8.88115 37.702 9.60362C38.1836 10.097 38.9059 10.4759 39.9135 10.4759C40.9212 10.4759 41.6613 10.097 42.1429 9.60362C42.8473 8.88115 43.0168 7.95604 43.0168 6.71375C43.0168 5.47146 42.8384 4.55516 42.1429 3.8327C41.6613 3.3393 40.9301 2.96045 39.9135 2.96045ZM41.0104 8.71375C40.7161 8.99569 40.3237 9.15428 39.9135 9.14547C39.5122 9.14547 39.1199 8.99569 38.8345 8.71375C38.3797 8.26441 38.3173 7.49789 38.3173 6.70494C38.3173 5.91199 38.3797 5.14547 38.8345 4.69613C39.1199 4.41419 39.5122 4.26441 39.9135 4.27322C40.3237 4.26441 40.7161 4.41419 41.0104 4.69613C41.4652 5.14547 41.5276 5.91199 41.5276 6.70494C41.5276 7.49789 41.4652 8.26441 41.0104 8.71375Z" fill="#249FDA"/>
<path d="M44.5249 2.05284V3.18941H43.6777V4.31716H44.5249V10.3965H46.0141V4.30835H47.4944V3.1806H46.0141V2.13214C46.0141 1.59469 46.2727 1.27751 46.8345 1.27751H47.4944V0.00878906H46.5491C45.1669 0.00878906 44.5249 0.995573 44.5249 2.05284Z" fill="#249FDA"/>
<path d="M50.7671 0.95166H49.2779V3.18073H48.4219V4.30849H49.269V8.34373C49.269 9.401 49.9111 10.3878 51.3022 10.3878H52.1939V9.12787H51.5786C51.0257 9.12787 50.7493 8.81069 50.7493 8.27325V4.29968H52.1939V3.18073H50.7671V0.95166Z" fill="#249FDA"/>
<path d="M54.0477 2.08808C54.0031 1.99116 53.9496 1.91186 53.8783 1.84138C53.8069 1.77089 53.7178 1.71803 53.6197 1.67398C53.5216 1.62993 53.4146 1.6123 53.3076 1.6123C53.2006 1.6123 53.0936 1.62993 52.9955 1.67398C52.8974 1.70922 52.8171 1.77089 52.7369 1.84138C52.6655 1.91186 52.6031 1.99997 52.5585 2.08808C52.5139 2.18499 52.4961 2.29072 52.4961 2.39645C52.4961 2.72244 52.6923 3.01319 52.9865 3.12772C53.0846 3.17178 53.1916 3.1894 53.2987 3.1894C53.5127 3.1894 53.7089 3.1101 53.8605 2.96032C53.9318 2.88984 53.9942 2.80173 54.0299 2.71363C54.0745 2.61671 54.0923 2.50217 54.0923 2.39645C54.0923 2.29072 54.0745 2.18499 54.0299 2.08808H54.0477ZM53.8961 2.66957C53.8337 2.82816 53.7089 2.96032 53.5483 3.03081C53.4681 3.06605 53.3789 3.08367 53.2897 3.08367C53.2006 3.08367 53.1114 3.06605 53.0311 3.03081C52.9509 2.99556 52.8795 2.95151 52.8171 2.88984C52.7547 2.82816 52.7101 2.75768 52.6744 2.67838C52.6388 2.59028 52.6209 2.50217 52.6209 2.40526C52.6209 2.31715 52.6388 2.22904 52.6744 2.14094C52.7101 2.06164 52.7547 1.99116 52.8171 1.92949C52.942 1.80614 53.1114 1.73565 53.2897 1.73565C53.3789 1.73565 53.4681 1.75327 53.5483 1.78852C53.6286 1.82376 53.6999 1.86781 53.7534 1.92949C53.8159 1.99116 53.8604 2.06164 53.8961 2.14094C53.9318 2.22023 53.9496 2.31715 53.9496 2.40526C53.9496 2.50217 53.9318 2.59028 53.8961 2.67838V2.66957Z" fill="#249FDA"/>
<path d="M53.6203 2.38754C53.6738 2.34348 53.7006 2.273 53.6917 2.20252C53.6917 2.12322 53.6738 2.05274 53.6114 1.99987C53.5401 1.94701 53.4509 1.92939 53.3617 1.9382H52.9961V2.86331H53.1299V2.46683H53.2815L53.5311 2.86331H53.6917L53.4241 2.45802C53.4866 2.45802 53.5579 2.43159 53.6025 2.38754H53.6203ZM53.2815 2.3523H53.1209V2.06155H53.3171C53.3171 2.06155 53.3706 2.06155 53.3885 2.06155C53.4152 2.06155 53.433 2.07036 53.4509 2.07917C53.4687 2.08798 53.4866 2.1056 53.4955 2.12322C53.5044 2.14965 53.5133 2.16727 53.5133 2.19371C53.5133 2.22014 53.5133 2.25538 53.4955 2.28181C53.4866 2.29943 53.4598 2.31705 53.442 2.32586C53.4152 2.33467 53.3885 2.34348 53.3617 2.34348C53.335 2.34348 53.3082 2.34348 53.2725 2.34348" fill="#249FDA"/>
</g>
<defs>
<clipPath id="clip0_373_58139">
<rect width="154.074" height="40" fill="white"/>
</clipPath>
</defs>
</svg>
