<svg width="25" height="20" viewBox="0 0 25 20" fill="none" xmlns="http://www.w3.org/2000/svg">
<path d="M9.8816 2.19484C9.89724 1.9778 9.82831 1.76321 9.68969 1.59737L8.64615 0.304888C8.56983 0.208439 8.47294 0.130882 8.36281 0.0780742C8.25268 0.0252665 8.13219 -0.00141068 8.01043 5.74737e-05C7.82218 0.00617446 7.64105 0.0746847 7.49466 0.195149L0.801608 5.82842C0.635016 5.96972 0.527761 6.17034 0.50174 6.38931C0.487953 6.60984 0.556485 6.82754 0.693655 6.99897L1.7372 8.21829C1.80341 8.31323 1.88909 8.39243 1.98833 8.45045C2.08757 8.50847 2.19801 8.54392 2.31204 8.55435C2.42606 8.56478 2.54095 8.54995 2.64879 8.51088C2.75662 8.4718 2.85484 8.40942 2.93667 8.32803L9.58174 2.75573C9.6657 2.68701 9.73543 2.60207 9.7869 2.50579C9.83837 2.40952 9.87056 2.30383 9.8816 2.19484Z" fill="white"/>
<path d="M13.576 6.92581L12.4964 7.77933C11.9584 8.23856 11.2721 8.47898 10.57 8.45421C9.86783 8.42944 9.19958 8.14124 8.69413 7.64521L8.45423 7.40134L11.5609 4.80419C11.4314 4.67612 11.2863 4.56547 11.1291 4.47497C10.6051 4.20272 10.0354 4.03312 9.44979 3.97505L4.10015 8.53531C4.09642 9.64388 4.38201 10.7336 4.92779 11.6934C5.33561 12.3396 10.7452 18.7532 10.7932 18.8142L11.5729 19.7653C11.7232 19.9157 11.9257 20 12.1366 20C12.3475 20 12.55 19.9157 12.7004 19.7653C12.8934 19.6204 13.0261 19.4072 13.0722 19.1678C13.0929 19.0777 13.094 18.9841 13.0754 18.8935C13.0567 18.8029 13.0188 18.7176 12.9642 18.6435L10.3494 15.522C10.2842 15.4299 10.2577 15.3151 10.2757 15.2031C10.2936 15.091 10.3547 14.9909 10.4454 14.9246C10.536 14.8583 10.6489 14.8313 10.7591 14.8496C10.8693 14.8679 10.9679 14.9299 11.0331 15.0221L13.576 18.0094C13.7283 18.1606 13.9328 18.2453 14.1457 18.2453C14.3586 18.2453 14.5631 18.1606 14.7155 18.0094C14.8885 17.8921 15.0125 17.7136 15.0635 17.5086C15.1144 17.3036 15.0887 17.0867 14.9913 16.8999L12.4245 13.8516C12.3831 13.8093 12.3509 13.7587 12.33 13.703C12.309 13.6474 12.2998 13.5879 12.3028 13.5283C12.3059 13.4688 12.3212 13.4106 12.3477 13.3574C12.3743 13.3043 12.4115 13.2574 12.4569 13.2197C12.5024 13.1821 12.5551 13.1545 12.6116 13.1388C12.6682 13.1232 12.7274 13.1197 12.7853 13.1287C12.8433 13.1377 12.8988 13.1589 12.9482 13.191C12.9976 13.2231 13.0398 13.2653 13.0722 13.3151L15.6151 16.3024C15.7819 16.4254 15.9839 16.489 16.1899 16.4833C16.3959 16.4776 16.5943 16.403 16.7543 16.2709C16.9142 16.1389 17.0268 15.9569 17.0746 15.7531C17.1224 15.5493 17.1026 15.3352 17.0185 15.144L14.4636 12.1933C14.4237 12.1535 14.392 12.1061 14.3704 12.0538C14.3487 12.0014 14.3376 11.9452 14.3376 11.8884C14.3376 11.8317 14.3487 11.7755 14.3704 11.7231C14.392 11.6708 14.4237 11.6234 14.4636 11.5836C14.506 11.5497 14.5546 11.5246 14.6066 11.5099C14.6586 11.4952 14.7129 11.4911 14.7665 11.4979C14.82 11.5048 14.8717 11.5223 14.9186 11.5496C14.9654 11.5768 15.0065 11.6133 15.0393 11.6568L17.6542 14.6319C17.7616 14.7481 17.9061 14.8216 18.062 14.8392C18.3267 14.8454 18.5845 14.7535 18.7875 14.5808C18.9905 14.4081 19.1249 14.1662 19.1655 13.9003C19.1754 13.8227 19.1699 13.7439 19.1493 13.6685C19.1287 13.5931 19.0934 13.5227 19.0456 13.4614L13.576 6.92581Z" fill="white"/>
<path d="M15.891 3.46293C14.7269 3.47656 13.6052 3.9085 12.7243 4.68226L12.2566 5.08463L12.1366 5.18218L12.0287 5.27972L9.38982 7.42573C9.79368 7.7168 10.2809 7.86387 10.7756 7.84402C11.2703 7.82417 11.7446 7.63852 12.1246 7.31599L13.1562 6.45027L13.2761 6.35273L13.3601 6.27957C13.4635 6.17458 13.6037 6.11562 13.7499 6.11562C13.8961 6.11562 14.0363 6.17458 14.1397 6.27957L19.1535 12.3762C20.1425 11.5276 20.7665 10.3202 20.8927 9.01085L16.3947 3.48732L15.891 3.46293Z" fill="white"/>
<path d="M24.3472 7.10871L18.8057 0.304888C18.7306 0.210053 18.6357 0.133466 18.5277 0.0807252C18.4198 0.0279848 18.3017 0.000424044 18.1819 5.74737e-05C17.9932 0.00337832 17.8112 0.0722164 17.6662 0.195149L16.3947 1.21938C16.3081 1.28555 16.2365 1.36988 16.1848 1.46666C16.133 1.56343 16.1024 1.67039 16.0949 1.78027C16.074 1.9996 16.1386 2.2185 16.2748 2.38993L16.6706 2.87766L21.4685 8.80356L21.7804 9.19375C21.8475 9.27961 21.9309 9.35084 22.0257 9.40322C22.1205 9.45559 22.2247 9.48802 22.3321 9.49858C22.439 9.50975 22.547 9.49935 22.6499 9.46796C22.7529 9.43657 22.8487 9.38482 22.9319 9.31568L24.2033 8.24268C24.3632 8.11305 24.4666 7.92475 24.4912 7.71837C24.5222 7.50389 24.4707 7.28548 24.3472 7.10871Z" fill="white"/>
</svg>
