<svg width="25" height="24" viewBox="0 0 25 24" fill="none" xmlns="http://www.w3.org/2000/svg">
<path d="M11.6231 16.9385L7.28462 23.0769L6.17693 20.1231H3.22308L7.0077 15C7.74616 15.4615 8.53078 15.5077 9.08462 15.6462C9.26924 15.6923 9.50001 15.7385 9.59231 15.7385C9.68462 15.7846 9.86924 15.9231 9.96154 16.0154C10.3769 16.2923 10.9308 16.7077 11.6231 16.9385V16.9385ZM18.6385 15C17.9 15.4615 17.1154 15.5077 16.5615 15.6462C16.3769 15.6923 16.1 15.7385 16.0077 15.7385C15.9154 15.7846 15.7308 15.9231 15.6385 16.0154C15.2231 16.2923 14.7154 16.7538 14.0231 16.9846L18.3615 23.0769L19.4692 20.1231H22.4231L18.6385 15ZM12.8231 5.35385C11.3923 5.35385 10.2385 6.5077 10.2385 7.93847C10.2385 9.36923 11.3923 10.5231 12.8231 10.5231C14.2539 10.5231 15.4077 9.36923 15.4077 7.93847C15.4077 6.5077 14.2539 5.35385 12.8231 5.35385V5.35385ZM19.8385 7.93847C19.8385 8.81539 18.8692 9.5077 18.5462 10.2923C18.2231 11.1231 18.4077 12.2769 17.7615 12.8769C17.1615 13.4769 16.0077 13.3385 15.1769 13.6615C14.3923 13.9846 13.7 14.9539 12.8231 14.9539C11.9462 14.9539 11.2539 13.9846 10.4692 13.6615C9.63847 13.3385 8.48462 13.5231 7.88462 12.8769C7.28462 12.2769 7.42308 11.1231 7.10001 10.2923C6.77693 9.5077 5.8077 8.81539 5.8077 7.93847C5.8077 7.06154 6.77693 6.36923 7.10001 5.58462C7.42308 4.75385 7.23847 3.6 7.88462 3C8.48462 2.4 9.63847 2.53847 10.4692 2.21539C11.2539 1.89231 11.9462 0.92308 12.8231 0.92308C13.7 0.92308 14.3923 1.89231 15.1769 2.21539C16.0077 2.53847 17.1615 2.35385 17.7615 3C18.3615 3.6 18.2231 4.75385 18.5462 5.58462C18.8692 6.36923 19.8385 7.06154 19.8385 7.93847ZM17.6231 7.93847C17.6231 5.26154 15.5 3.13847 12.8231 3.13847C10.1462 3.13847 8.02308 5.26154 8.02308 7.93847C8.02308 10.6154 10.1462 12.7385 12.8231 12.7385C15.5 12.7385 17.6231 10.6154 17.6231 7.93847Z" fill="white"/>
</svg>
