<svg width="19" height="16" viewBox="0 0 19 16" fill="none" xmlns="http://www.w3.org/2000/svg">
<path fill-rule="evenodd" clip-rule="evenodd" d="M0.974924 9.09515H13.7442C14.0903 9.09515 14.2442 9.51823 14.0134 9.749L10.3211 13.4413C10.0903 13.6721 10.0903 14.0182 10.3211 14.249L11.1672 15.0951C11.398 15.3259 11.7442 15.3259 11.9749 15.0951L18.7057 8.32592C18.9365 8.09515 18.9365 7.749 18.7057 7.51823L11.9749 0.787457C11.7442 0.556688 11.398 0.556688 11.1672 0.787457L10.3595 1.59515C10.1288 1.82592 10.1288 2.17207 10.3595 2.40284L14.0518 6.09515C14.2826 6.36438 14.1288 6.78746 13.7826 6.78746H1.01339C0.705693 6.78746 0.436462 7.01823 0.436462 7.32592V8.47976C0.436462 8.78746 0.667232 9.09515 0.974924 9.09515V9.09515Z" fill="#002196"/>
</svg>
